<?xml version="1.0" standalone="no"?>
<!DOCTYPE svg PUBLIC "-//W3C//DTD SVG 1.1//EN" "http://www.w3.org/Graphics/SVG/1.1/DTD/svg11.dtd" >
<svg xmlns="http://www.w3.org/2000/svg">
<metadata></metadata>
<defs>
<font id="trattatelloregular" horiz-adv-x="671" >
<font-face units-per-em="2048" ascent="1638" descent="-410" />
<missing-glyph horiz-adv-x="557" />
<glyph horiz-adv-x="0" />
<glyph unicode="&#xd;" horiz-adv-x="557" />
<glyph unicode=" "  horiz-adv-x="557" />
<glyph unicode="&#x09;" horiz-adv-x="557" />
<glyph unicode="&#xa0;" horiz-adv-x="557" />
<glyph unicode="!" horiz-adv-x="614" d="M131 170q0 23 16.5 27t28.5 14q14 16 23.5 26.5t17.5 18.5t18.5 14t26.5 15q23 12 29 31.5t28 19.5q16 0 27.5 -8.5t19 -21.5t15.5 -29.5t18 -30.5q25 -35 53.5 -68t26.5 -53q0 -23 -26.5 -47.5t-42.5 -54.5q-12 -27 -27.5 -44.5t-40.5 -17.5q-23 0 -34 15.5t-23 29.5 q-23 12 -32 20.5t-26 30.5q-6 14 -10 21.5t-9 11.5t-14.5 8t-23.5 11q-12 12 -25.5 28.5t-13.5 32.5zM256 1346v10q0 20 6 32.5t16.5 22.5t23.5 22.5t28 34.5q37 51 72.5 88t69.5 73t64.5 79t55.5 109q12 4 22 10q10 4 19.5 8t15.5 4q8 -2 24.5 -10t32 -20.5t27.5 -28 t12 -33.5q-12 -25 -20 -49q-8 -23 -16.5 -46.5t-14.5 -45.5q-8 -6 -16 -22.5t-14.5 -37t-10.5 -42t-4 -36.5q-12 -25 -22 -49q-10 -23 -19.5 -51.5t-15.5 -62.5q0 -39 -16.5 -99.5t-28.5 -111.5q0 -27 -12.5 -58.5t-16.5 -62.5q-4 -39 -7 -55.5t-5 -25.5t-4 -17.5t-6 -26.5 q-2 -23 -5.5 -40t-7.5 -35.5t-10 -43t-12 -63.5q-8 -23 -10 -49.5t-13 -53.5q-23 -23 -67.5 -31t-79.5 9q4 8 4 20t-1 23.5t-1 21.5t4 15l33 284l12 211l16 182q0 8 2 19.5t-2 19.5q-4 4 -14 4t-14 -4q-16 -12 -32.5 -10t-29.5 10q-12 0 -12 9z" />
<glyph unicode="&#x22;" horiz-adv-x="921" d="M199 1100q0 25 8 41t4 37q-4 23 1 43t5 43q0 27 2 45t5 33.5t7.5 31t8.5 37.5q2 25 2 52.5t2 55t8 51t20 36.5l93 -17q16 8 35.5 21.5t37 20.5t29.5 3t16 -28q10 -47 -3 -81t-36 -73q-23 -47 -36 -82t-27 -94q-16 -78 -32.5 -140.5t-63.5 -105.5q-27 -16 -52 0 q-16 4 -20 28t-14 42zM592 1110q-4 27 6 40t10 40q-8 27 -6 43t6 43q0 23 3 39t7.5 31.5t9.5 34t9 42.5q4 25 6 53.5t5 56.5t10.5 51.5t25.5 33.5l90 16q16 6 35.5 18.5t37 18.5t30 1t16.5 -32q4 -43 -9.5 -76.5t-29.5 -72.5q-27 -47 -44 -104.5t-30 -116.5q-12 -37 -21 -71 t-19.5 -63.5t-25 -55t-36.5 -44.5q-16 -10 -30.5 -24.5t-26.5 -3.5q-12 10 -18.5 44.5t-10.5 57.5z" />
<glyph unicode="#" horiz-adv-x="933" d="M80 371q-4 12 0 26.5t16 24.5q8 14 23 22q10 10 47 11q12 0 34.5 3t39.5 3l39 6q6 20 11 49t7 55.5t3 48t1 29.5q-4 -4 -31.5 -6t-52.5 -6h4h-51h-51q-16 4 -19.5 13t-3.5 22q4 10 9.5 17t9.5 18q0 -4 1 -2l9 18v6q8 33 45 39q18 4 37.5 2t38.5 -2q20 0 41.5 9t25.5 9 q2 2 4 15.5t4.5 33t4.5 43t4 44.5q2 12 4 19t4 11t3 10.5t1 16.5v35q0 27 7 56.5t50 29.5q6 0 23.5 1t37 1h35t17.5 -2q6 -6 6 -41q0 -23 -7 -51.5t-15 -63.5q-4 -41 -13.5 -85t-9.5 -73h6q12 4 35 4.5t39 0.5q29 0 46 3t22 3v22q0 20 6 51q4 23 7 48.5t3 37.5q4 16 8 29.5 t4 28.5l6 22q0 27 5.5 43.5t33.5 24.5h41q4 0 4 6q18 0 31.5 5t26.5 1q10 -4 17 -13t11 -32q0 -10 -1 -9t-9 -26l-6 -28q-4 -27 -11 -58.5t-7 -44.5q0 -12 2 -25.5t-2 -25.5q-4 -23 -13.5 -41t-9.5 -22l74 6h63h39q23 -18 12 -45q0 -27 -17 -52.5t-34 -40.5q-4 -8 -8 -9 t-8 -1q-14 -10 -30.5 -8t-39.5 2h-74q4 -4 1 -26.5t-7 -34.5v-29l-4 -35q-4 -12 -7 -23.5t1 -15.5q-2 2 7 2h21.5h26t19.5 2q23 0 39 2t28 -6q10 0 17.5 -7t11.5 -17q2 -4 -3 -23.5t-15.5 -42t-23.5 -41t-26 -18.5h-40h-21.5t-27 1t-22.5 2t-9 3q-4 -12 -11.5 -40t-15.5 -75 q0 -8 -3 -24.5t-3 -20.5l-19 -61q-8 -27 -13 -49.5t-9 -30.5l-10 -29q-10 -10 -19.5 -7t-25.5 7h-19q-29 -16 -28 39q0 10 -2.5 20.5t2.5 20.5v23v16q0 27 7 53.5t11 48.5q8 31 9 42.5t1 37.5v35h-96q-27 0 -45.5 -1t-18.5 -5q0 4 -12 -39t-20 -98q-10 -55 -23.5 -101.5 t-17.5 -62.5q-10 -10 -29.5 -13.5t-36.5 -1.5q-23 2 -43 9q2 14 4 36.5t5 47t5.5 47t4.5 35.5l-7 51q4 20 7.5 29.5t6.5 15.5t5 14t4 31l-125 6h-35q-8 8 -12 13t-4 16zM115 707q0 4 2 4h2q-4 0 -4 -4zM416 479h28h58q16 0 31.5 2t23.5 -2h25q4 14 8 39t8 49.5t7 46t3 29.5 h-102q-8 0 -13.5 -1t-31.5 -5h-17v-16q0 -10 -4 -25.5t-8 -32.5q-8 -43 -12 -61.5t-4 -22.5z" />
<glyph unicode="$" horiz-adv-x="1155" d="M86 195q0 59 44 103t110 44q39 0 73.5 -17.5t34.5 -52.5q0 -12 -3 -18t-3 -14q0 -14 5 -22.5t5 -18.5q0 -4 -2 -11.5t-2 -11.5q0 -29 16.5 -51.5t38.5 -38.5q14 25 18.5 57.5t0.5 51.5q-2 20 5 62t17.5 86t17.5 80t5 44q10 23 14 58.5t8 82.5q-16 10 -25 19.5t-26 21.5 q-23 8 -40 12.5t-33 22.5q-12 12 -21.5 22.5t-19.5 28.5q-16 25 -34 37t-18 43q0 16 -2 24.5t-2 26.5q0 12 -3 24.5t-3 27.5q0 8 5 13t5 13v29q0 33 12.5 56.5t32 42t44 34.5t49.5 33q43 27 79.5 46t79.5 27q4 43 6.5 84t6.5 70q10 4 24.5 16.5t29.5 26.5t28.5 28.5 t19.5 20.5q12 0 28.5 -10t39.5 -18q8 -35 4 -54.5t-4 -48.5q0 -35 -9.5 -59.5t-19.5 -55.5q23 -4 40 -7t34 -15q35 -23 40 -49.5t5 -65.5q0 -20 -9.5 -42.5t-25.5 -41t-37.5 -30t-46.5 -11.5q-10 0 -17.5 3t-11.5 3q-16 -27 -26.5 -73.5t-18.5 -102.5q35 -16 64.5 -29.5 t72.5 -39.5q29 -25 56.5 -34t62.5 -40q33 -20 57.5 -37.5t41 -38t24.5 -46.5t8 -64v-48q0 -25 8.5 -44t8.5 -46q0 -43 -5.5 -69.5t-23.5 -61.5q-4 -16 -11 -27.5t-18 -23.5q-8 -27 -26.5 -35t-34.5 -28q-18 -16 -34.5 -28.5t-33 -24t-34 -21.5t-41.5 -23q-39 -23 -67 -32 t-75 -19q-12 -4 -23.5 -13t-27.5 -9q-12 0 -25.5 3t-25.5 3q-16 0 -27.5 -1t-23.5 -5q-4 -39 -12.5 -81t-22.5 -89q-12 -27 -29.5 -34t-28.5 -7l-16 6q-10 51 -12 84t6 57q0 23 1 43.5t5 36.5q-16 4 -29.5 5t-27.5 1q-25 0 -38 13.5t-36 27.5q-27 12 -45 17.5t-41 27.5 q-25 12 -29 31.5t-16 42.5q-12 35 -25.5 54.5t-13.5 60.5zM422 928q0 -29 10 -45.5t25.5 -27.5t35 -17.5l37.5 -12.5q8 55 14.5 109.5t18.5 114.5q-51 -14 -96 -46t-45 -75zM530 63q68 0 113 13.5t92 60.5q25 29 49.5 73t24.5 87q0 25 -6 40t-6 44q0 4 -5.5 9t-5.5 9 q0 31 -16 51.5t-43 37t-57.5 29.5t-61.5 30q0 -31 -4 -70t-11 -74.5t-15.5 -64.5t-14.5 -37q8 -16 6 -30.5t-8 -27t-11 -24.5t-3 -24l-12 -70q0 -16 -2.5 -32.5t-2.5 -29.5z" />
<glyph unicode="%" horiz-adv-x="1343" d="M68 699.5v45.5t2 50t6 66t9 64.5t11 47.5q35 70 84.5 109.5t104.5 78.5q35 16 89 13t93 -7q29 -4 52.5 -13t33.5 -32q6 -10 11 -29.5t9.5 -40t6.5 -37t2 -20.5q0 -47 1 -93t-8 -93q-10 -43 -25 -76t-32 -67q-23 -43 -55.5 -76t-75.5 -49q-43 -27 -106.5 -30t-114.5 13 q-10 4 -21.5 21.5t-25.5 17.5q-20 10 -30.5 32.5t-15.5 49.5t-5 54.5zM211 -137l10 22q10 39 17.5 72t29.5 49q2 10 9.5 21.5t15.5 20.5t16 17.5t10 14.5q23 39 34.5 70.5t33.5 54.5q12 16 28.5 43.5t16.5 42.5q4 18 24.5 52t43 67.5t42 61.5t21.5 34q18 20 40 60t42.5 83 t41 81t36.5 56q39 63 73.5 123t73.5 133q23 59 43.5 109.5t36.5 89.5q14 0 34 5t38 12.5t32.5 13.5t20.5 8q18 0 31.5 -11.5t26.5 -27.5q0 -29 -10.5 -45t-22.5 -45q-10 -27 -27.5 -45.5t-30.5 -40.5q-2 -6 -6 -18.5t-9 -24.5t-12 -21.5t-14 -9.5q-10 -14 -17 -24.5 t-13 -20.5q-8 -10 -15 -18q-16 -23 -20 -35t-8 -39q-23 -16 -49.5 -58t-53 -88t-50 -87t-40.5 -58q-4 -16 -22.5 -51t-40 -70.5t-41 -66.5t-27.5 -39q2 -12 -6 -23.5t-18.5 -20.5t-20.5 -18.5t-12 -17.5l-29 -57q-23 -35 -37 -66t-37 -53q-27 -51 -54.5 -94t-65.5 -101 q-10 -8 -26.5 -13t-34 -7t-32 -2h-20.5zM217 825q0 -16 4 -36.5t0 -36.5q0 -12 7.5 -28.5t17.5 -29.5q27 -45 67 -45q12 -4 38 8.5t36 26.5q25 25 39 66t16 87t-10 90t-39 74q-10 10 -23.5 12.5t-21.5 6.5q-10 8 -30.5 8t-32.5 -8q-23 -6 -31 -15.5t-10 -20.5t-3 -23.5 t-8 -26.5q0 -4 -3 -14.5t-3 -20.5v-33q-4 -14 -7 -21t-3 -20zM745 182q-2 20 1.5 51t10.5 62t15 60.5t14 47.5q35 66 83.5 112t103.5 89q18 6 41.5 7t48 1t49.5 -2t43 -2q31 -4 56.5 -28.5t35.5 -49.5q6 -10 11.5 -28.5t9.5 -39t6 -35.5t2 -17q-4 -68 -14.5 -136.5t-33 -127 t-59 -103.5t-94.5 -66q-41 -27 -105.5 -30.5t-115.5 14.5q-10 4 -21.5 19.5t-23.5 25.5q-23 10 -35 31.5t-18 47.5t-8.5 52.5t-2.5 44.5zM893 262q0 -16 3 -35.5t3 -31.5q0 -18 12.5 -33t22.5 -31q23 -39 67 -45q14 -4 38 10.5t36 22.5q25 27 39 67.5t16.5 85.5t-10 89.5 t-39.5 76.5q-8 10 -21 12.5t-24 10.5q-10 4 -29.5 7t-33.5 -7q-20 -8 -28.5 -17.5t-11.5 -19.5t-4 -22.5t-7 -26.5q0 -4 -8.5 -16.5t-8.5 -22.5v-35q-4 -12 -8 -19.5t-4 -19.5z" />
<glyph unicode="&#x26;" horiz-adv-x="2031" d="M102 387v57v62v35q0 37 21.5 72.5t47.5 67.5t47.5 60.5t21.5 49.5q0 20 -9.5 39.5t-19.5 36t-19.5 31.5t-9.5 30q0 43 17.5 102.5t52.5 114.5t84 93t115 38h96h39h57q16 0 40 8t40 8h16h41h17h57q27 0 52.5 -13t44 -35.5t29.5 -51.5t11 -59q0 -23 -16.5 -39.5t-38 -27.5 t-45 -17.5t-37.5 -6.5q-43 0 -76 14.5t-60.5 31t-50 31t-46.5 14.5q-29 0 -65 -13.5t-68.5 -36t-55 -53.5t-22.5 -67q0 -12 7 -32t20.5 -38.5t30.5 -31.5t38 -13h41q6 0 30.5 -6t52 -16.5t49 -25t21.5 -32.5q0 -12 -6 -27.5t-14 -30t-18.5 -23.5t-18.5 -9h-80 q-43 -8 -83 -23.5t-72.5 -39t-52 -56.5t-19.5 -76q0 -94 54 -162.5t130 -113.5t158 -66.5t137 -21.5q8 0 27.5 2t38.5 6q23 4 47 10l37 19q16 8 32.5 14t32.5 6q35 0 66.5 21.5t60.5 51.5t54.5 61.5t45.5 54.5q43 45 61.5 67.5t18.5 50.5q0 43 -18.5 63.5t-61.5 35.5 q-20 10 -40 6q-8 -2 -15 -6q-16 0 -38.5 -11.5t-45 -28t-38 -39t-15.5 -42.5v-17q0 -23 -12.5 -40t-29.5 -29.5t-37.5 -19.5t-35.5 -7q-14 0 -25.5 9.5t-18.5 21.5t-10 25.5t-3 21.5q0 80 36 142.5t92 107.5t124.5 68.5t134.5 23.5h92q29 -12 71 -14t89 -2h16h41 q57 0 105.5 32.5t93.5 72.5t89 73t93 33q20 0 32.5 -14.5t17.5 -34t6.5 -39t1.5 -27.5q0 -31 -15.5 -73t-40 -82t-55.5 -67.5t-62 -27.5q-12 0 -22 10q-6 6 -10 13h-47q-25 -16 -52.5 -21.5t-44.5 -17.5q-23 0 -48 1t-46.5 -3.5t-37 -17.5t-15.5 -44q0 -57 -20.5 -107.5 t-52.5 -91t-69.5 -72.5t-74.5 -52q-27 -14 -46.5 -41t-43.5 -58q-16 -12 -42 -14t-38 -2q-86 -43 -174 -77t-174 -60h-58h-39h-57h-57q-23 0 -84.5 33.5t-128 76.5t-122.5 84t-69 58q-35 41 -49 87t-31 105z" />
<glyph unicode="'" horiz-adv-x="512" d="M182 1110q-4 27 5.5 40t7.5 40q-4 27 -4.5 43t4.5 43q2 23 6 39t8 31.5t9 34t9 42.5q2 25 3 53.5t4.5 56.5t10.5 51.5t23 33.5l90 16q16 6 36 18.5t37.5 18.5t30.5 1t17 -32q8 -43 -5 -76.5t-36 -72.5q-23 -47 -40 -104.5t-33 -116.5q-10 -37 -18.5 -71t-19 -63.5 t-25.5 -55t-40 -44.5q-12 -10 -26.5 -24.5t-30.5 -3.5q-12 10 -17.5 44.5t-5.5 57.5z" />
<glyph unicode="(" horiz-adv-x="552" d="M39 371v45v51q0 18 1 27.5t2 14.5l2 10t1 16q0 16 -3 25t-3 32q0 16 6 26.5t14.5 19.5t14.5 20.5t6 29.5q0 16 5 36.5t5 43.5q0 45 10.5 79t27.5 65.5t37.5 65.5t39.5 81q0 16 14 22t14 23q0 20 11 37q6 8 12 14q0 37 9 62.5t26.5 47t41 42t54.5 49.5q16 8 26.5 17 t19.5 20.5t20.5 26t29.5 32.5q16 39 43 65.5t82 43.5q68 0 99 38q16 16 25 31t48 15q6 0 14.5 4t14.5 4t11 -6.5t5 -24.5t-12 -30.5t-27.5 -22.5t-32 -25.5t-24.5 -40.5q-35 -23 -57.5 -48t-38.5 -25q-47 -29 -75 -60t-48.5 -61.5t-42 -57t-57.5 -45.5q-18 -10 -25.5 -24.5 t-11.5 -29.5t-11.5 -33.5t-25.5 -37.5q-55 -55 -75.5 -115.5t-20.5 -150.5q-23 -35 -37.5 -64.5t-14.5 -84.5v-52q0 -16 -9 -36.5t-9 -36.5q0 -39 3 -48.5t3 -25.5t-3 -36.5t-3 -37.5q0 -18 6 -33.5t14.5 -29t14.5 -26.5t6 -32q0 -18 2 -24t5 -9t6 -9.5t3 -24.5 q10 -29 14.5 -51.5t26.5 -44.5q12 -35 17.5 -66t21.5 -66q10 -29 27.5 -44t34 -26t29 -23.5t12.5 -30.5q18 0 29.5 -12.5t18.5 -28t12 -33t13 -25.5q8 -10 20.5 -16t23 -10t18.5 -10.5t8 -14.5q0 -35 -2 -54.5t-16 -19.5q-18 0 -29.5 -3t-22 -8t-22 -8t-29.5 -3 q-55 0 -98 46t-94 101q-39 35 -71 76t-32 96q0 16 -11 37t-11 43q0 45 -7.5 70.5t-16.5 49.5t-16 50.5t-7 73.5v47q0 16 -14.5 33.5t-14.5 40.5z" />
<glyph unicode=")" horiz-adv-x="585" d="M-170 -285q0 39 14.5 63.5t38 43t52 35t59.5 41.5q94 29 146.5 79t80.5 148q31 66 60.5 124t53 117.5t38 122t14.5 138.5v61v64q0 25 -4 41t-10 30.5t-10.5 30.5t-4.5 39q0 31 -17 51.5t-17 46.5q-14 61 -31 109.5t-36 90.5t-43 82t-54 87q-8 8 -19.5 10t-23 2t-21.5 1 t-16 11q-35 41 -40 87.5t-5 89.5q0 47 39 74.5t86 27.5q31 0 47 -10.5t28.5 -26.5t22.5 -37.5t27 -46.5q14 -31 34.5 -46t39 -27.5t31.5 -30t13 -54.5q0 -18 3.5 -34.5t3.5 -28.5q0 -31 14 -50.5t14 -35.5q0 -43 5.5 -66.5t17.5 -52.5q16 -16 19 -31.5t3 -31.5v-80 q0 -59 11.5 -113.5t11.5 -130.5q0 -31 -5 -54.5t-11.5 -46t-11.5 -46t-5 -52.5q0 -10 1 -24t1 -27.5t-3 -24t-11 -10.5q-6 -59 -16.5 -94t-26 -63.5t-34.5 -60t-42 -85.5q-16 -45 -27.5 -77.5t-27 -61.5t-36 -58.5t-52.5 -68.5q-23 -31 -43.5 -50.5t-41 -32.5t-44 -22.5 t-54.5 -15.5q-14 -8 -29.5 -22.5t-31.5 -27.5t-32.5 -23.5t-31.5 -10.5q-23 0 -35 1t-18 5.5t-7 13.5t-1 25z" />
<glyph unicode="*" horiz-adv-x="927" d="M93 880.5q5 18.5 16 37.5q6 12 16 29.5t22.5 31.5t25.5 21.5t26 0.5q43 -23 69.5 -49t73.5 -53q16 -4 27.5 -4t29.5 4l-6 51q-4 47 -6 79t-12 71q-18 39 -15.5 51t18 12t38 -4t45.5 2q6 2 22.5 6t35 6.5t34.5 0t22 -12.5q4 -4 0 -20.5t-10 -34.5q-8 -23 -18 -47 q-4 -14 -5 -31.5t-3 -36t-6.5 -38t-14.5 -35.5q10 0 11 -9.5t6 -9.5q10 10 18 12t22 7q12 8 27.5 7t30.5 3q12 6 16 11t6 9t7.5 10.5t21.5 14.5q10 4 19.5 12t18.5 12t16 4t14 -10q4 -16 7 -23t6 -13.5t7 -14.5t8 -22q2 -6 11.5 -17.5t18.5 -24t13 -22.5t-4 -16 q-18 -8 -47 -16.5t-58.5 -15.5t-58.5 -15.5t-47 -16.5q-25 -12 -20.5 -27.5t20.5 -39.5q2 -6 16.5 -22.5t31 -33t33 -32t22.5 -21.5q10 -25 10 -39t-9.5 -25.5t-26.5 -21.5t-42 -23q-23 -12 -43 -22t-37 12q-8 16 -18 40t-21.5 48.5t-23 47t-21.5 40.5q-10 16 -24.5 19.5 t-28.5 -19.5q-18 -18 -28.5 -39.5t-19.5 -44t-19.5 -44t-28.5 -38.5q-12 -16 -24.5 -17t-26 8t-26.5 24.5t-26 30.5q-10 10 -27.5 16t-30.5 12t-19.5 12.5t4.5 16.5q16 12 38.5 29.5t34.5 27.5q14 14 38 29.5t40.5 30t21.5 30t-14 29.5q-4 10 -16 13t-29 16q-43 16 -78.5 25 t-74.5 26q-27 14 -22 32.5z" />
<glyph unicode="+" horiz-adv-x="927" d="M125 531.5v50.5q0 20 3 43.5t26 23.5q43 0 90 -8t86 -8q23 0 40 11t17 34q0 27 -8 48.5t-17.5 41.5t-17.5 40.5t-8 45.5q0 43 31.5 47t70.5 4q14 0 30.5 6.5t31 11.5t22.5 4t8 -16q0 -16 -6 -45.5t-6 -50.5q0 -18 -2 -41.5t-1 -46t8 -40t24 -21.5q23 -4 36 -2t25 2 q47 0 85 9t81 9q27 0 31 -20.5t4 -42.5q0 -14 -2 -33t-8 -34t-16.5 -25.5t-24.5 -10.5q-53 0 -89 3t-87 3q-23 0 -27 3t-14 -9q-16 -23 -22.5 -26t-6.5 -25q0 -16 3 -32.5t3 -31.5q0 -12 -6 -19t-6 -19q0 -16 3 -22.5t6 -10.5t6 -11.5t3 -23.5q0 -27 4 -45.5t-22 -18.5h-74 q-10 0 -27.5 -6t-34 -10t-28.5 -5t-12 9q0 20 7 52t15 66t15.5 65t7.5 51q0 27 -16.5 34t-45.5 7q-6 0 -23.5 -4.5t-37 -10.5t-37.5 -10t-27 -4q-27 0 -40 7t-18 21.5t-5 36z" />
<glyph unicode="," horiz-adv-x="524" d="M-176 -272q6 27 22.5 45t39 32.5t46 27.5t45.5 30q43 33 83 61.5t73 61t52.5 72.5t19.5 96q0 20 -10.5 35.5t-23.5 29.5t-23.5 30.5t-10.5 41.5q0 29 26.5 37t53.5 24q8 6 13.5 18.5t10.5 22.5t12 17.5t19 5.5q18 0 28.5 -8.5t23.5 -20.5q57 -39 68 -90t11 -121 q0 -31 -7 -54.5t-19 -46t-27.5 -45t-30.5 -46.5q-35 -53 -65.5 -86t-83.5 -64q-39 -20 -73 -43.5t-69.5 -43t-73.5 -32t-85 -12.5q-4 0 -11.5 4t-15.5 8q-8 6 -18 13z" />
<glyph unicode="-" horiz-adv-x="659" d="M80 453q0 14 2 49t14 49q47 25 86 52.5t86 43.5q12 12 37 13.5t53 15.5l52 10q16 0 32.5 15.5t40.5 7.5q14 14 29.5 24t50.5 10v-34q0 -6 -4 -23.5t-12 -39t-19.5 -43t-25.5 -36.5q-14 0 -29.5 -3t-46.5 -3q-12 0 -31.5 -7t-36.5 -22q-12 -12 -39.5 -16t-56.5 -16 q-16 0 -32.5 -14.5t-30.5 -14.5q-12 -14 -42 -16t-61 -2h-16z" />
<glyph unicode="." horiz-adv-x="495" d="M68 115q0 8 16 40.5t39.5 71.5t47.5 75t40 50q8 0 44 -19.5t75 -48t70.5 -59t31.5 -55.5q0 -14 -32.5 -51t-74.5 -75t-82 -66.5t-55 -28.5q-23 0 -44 23.5t-37.5 52t-27.5 56.5t-11 34z" />
<glyph unicode="/" horiz-adv-x="722" d="M-29 -256l6 23q4 47 10.5 80.5t24.5 56.5q2 10 8.5 22.5t13.5 24.5t14 23.5t9 19.5q16 43 26.5 80t25.5 63q16 23 30.5 51.5t14.5 51.5q4 20 21.5 59t35.5 79t33.5 71.5t17.5 39.5q18 25 36.5 71t36 95.5t35 93.5t33.5 66q31 72 58.5 140.5t56.5 154.5q23 70 37 127 t31 100q12 0 31.5 8.5t38 18.5t34 21.5t21.5 15.5q14 0 27.5 -14.5t29.5 -30.5q0 -35 -10 -52.5t-19 -50.5q-4 -31 -19 -54t-32 -48q0 -10 -1 -24.5t-4 -28t-9 -23.5t-15 -10q-20 -33 -28 -49q-6 -12 -10 -25q-12 -27 -17.5 -40t-5.5 -33q-23 -27 -45.5 -77t-44 -104.5 t-42 -103.5t-34.5 -70q-2 -18 -17.5 -58t-34 -81t-37.5 -77t-30 -46q6 -14 0 -26.5t-15 -23.5t-17.5 -22.5t-8.5 -23.5l-22 -64q-23 -39 -37 -74.5t-31 -60.5q-23 -66 -45 -116t-57 -117q-10 -10 -26.5 -16.5t-34 -9.5t-31 -3h-17.5z" />
<glyph unicode="0" horiz-adv-x="1001" d="M51 393q0 37 1 89.5t4 108.5t11.5 108.5t22.5 86.5q59 127 144.5 209t191.5 156q31 16 73 20.5t88 2t91 -7.5t80 -5q47 -8 92 -29.5t68 -60.5q10 -18 18 -52t13 -69t7 -64.5t0 -37.5q0 -123 -13 -243t-51 -227.5t-104.5 -198.5t-173.5 -156q-41 -25 -92 -39.5 t-105.5 -18.5t-107.5 2t-98 21q-23 4 -36 6t-38 12q-39 20 -56.5 70.5t-23.5 109t-5 114.5t-1 93zM272 530q0 -39 11.5 -77.5t7.5 -77.5v-69t22 -73q29 -47 65 -69.5t83 -26.5q16 -2 35.5 5.5t38 18.5t34 25.5t23.5 24.5q55 55 94 147.5t51.5 193.5t-7 200.5t-81.5 169.5 q-23 27 -54.5 31.5t-53.5 15.5q-27 12 -64.5 4.5t-60.5 -23.5q-47 -18 -63.5 -43.5t-20.5 -53.5t-4 -56.5t-15 -57.5q0 -12 -6 -20t-6 -25v-80q-12 -23 -20.5 -41t-8.5 -43z" />
<glyph unicode="1" horiz-adv-x="917" d="M118 13.5q-7 15.5 0 29.5t25.5 27.5t42.5 23.5q53 25 144 47q16 27 25.5 74t14.5 103.5t6 118t1 118.5t-1 105.5t-1 78.5q2 29 2 47.5v34v30.5t4 38q0 2 -1 13t-3 24.5t-3 25t-3 11.5q-23 4 -42.5 -3.5t-38 -18.5t-39 -20.5t-40.5 -9.5q-31 0 -53.5 5.5t-32.5 33.5 q-8 23 -6 47.5t18 32.5q39 6 93.5 27.5t113.5 45t116.5 43t102.5 21.5q23 0 39 -4t31 -8q8 -4 9 -27.5t1 -27.5q4 -113 -4 -213.5t-25 -202.5q-4 -74 -6 -149.5t-10 -147.5q-2 -10 -3 -35.5t-1 -53.5t1 -52.5t3 -34.5q-2 -27 5 -44t22.5 -30.5t36 -25t45.5 -25.5 q25 -16 57.5 -31.5t50.5 -31.5q29 -29 20.5 -52.5t-49.5 -27.5q-23 0 -46 15t-46 19q-23 2 -37 3.5t-28.5 1.5t-29.5 1t-36 5q-45 8 -104.5 3t-117.5 -13.5t-109.5 -10.5t-77.5 17q-29 14 -36 29.5z" />
<glyph unicode="2" horiz-adv-x="917" d="M30 946q3 21 18 42.5t35.5 41t35.5 29.5q25 16 56.5 39.5t66 44t71.5 33t68 8.5q16 0 46 -2t52 2q20 8 54 1t70 -22.5t65.5 -38t42.5 -43.5q43 -61 59 -104t14 -80t-18 -74t-37 -88q-10 -23 -16 -49.5t-19 -48.5q-8 -18 -26.5 -38.5t-41 -40t-44 -38t-35.5 -37.5 q-23 -25 -43.5 -54.5t-36.5 -57.5q-12 -31 -33.5 -57.5t-42 -50t-35 -44t-14.5 -37.5q0 -10 17.5 -10t21.5 4q31 8 55.5 8t48 -2t49 -3t58.5 3q35 6 71.5 27.5t73.5 44t70 41t59 18.5q23 0 26 -24.5t-6 -62.5t-27.5 -82t-37 -82.5t-34 -66.5t-19.5 -30q-29 -16 -63.5 -15 t-72.5 8t-74 17.5t-62 12.5q-8 2 -36 2h-66h-82t-85 4q-23 4 -42 3t-36.5 -4t-33 -4t-25.5 5q-12 8 -24.5 23.5t-20.5 32t-11 32.5t1 27q8 20 25.5 33.5t38 23.5t40 19.5t31.5 25.5q23 29 51.5 63.5t63.5 61.5q12 16 26.5 28.5t30.5 34.5q4 12 8 28.5t8 33.5q14 45 44 85 t57.5 81t46 87t12.5 101q-8 55 -47 100.5t-90 65.5t-105.5 10t-93.5 -63q-12 -12 -23.5 -27t-27.5 -31q-12 -8 -24.5 -6t-23.5 9.5t-20.5 18.5t-17.5 19q-18 14 -15 35z" />
<glyph unicode="3" horiz-adv-x="944" d="M23 102q-4 16 14 22.5t31 22.5q8 18 18 35t22.5 27t25.5 10t26 -14q16 -23 61 -58.5t103.5 -62.5t120 -32t112.5 38q27 27 53.5 61.5t26.5 81.5q0 41 -12.5 84t-35 81t-55 67t-73.5 41q-16 10 -46 20.5t-73 20.5q-16 2 -29.5 -1t-25 -5t-21.5 2t-20 20q-6 12 -12.5 27.5 t-8.5 29t1 23.5t14 12q27 10 69.5 10.5t88.5 7.5t91.5 29.5t79.5 77.5q16 16 19.5 39t3.5 51q-4 18 -12.5 43t-22.5 47.5t-33.5 35t-44.5 5.5q-23 0 -35 1.5t-34 5.5q-23 0 -40.5 -4.5t-39.5 -12.5q-2 -2 -14.5 -17.5t-29 -34.5t-37 -38.5t-38.5 -30.5q-31 -12 -58.5 3.5 t-27.5 70.5q2 10 0 16.5t-5 12.5t-4 12t3 16q12 27 51 55.5t90 52.5t109.5 40t109.5 18q16 0 33.5 -6t34.5 -6q16 0 32.5 3t28.5 3q78 -8 132.5 -51t78.5 -90q25 -49 23 -97.5t-19.5 -93.5t-46 -84.5t-59.5 -72.5q-16 -12 -47 -23.5t-62 -15.5q-20 -10 -36.5 -7t-8.5 -12 q0 -4 7.5 -5t11.5 -5q31 -6 61.5 -10t60 -12.5t57 -22.5t54.5 -41q39 -39 61.5 -80t22.5 -80q10 -55 -8.5 -123.5t-52.5 -115.5q-43 -51 -106.5 -78t-117.5 -53q-43 -18 -90 -24.5t-93 -6.5t-86 4t-66 4q-51 0 -87 12.5t-67 22.5q-14 4 -32.5 15.5t-34 25.5t-25.5 30.5 t-10 30.5z" />
<glyph unicode="4" horiz-adv-x="1013" d="M35 461q-10 27 11.5 60.5t55 66.5t68.5 60.5t47 39.5q8 16 17.5 35.5t21.5 34.5q12 23 39 45t35 45q23 27 35 44t34 48q20 29 55 50.5t64 51.5q6 8 26.5 35t46 54.5t52.5 48t45 16.5q8 -2 22.5 -14.5t30 -27.5t26.5 -29.5t13 -20.5q-4 -16 -9 -27.5t-11 -20.5 t-11.5 -20.5t-9.5 -27.5q4 -10 5 -32t1 -32q4 -72 -1 -143.5t-9 -141.5q-2 -4 -3 -22.5t-1 -37.5t1 -35.5t3 -16.5q4 -10 16.5 -11t28.5 -1q27 0 65 10t73 18q53 31 67 23q16 -8 18.5 -24.5t-2 -35t-12.5 -37t-10 -28.5q-4 -12 -5 -29.5t-1 -28.5q-12 -25 -24.5 -40 t-26.5 -15q-10 -2 -21.5 1t-27 8t-36 10.5t-51.5 7.5h-47q0 -35 -1 -45.5t-3 -16.5t-2 -15t2 -42q4 -23 12.5 -43t4.5 -37q0 -12 -2 -26.5t8 -24.5q2 -16 18.5 -23.5t35.5 -11.5t39.5 -8t31.5 -14v-68q4 -10 -11.5 -13t-43 -3t-64.5 2t-80 2q-29 0 -64.5 -3t-71.5 -5.5 t-66.5 -1t-49.5 9.5q-29 14 -43 23t-14 24q-12 33 2 47t37.5 20.5t48 11.5t33.5 23q2 2 5 -3t5 -6t4 8t2 40q4 14 5 25.5t1 19.5q0 18 1 29.5t5 28.5q0 39 -3 63.5t-3 32.5q0 10 -20.5 7t-24.5 -7h-182h-73h-71.5t-56 1t-27.5 5q-4 2 -9 12t-9 23.5t-7 26t-3 18.5zM256 530 q49 12 94 14.5t80 0.5q39 -4 76 -10q14 59 21.5 119.5t2.5 125.5q4 12 2 30.5t-2 31.5q2 4 3.5 14t2.5 20.5t1 17.5t-2 5q-59 -59 -100.5 -128t-92.5 -128q-16 -14 -31.5 -36.5t-27 -43t-18.5 -32t-9 -1.5z" />
<glyph unicode="5" horiz-adv-x="933" d="M23 99.5q6 31.5 6 47.5q16 27 29.5 40.5t27.5 23.5q12 12 21.5 28.5t17.5 16.5q10 0 19.5 -4t25.5 -12q8 -8 19.5 -23.5t23.5 -31t27.5 -31t31.5 -23.5q20 -8 35 -17.5t27 -17.5t24.5 -14t28.5 -8q23 -4 48.5 -5t47.5 -1q31 0 45.5 12t40.5 35q33 37 52.5 65.5t26.5 58 t3 64.5t-14 84q-12 23 -13 43.5t-16 36.5q-20 16 -41.5 35.5t-48.5 32.5q-23 23 -34 29.5t-46 17.5q-18 4 -45.5 -2.5t-57.5 -15.5t-59.5 -19t-54.5 -15q-8 -4 -24.5 1.5t-20.5 9.5t-2 19t2 38q6 23 12.5 53.5t10.5 59t7 54.5t5 38q-2 25 -6 63.5t-6 82.5t-1 85t7 70 q0 23 20.5 27t36.5 8q25 -10 48.5 -14.5t46 -4.5t46 1t52.5 1q86 -4 147.5 -5t108.5 16q31 10 47 30.5t45 38.5q10 4 25.5 5t25.5 5q4 0 14.5 -3t20.5 -3q14 -2 10 -21.5t-15.5 -45t-24.5 -49t-17 -31.5q-10 -14 -16.5 -37t-11.5 -47.5t-11 -47t-17 -34.5q-18 -10 -32.5 -10 t-28.5 4t-28.5 10t-30.5 8q-23 10 -47.5 11.5t-55.5 5.5q-16 0 -30.5 -1t-30.5 7q-35 10 -51.5 5t-47.5 -5h-26t-10 -1t-3.5 -2t-5.5 -3q-4 0 -3 -15.5t-7 -75.5q4 -10 3 -27.5t-4 -34.5t-5 -34.5t0 -27.5q6 -18 21.5 -16.5t36 10t45 18.5t51.5 10q39 0 87 -11t95 -24 q61 -23 102 -56.5t66.5 -73.5t38 -83t14.5 -82q0 -41 -1 -71.5t-5 -57t-13.5 -52t-25.5 -52.5q-53 -76 -106.5 -119t-105.5 -64.5t-104.5 -27.5t-105.5 -6q-14 0 -75.5 8t-132 22.5t-129 32t-66.5 33.5q-12 23 -6 54.5z" />
<glyph unicode="6" horiz-adv-x="972" d="M33 386q-2 48 6 87q23 141 86 261t172 210q35 39 75 74t79 69q55 43 124.5 77t147.5 42q16 0 33.5 -22.5t26 -53t2 -64.5t-32.5 -58q-10 -6 -25.5 -5t-32 2t-32 0t-25.5 -10q-16 -10 -43 -18t-55.5 -19.5t-57 -25.5t-49.5 -39q-4 -4 -3 -8t-3 -15q-4 0 -13.5 -3t-9.5 -7 q-41 -39 -55 -73.5t-35 -69.5q-23 -53 -34 -86t-15 -51.5t-4 -25.5t2 -7q8 -4 13.5 4t9.5 12q10 14 19 24.5t20.5 17.5t26 14.5t36.5 17.5q33 27 58.5 38t84.5 19q25 12 63 3t66 -13q25 0 52.5 -5t54.5 -15.5t50.5 -23.5t37.5 -32q16 -16 24.5 -27.5t20.5 -45.5 q10 -23 19.5 -42.5t9.5 -37.5q10 -55 -4.5 -105.5t-24.5 -93.5q-10 -41 -13 -65.5t-11.5 -43t-27 -39t-61.5 -51.5q-6 -2 -26.5 -12t-43 -21.5t-42 -20.5t-25.5 -9q-10 -2 -33.5 -7t-49 -11.5t-49 -10.5t-34.5 -4q-82 0 -156.5 8t-138.5 47q-70 43 -105.5 122t-47.5 169 q0 31 -2 79zM279 371q0 -31 3 -51.5t3 -47.5q0 -25 9 -38t19 -35q12 -16 22.5 -30.5t22.5 -31.5q35 -27 66 -42t82 -15q57 0 106.5 33.5t65.5 85.5q12 39 16 61.5t0 52.5q-8 47 -19 84t-38 64q-25 23 -44.5 42t-45.5 32q-27 10 -49.5 11t-46.5 1q-33 0 -61 -15.5t-50.5 -41 t-38.5 -57t-22 -62.5z" />
<glyph unicode="7" horiz-adv-x="866" d="M35 825q4 43 20.5 93.5t30.5 105.5q8 35 13.5 59.5t9.5 38.5q27 27 90 17q43 -2 101 -4t116.5 -3.5t107.5 -3.5t74 -6q43 -6 67.5 -7t40 0t25.5 4t21 3q6 4 5 5t-1 2t4 4.5t20 11.5q12 4 35 11t39 11q12 8 23.5 -6t15.5 -28q4 -8 -1 -16.5t-9 -12.5q-12 -35 -35 -73 t-39 -62q-16 -31 -40 -60.5t-40 -60.5q-14 -29 -23.5 -59.5t-21.5 -65.5q-4 -6 -14.5 -19.5t-20.5 -29t-18 -30.5t-10 -23q-14 -33 -25.5 -54.5t-22 -40t-20.5 -40t-23 -54.5q-18 -51 -40.5 -89t-45.5 -93q-16 -49 -3.5 -80t32 -52.5t35.5 -38t10 -34.5q-23 -59 -81 -79.5 t-124 -16.5q-16 2 -34.5 8t-35 12t-27.5 11.5t-11 7.5q-2 2 -7 13t-9.5 24.5t-6.5 29t0 25.5q12 47 22.5 86t22.5 61q12 16 19.5 28.5t11.5 23t8 22.5t13 29q14 10 15 28.5t13 28.5q10 4 14.5 22.5t14.5 28.5q51 82 97 161t102 165q10 14 27.5 37.5t32.5 50.5t23.5 51.5 t2.5 40.5q0 8 -15 4q-8 -2 -14 -4q-29 -8 -46.5 -11t-33.5 -3h-34.5t-45.5 -2h-42t-77 -2t-75.5 -5t-38.5 -10q-16 -16 -37 -41.5t-25 -54.5q4 -23 -6 -51q-8 -25 -51 -25l-17.5 17.5t-23.5 17.5q-4 6 -4 51z" />
<glyph unicode="8" horiz-adv-x="933" d="M33 267.5q-2 27.5 6 56.5q14 39 44 77.5t64 65.5q4 10 14.5 13t20.5 16q12 8 18.5 16t16.5 18q4 4 17.5 7.5t29 7.5t28.5 8t15 10t-17.5 16.5t-46 22.5t-51 24.5t-32.5 22.5q-16 35 -26.5 69t-14.5 68q-2 43 9 89.5t31.5 89.5t49 78t63.5 51q31 6 50.5 12t38 12t37 13.5 t46.5 13.5q27 4 65 10t77 6q23 0 42 -6t31 -16q2 0 14.5 -5.5t27 -12.5t27.5 -12t17 -5q25 0 42.5 -17.5t28.5 -44t17.5 -58.5t8.5 -62q0 -35 -6.5 -60.5t-10.5 -42.5q-8 -35 -21 -65.5t-30 -53.5q-27 -27 -77 -43t-89 -43l25 -12q20 -10 26 -10q18 -8 59.5 -27.5 t67.5 -46.5q47 -37 74 -63q23 -35 27 -61.5t12 -51.5q0 -31 -4 -60.5t-12 -64.5q-10 -27 -18.5 -56.5t-22.5 -51.5q-12 -16 -22.5 -18.5t-28.5 -22.5q-12 -16 -50.5 -35t-62.5 -27q-14 -10 -26.5 -12t-24.5 -6q-14 -8 -27.5 -13.5t-36.5 -9.5q-88 -35 -188 -28q-41 4 -89 10 t-87 18q-29 14 -52.5 39t-50.5 47q-10 8 -21.5 30.5t-20.5 49.5t-14 49.5t-5 30.5q0 29 -2 56.5zM262 279q0 -16 11.5 -40t11.5 -40q4 -12 11 -21.5t11 -17.5q10 -10 17.5 -24.5t17.5 -26.5q8 -14 27.5 -21.5t62.5 -7.5q31 -4 45.5 -5t24.5 -1q31 4 45 9t20 9t10.5 10.5 t14.5 12.5q10 8 17 11t12 15q23 53 26.5 103.5t-20.5 97.5q-14 25 -31.5 46.5t-42.5 43.5q-8 8 -14.5 11t-11.5 6.5t-10 8.5t-11 15q-20 12 -42 31.5t-48 1.5q-4 0 -13.5 -9.5t-27.5 -17.5q-25 -18 -49.5 -33.5t-24.5 -23.5q-8 -10 -13.5 -29.5t-15.5 -27.5q0 -31 -5 -43.5 t-5 -42.5zM332 863.5q0 -27.5 4 -44.5q4 -8 27.5 -34.5t62.5 -55.5q41 -23 56.5 -37t19.5 -14q23 8 50.5 29.5t39.5 37.5q35 53 32 120t-55 114q-16 16 -35.5 31.5t-54.5 25.5q-18 4 -32.5 -2t-29 -17t-29 -22.5t-30.5 -15.5q-8 -8 -15 -24.5t-7 -36.5q-4 -27 -4 -54.5z" />
<glyph unicode="9" horiz-adv-x="940" d="M34 749.5q1 26.5 5 56.5t11 55.5t18 37.5q20 37 41.5 62.5t46 46t54.5 38.5t69 41q25 16 57.5 28.5t67 20t70.5 11.5t67 4q20 2 57 -3t75 -15.5t72.5 -24.5t51.5 -33q14 -12 23 -27.5t22 -27.5q4 -10 16 -17.5t12 -11.5q0 -14 1 -23.5t6 -23.5q8 -23 12 -35t5 -25.5 t2 -31.5t3 -55q2 -29 0 -74t-9 -92t-18.5 -89t-29.5 -63q-8 -14 -8 -27.5t-15 -35.5q-6 -10 -11 -26.5l-10 -33t-13.5 -32t-20.5 -23.5q-35 -25 -79 -55.5t-71 -69.5q-39 -55 -75.5 -89t-87.5 -75q-23 -27 -47.5 -34t-51.5 -29q-8 -12 -25.5 -26.5t-29.5 -24.5 q-4 -4 -22.5 -8.5t-40 -7.5t-43 -3t-31.5 2q-6 2 -13.5 24.5t-10.5 51.5t2 56.5t22 37.5q27 18 45 22.5t35.5 5.5t38 4t51.5 19q14 10 38.5 24.5t41.5 27.5q16 10 35.5 24.5t33.5 26.5q25 27 53.5 78t51 107t38 106.5t15.5 78.5q0 2 -9.5 -6t-19.5 -20t-20 -23.5t-13 -13.5 q-39 -25 -65.5 -25t-65.5 -8q-33 -16 -73.5 -19t-82.5 2t-81 17.5t-70 26.5q-10 4 -24.5 19.5t-26.5 34t-20.5 35.5t-8.5 26q-4 23 -7 48t-15 42q-2 12 -1 38.5zM268 780q0 -12 4 -28t10.5 -30.5t18.5 -27.5q0 -16 1 -17l11 -11q45 -43 85 -46.5t108 7.5q23 4 35 22.5 t28 28.5q12 8 33 31.5t31 35.5q14 18 11 54.5t-16.5 74t-36 69.5t-44.5 42q-16 6 -35.5 14.5t-38 13.5t-37 3t-33.5 -15q-12 -8 -30.5 -11t-30.5 -17q-4 -4 -15.5 -13.5t-7.5 -9.5q-6 -12 -8 -19t-3 -13.5t-2 -14.5t-5 -20q-8 -16 -20.5 -34t-8.5 -34q-4 -23 -4 -35z" />
<glyph unicode=":" horiz-adv-x="557" d="M45 170q0 23 16.5 27t28.5 14q27 35 58.5 46t62.5 28q20 12 28.5 31.5t32.5 19.5q14 0 24.5 -8.5t18 -21.5t15.5 -29.5t18 -30.5q29 -35 56.5 -56.5t27.5 -64.5q0 -16 -7 -28.5t-18.5 -24t-24.5 -23.5t-24 -26q-12 -27 -25.5 -44.5t-41.5 -17.5q-23 0 -32 15.5t-26 29.5 q-16 12 -35.5 17.5t-31.5 27.5q-18 29 -33.5 46.5t-42.5 33.5q-12 12 -28.5 17.5t-16.5 21.5zM137 707q2 23 15.5 38t33 24t43 15.5t43.5 12.5q14 6 25.5 17t21 21.5t19.5 17.5t27 7q29 0 42 -20.5t25 -42.5q27 -51 50.5 -89t23.5 -94q0 -12 -7 -19t-18.5 -13.5t-25 -12.5 t-23.5 -16q-25 -27 -41 -53.5t-49 -26.5q-23 0 -35 12.5t-22.5 28.5t-21.5 35.5t-30 32.5q-18 10 -35.5 29.5t-30.5 40t-21.5 37t-8.5 18.5z" />
<glyph unicode=";" horiz-adv-x="552" d="M-176 -272q6 27 22.5 45t39 32.5t46 27.5t45.5 30q43 33 83 57.5t71 53t49.5 65.5t18.5 92q0 20 -10.5 36.5t-23.5 32t-23.5 32.5t-10.5 40q0 27 29.5 45.5t56.5 34.5q8 6 13.5 18.5t10.5 22.5t12 17.5t19 5.5q18 0 28.5 -8.5t23.5 -20.5q57 -39 88.5 -82t31.5 -110 q0 -33 -11 -61t-28.5 -52.5t-36 -49t-32.5 -48.5q-35 -47 -74 -83t-92 -67q-39 -20 -73 -43.5t-69.5 -43t-73.5 -32t-85 -12.5q-4 0 -11.5 4t-15.5 8q-8 6 -18 13zM147 764q2 23 15.5 38t34 25.5t43 16.5t45.5 10q14 6 23 16.5t18.5 21.5t20.5 18.5t28 7.5q27 0 41 -18.5 t28 -45.5q12 -25 25.5 -45.5t25 -40.5t17.5 -43t6 -53q0 -12 -7 -20.5t-18.5 -13.5t-24.5 -10t-24 -14q-12 -12 -21 -26.5t-17.5 -25.5t-19.5 -19t-28 -8q-23 0 -36 12t-24 28.5t-22.5 34t-29.5 27.5q-20 12 -36.5 33.5t-31.5 42.5q-17 22 -31 51z" />
<glyph unicode="&#x3c;" horiz-adv-x="978" d="M68 547q0 43 21.5 52t47.5 9h33q16 0 68.5 17.5t105.5 40.5q63 25 139 57q16 12 37 22.5t37 22.5h6h6q16 16 25 20q8 4 14 9q23 10 51.5 21t40.5 24q4 0 11 6q4 2 6 6l28 6q31 23 65 31t44 8q25 0 36 -9t16 -23.5t5 -32v-31.5l-12 -17q0 -14 -6 -25t-10 -16 q-31 -16 -68 -27t-47 -11q-16 0 -50 -15.5t-71 -37t-68.5 -42t-43.5 -30.5q-16 -4 -31 -11q-14 -4 -28.5 -9t-24.5 -9l-48 -12l21 -4q8 -2 15 -2h12l28 -11q14 -12 41 -25.5t54.5 -22.5t49 -15t25.5 -6q8 0 18.5 -5.5t20.5 -11.5q10 -8 23 -16q23 -14 38 -21.5t37 -7.5 l113 -35l19 -45l-35 -73q-10 -23 -24.5 -34t-43.5 -11q-18 0 -37.5 4t-54.5 18q-12 8 -35.5 13.5t-50.5 9.5q-20 16 -37 30q-14 10 -27.5 20.5t-15.5 10.5l-45 18h6q-6 2 -18.5 4.5t-24.5 6.5q-14 4 -31 6q-31 27 -56.5 37t-51.5 20q-23 8 -43.5 16.5t-36.5 16.5q-4 0 -11 1 t-12 5h-28q-12 12 -23 12h-22q-4 0 -14.5 6.5t-20.5 10.5h-4q-4 0 -6 6q-4 4 -15.5 9t-19.5 13q-6 16 -8 24.5t-1 11.5t2 4t1 6z" />
<glyph unicode="=" horiz-adv-x="1024" d="M109 233q0 6 2 19.5t6 29t10 29t14 19.5q66 23 132.5 42t129.5 31q23 10 57 6.5t75 6.5l108 16q23 0 45.5 12.5t56.5 -0.5q16 12 41 22.5t68 6.5q-2 -4 -4 -12t-2 -29q0 -6 -6 -22.5t-17.5 -36t-29 -40t-37.5 -32.5h-103q-8 0 -26.5 -1t-40 -3t-41 -7t-29.5 -11 q-23 -12 -57.5 -11.5t-73.5 -11.5q-23 0 -59.5 -10t-55.5 -6q-25 -14 -58.5 -13.5t-76.5 0.5zM125 479q0 6 6 20.5t16.5 31t23.5 34t28 27.5q18 10 46.5 15t59.5 9.5t59.5 10.5t51.5 22q27 -4 41 -1t45 7q10 4 20 9q23 8 41 20q0 6 20.5 9t47 4t50.5 0t30 -3q27 12 47 20.5 t51 8.5q16 0 28.5 2t22.5 4t22.5 1t28.5 -7q12 -16 27.5 -29.5t11.5 -27.5q0 -6 -10 -20.5t-22.5 -31t-24.5 -35t-16 -32.5q-43 0 -86 -1t-107 -5q-43 -6 -94 -12.5t-102.5 -13.5t-96.5 -15t-78 -17q-16 2 -24 -6q-4 -4 -4 -10q-43 -4 -73 -6t-75 -23q4 12 -6 19.5t-6 21.5z " />
<glyph unicode="&#x3e;" horiz-adv-x="978" d="M63 786l33 68q10 27 24.5 36t45.5 9q12 0 33.5 -5t50.5 -17q16 -4 37.5 -11.5t48.5 -11.5l37 -33q14 -12 26.5 -21t16.5 -9l45 -17q6 -4 18.5 -5t22.5 -5q12 -4 28 -6q35 -27 59.5 -38t47.5 -20q47 -10 86 -34h16q10 0 24.5 -3.5t4.5 -3.5q10 -4 15 -7t14 -3h18 q8 0 18.5 -6t14.5 -6q6 -4 12 -10q8 -4 18.5 -7.5t14.5 -15.5q8 -18 11 -25.5t1 -10.5t-4 -3t-2 -2q0 -6 2 -10t4 -6q0 -43 -20.5 -50.5t-42.5 -7.5q-8 0 -18.5 -3t-20.5 -3q-16 0 -68.5 -17t-105.5 -38q-66 -23 -140 -53q-12 -16 -34.5 -25.5t-38.5 -19.5q-6 0 -13 -6 q-6 -4 -13 -8.5t-13 -8.5q-8 -6 -12 -10q-23 -10 -48.5 -20.5t-44.5 -20.5q0 -2 -8 -10q-4 -4 -8 -6l-29 -7q-29 -16 -61.5 -25t-46.5 -9q-41 0 -46 30.5t-5 61.5q2 4 6 8q2 4 4 7t2 7q0 25 16 35q31 16 68 27.5t47 11.5q14 0 47 15.5t68.5 36t67.5 42t44 31.5q18 4 35 10 q14 4 27.5 9.5t23.5 9.5l45 12q-12 0 -20 2q-8 0 -15.5 1t-9.5 1l-28 12q-12 12 -39 24.5t-53.5 22t-48 15.5t-25.5 6q-10 0 -22.5 5t-22.5 11q-12 8 -23 19q-16 16 -33.5 22t-33.5 6l-121 35z" />
<glyph unicode="?" horiz-adv-x="1241" d="M160 141q0 33 20.5 62.5t48 52.5t56 37t45.5 14q20 0 33.5 -9t25.5 -21.5t25.5 -28t29.5 -27.5t37 -21.5t21 -33.5q0 -27 -10.5 -44.5t-28 -30.5t-37.5 -26.5t-39 -29.5q-14 -10 -22.5 -27.5t-16.5 -33t-19.5 -26.5t-31.5 -11q-18 0 -29.5 11t-17.5 29.5t-11.5 41 t-11.5 44.5q-2 10 -13 18.5t-23.5 18t-21.5 19.5t-9 22zM277.5 1187.5q-15.5 24.5 5.5 84.5q6 18 19 36.5t31.5 36t37 32t35.5 24.5q18 12 44.5 31.5t55.5 39t57.5 32t50.5 9.5q33 -4 70 -13t70.5 -24.5t58.5 -39t35 -60.5q2 -10 12 -33.5t20.5 -51t16.5 -53.5t0 -38 q-10 -12 -7 -27.5t7 -32t4 -31.5t-14 -28q-59 -53 -105.5 -98t-115.5 -82q2 -8 -13.5 -14t-13.5 -17q6 -25 -20.5 -42t-59.5 -33.5t-59.5 -35t-20.5 -46.5q4 -16 13.5 -24.5t13.5 -31.5q4 -14 8 -26.5t8 -28.5q4 -12 11.5 -20.5t11.5 -24.5q6 -29 -25 -47t-61 -25 q-29 -6 -53.5 2.5t-45 25.5t-35 42t-20.5 51q-8 41 10.5 72t47 58.5t61.5 55t53 62.5q18 27 31.5 41t28 25.5t32 22.5t41.5 30q25 16 40.5 51t45.5 51q31 18 36 48t-4 59.5t-30.5 53.5t-44.5 30q-18 -2 -31.5 6t-26.5 18t-26.5 19.5t-31.5 11.5q-57 4 -93 -20.5t-61 -56.5 t-40.5 -57.5t-33.5 -23.5q-16 0 -31.5 24.5z" />
<glyph unicode="@" horiz-adv-x="1542" d="M35 -6q2 20 6 39q4 16 5 31.5t5 25.5q0 23 1 37t5 43q4 18 7.5 32.5t3.5 30.5l18 109l-4 16q-2 6 -2 14.5v14.5v57q0 4 1 21.5t9 30.5l12 141q0 10 9.5 21.5t13.5 25.5l29 205q20 76 52 157.5t69.5 158.5t80.5 144.5t88 118.5q23 14 48.5 23.5t42.5 21.5q43 27 89 54.5 t93 50.5q16 8 32.5 21.5t41.5 23.5q23 12 66.5 17.5t70.5 5.5q10 0 51 -4.5t89 -10.5t90 -14t54 -17q20 -10 47 -30.5t51.5 -45t44 -50t29.5 -46.5q39 -55 72 -124.5t57 -147.5l-10 -172q16 -51 13 -85t-3 -85q-16 -160 -54 -316.5t-93 -281.5q-51 -94 -97 -148.5 t-102 -84.5l-80 -74q-66 -39 -101.5 -45t-57.5 33q-29 74 -34 138t-5 124v73v41q0 10 -12 11h-11q-10 0 -31.5 -36t-48 -82t-54 -93t-48.5 -68q-6 -8 -23.5 -23.5t-39 -30t-44 -25.5t-36.5 -11q-31 0 -49.5 21.5t-28.5 49t-14.5 56.5t-4.5 43l-12 147l29 234q2 6 10 28.5 t19.5 50t24.5 54.5t26 45q31 25 59.5 56.5t54.5 74.5q31 37 55.5 53.5t49 24.5t48 14t52.5 21q16 0 33.5 13t34.5 28h92l39 22q47 0 63.5 -27.5t16.5 -70.5q0 -8 -6.5 -36t-14.5 -61.5t-18 -68.5t-19 -55q0 -16 -3 -30.5t-19 -49.5q-12 -8 -11 -37t1 -43v-182v-74 q0 -12 3 -53t7 -66q6 -6 16 -6q18 0 35.5 16.5t34 39t30 49t21.5 49.5q18 37 28.5 83t18.5 100t19.5 115.5t35.5 127.5q8 31 2 73.5t-2 69.5q0 37 6.5 72t11.5 66.5t6 58t-7 43.5q-12 37 -29.5 80t-36 86t-38 80.5t-37.5 66.5q-18 8 -41 25.5t-47.5 34t-50 29.5t-50.5 13 h-51q-6 0 -19.5 -5t-27.5 -9q-16 -8 -33 -14q-25 0 -59.5 -16.5t-69.5 -41t-66.5 -51t-50.5 -45.5q-8 -14 -30.5 -19t-30.5 -16q0 -2 -6 -15t-14.5 -28.5t-14.5 -31t-6 -21.5l-4 -45q-2 -27 -18.5 -50.5t-37 -47t-38 -50t-21.5 -59.5v-45q-2 -23 -11 -39t-19.5 -31.5 t-18.5 -34t-8 -49.5q0 -2 -4 -15t-10.5 -27.5t-11.5 -27.5t-7 -16v-51l-12 -26q0 -6 -2 -10.5t-3 -9.5t0 -15t5 -29q0 -23 -3 -52.5t-3 -39.5v-74q-2 -23 -9.5 -44t-14.5 -44.5t-15.5 -53.5t-12.5 -69q0 -23 3 -31t6.5 -14t4.5 -18t-1 -43l-7 -70q-2 -12 7.5 -43t24 -70.5 t32.5 -86t35.5 -88.5t32 -74.5t22.5 -46.5q10 -12 28.5 -31t28.5 -31q4 -10 11.5 -23.5t17.5 -17.5q4 -4 23.5 -17.5t43 -26.5t45 -24.5t29.5 -11.5q41 0 80 18.5t69 48.5t47 65.5t15 72.5q-6 33 18.5 59.5t58.5 45t68 28.5t44 10q16 0 29.5 -9t21.5 -22.5t12 -26.5t4 -21 v-35q-4 -12 6.5 -36t6.5 -32q0 -6 -6.5 -18.5t-14.5 -24.5t-14 -22.5t-6 -14.5q-16 -35 -46 -59.5t-64 -43t-70.5 -33.5t-69.5 -30q-12 -6 -32.5 -16t-42 -20.5t-39 -17.5t-23.5 -7h-29h-16q-23 -4 -35.5 -5t-16.5 -1q-43 0 -71.5 12t-71.5 39q-18 12 -44 21.5t-50.5 20.5 t-45 27.5t-30.5 45.5q-12 25 -26.5 46t-34.5 44q-29 33 -43.5 68.5t-21.5 73.5l-14 76t-20 73q-6 6 -13 20t-13 31q-8 18 -13 39v35q2 2 -1 16t-8 31.5t-9 32t-4 16.5zM616 375q2 -33 13.5 -58.5t42.5 -25.5t65.5 49t64 110.5t49 114.5t19.5 62q0 8 3.5 39.5t-1 61.5 t-20.5 43.5t-55 -13.5q-39 -29 -71 -68t-55.5 -80t-36.5 -76.5t-13 -54.5q0 -10 -3.5 -40.5t-1.5 -63.5z" />
<glyph unicode="A" horiz-adv-x="1253" d="M45 23q0 39 23.5 65.5t62.5 26.5l39 10q4 0 15.5 7t23.5 17.5t25.5 21.5t21.5 17q12 51 44 111.5t58 116.5q12 35 32 72.5t36 64.5q20 39 34.5 76t27 74.5t26.5 76.5t33 80q14 31 22.5 67t15.5 73.5t18 76.5t30 78q12 10 26.5 24.5t40.5 26.5h35q45 0 67.5 -19.5t32 -50 t12.5 -66.5t7 -69v-73q12 -23 31.5 -61t19.5 -76v-52q0 -6 10.5 -36.5t23.5 -67.5t23.5 -71t10.5 -46q0 -39 10 -103.5t26.5 -126t38 -106.5t46.5 -45q29 0 45 -6t28 -6q6 0 21.5 -2t33 -8t30 -17.5t12.5 -29.5q0 -41 -29 -57.5t-68 -16.5l-137 6h-57h-103h-45l-57 -6 q-12 0 -40 2t-28 16q0 29 26 47.5t60 30.5q29 10 48.5 22.5t19.5 41.5q0 6 -5 30.5t-12.5 52t-16.5 49t-17 21.5q-6 20 -9 45t-8.5 44.5t-16.5 29.5t-34 6h-69h-23.5t-36 -2t-36 -5t-23.5 -9q-27 -12 -22 -36t5 -50q-6 -8 -18 -32t-23.5 -50.5t-19.5 -49t-8 -28.5 q0 -25 13 -35t29.5 -19.5t30 -25.5t13.5 -55q0 -12 -8.5 -19.5t-19.5 -10.5t-22.5 -4t-17.5 -1q0 -6 -4 -8t-11 -2t-20 10h-21t-28 2l-37 4q-27 0 -43 -6t-43 -6q-29 0 -41 -3t-17 -6t-7 -5.5t-8 -2.5q-10 0 -36 2.5t-52.5 7.5t-46 14t-19.5 22zM633 621q0 -12 18.5 -23.5 t32.5 -11.5h19.5t26.5 2t23.5 8t10.5 18q0 27 -14.5 41.5t-14.5 28.5v90q0 12 -7 34.5t-17 22.5q-14 0 -25.5 -12t-20 -27.5t-12.5 -31t-4 -21.5v-27.5t-2 -16.5t-5 -19t-9 -39v-16z" />
<glyph unicode="B" horiz-adv-x="972" d="M23 35q0 29 11 59.5t40 30.5h35q12 0 44.5 8t45.5 8q12 0 17 6.5t5 15.5t-2 19.5t-2 16.5q10 10 6 24q-2 6 -6 10v52q12 29 14 53t2 37v57q4 23 11 45q4 16 8 33.5t4 24.5q0 14 -3 14t-5 4t-1 23.5t9 72.5v35v33q0 14 8 35.5t8 38.5q0 53 -18 86.5t-46 56t-60.5 36 t-60.5 26t-46 26.5t-18 37q0 18 14 32.5t32.5 23.5t39 13.5t32.5 4.5h41l90 18h70h16h17h57q10 -14 26.5 -16t24.5 -2h23h12q55 0 108.5 -11.5t101.5 -39t87 -72.5t68 -111v-108q0 -35 -18.5 -65t-40 -55.5t-39 -46t-17.5 -32.5q0 -6 9 -15.5t20 -19.5q12 -10 28 -22 q20 0 40 -19.5t33 -47.5t21.5 -58.5t8.5 -51.5v-57q-7 -35 -7 -62v-9q0 -29 -22 -70q-14 -12 -19.5 -25.5t-10.5 -25t-14 -20.5t-30 -15q-66 -43 -135 -70t-155 -27h-136h-57h-57h-13l-55 23l-20 -12q-16 -10 -31 -11h-41q4 4 0 7.5t-12.5 6.5t-19.5 5t-19 4q-29 0 -40 10 t-11 25zM416 199q0 -6 5 -18.5t14 -25t21.5 -21.5t26.5 -9q27 0 42.5 6t31.5 10q27 6 56.5 21.5t54 37t39 47t10.5 54.5q-2 27 -2 42t2 23.5t2 13.5t-2 13q-2 27 -20.5 45.5t-45 27.5t-58.5 13t-58 4h-17h-12q-29 0 -46.5 -20.5t-26.5 -47t-13 -53t-4 -38.5v-74v-51z M432 700q4 -29 8 -48t12.5 -33.5t22.5 -20.5t43 -6q14 0 39 10t49.5 25.5t42 35t17.5 37.5v52v57q0 18 -12.5 43t-34 46.5t-48 36.5t-53.5 15q-12 0 -29.5 -14t-32.5 -34q-14 -20 -22 -42q-5 -12 -5 -22q0 -7 3 -13v-34v-39v-52z" />
<glyph unicode="C" horiz-adv-x="796" d="M45 444q4 25 10 48q4 18 8.5 38.5t4.5 32.5v45q0 6 -4.5 15.5t-8.5 19.5q-6 10 -10 23l23 63v39q16 35 30 63q12 25 25.5 47.5t23.5 32.5q6 39 31 70t58.5 57.5t72.5 49t78 45.5q23 4 45 10q16 4 33.5 8t23.5 4h41h78l64 23q31 0 46 -13.5t23.5 -34t9.5 -42t1 -35.5v-39 q-12 -47 -42 -86t-77 -39q-31 0 -66 19.5t-78 19.5q-45 0 -88 -32t-77.5 -75t-56 -87t-21.5 -68v-58v-78q0 -25 8 -84t26.5 -121.5t48 -110.5t74.5 -48l41 16q47 0 88 11.5t76 46.5q45 53 86 84q12 10 28.5 14t29.5 4q4 -4 10 -12q12 -16 12 -29q0 -45 -32.5 -103.5 t-79 -110.5t-94.5 -89t-79 -37h-16q-29 -6 -53 -12q-23 -4 -43.5 -8t-28.5 -4q-16 0 -46 14t-62.5 33.5t-59 41t-33.5 37.5q-8 6 -21 40t-26.5 76t-22.5 83t-9 62v63q-6 12 -13 23q-10 20 -10 34z" />
<glyph unicode="D" horiz-adv-x="1400" d="M23 68q0 16 14 30.5t33 24.5q23 12 49 24h57l96 23q16 -6 31 -12q27 -10 45 -11q20 0 31.5 13.5t16.5 32t6 38t1 31.5v39v86q0 8 -8 25q-4 8 -8 14v127q0 16 8 40.5t8 55.5v80v96q0 55 -18 93t-78 38q-12 0 -20 -3t-15.5 -6t-15.5 -5t-23 -2l-57 16h-39q-14 0 -35.5 13.5 t-21.5 25.5q0 31 33.5 53.5t76.5 38t84 22.5t56 7h35q16 0 30.5 -11t30.5 -11q16 4 31 10q12 4 25.5 8t23.5 4h76h39q41 4 75 8q29 4 57 6.5t38 2.5q106 0 206.5 -35t179 -99.5t126 -157.5t47.5 -208l-17 -98v-136q0 -14 -12 -38.5t-12 -41.5q-12 -27 -23 -53 q-10 -23 -22.5 -48t-28.5 -48q-8 -16 -27.5 -36.5t-45 -39t-52.5 -31t-51 -12.5h-39q-23 0 -45.5 -6t-44 -13t-37.5 -13.5t-23 -6.5h-55q-35 0 -60.5 -9t-43.5 -9h-74h-176h-35q-12 -6 -23 -12q-20 -10 -38 -11l-58 23h-57l-55 -23q-14 0 -38 13.5t-38 27.5q-8 0 -24.5 1 t-32 6.5t-27.5 16.5t-12 32zM582 842q4 -4 8 -11q8 -12 8 -28v-58v-112v-252v-96q8 -16 10 -35t5 -35t11.5 -28.5t30.5 -16.5h23q6 0 21.5 2t33 4t33.5 4t25 2q88 2 148 40t99 95.5t57.5 123t20.5 122.5v7q0 44 -20 102q-22 64 -55 118t-68 83.5t-55 9.5q-12 8 -23 16 q-10 6 -19.5 12.5t-15.5 6.5h-18l-148 16q-6 0 -24.5 -8t-38 -22.5t-34.5 -31t-15 -30.5z" />
<glyph unicode="E" horiz-adv-x="995" d="M39 29q0 51 76 51q16 6 32 14q31 14 52 21q43 8 58 26.5t15 85.5q0 10 7.5 21.5t-7.5 23.5q0 10 -2 21.5t-6 21.5q-4 12 -8 27v39v74v51l16 143v35q0 12 3.5 16.5t3.5 16.5v108v58v61q0 18 -20.5 29.5t-31.5 11.5h-57q-39 0 -56.5 33t-17.5 76q0 12 11.5 22t23.5 10h68 h41q12 0 37.5 3.5t64.5 3.5h141q12 0 23.5 -2.5t27 -3.5t37 -3t56.5 -2l67 17q16 4 31 8q12 4 24.5 6t18.5 2q14 0 35.5 -10t38.5 -23q14 -27 18 -63.5t17 -63.5q6 -6 14 -23.5t16 -33.5q8 -23 21 -45q0 -39 -51 -39q-12 0 -37 19.5t-64 43t-92 43t-127 19.5l-39 -10 q-12 -18 -23.5 -30.5t-11.5 -20.5v-19q-4 -16 -8 -31q-4 -12 -6 -24.5t-2 -18.5v-147q0 -31 12.5 -58.5t38.5 -27.5q6 0 20.5 2t30.5 6q18 4 39 8h41q16 0 29.5 8.5t26 17.5t23.5 17t24 8q6 0 14 -8t16 -18l21 -25v-135q0 -57 -51 -57q-23 0 -39.5 9t-28.5 19 q-23 8 -38 18.5t-38 10.5h-33h-40q-51 0 -65.5 -18.5t-14.5 -73.5v-51q6 -29 8 -57.5t7 -53t19.5 -42t45.5 -23.5h114q29 0 62.5 11t68.5 30q35 12 64.5 22t54.5 10q8 -6 16 -14q6 -6 12.5 -12t6.5 -13q0 -14 -10.5 -26t-24.5 -25q-29 -27 -41 -54.5t-23.5 -51t-27.5 -39 t-49 -15.5q-12 0 -22.5 3.5t-22 8.5t-26.5 8t-38 3l-198 -6l-70 -17h-109h-61l-41 -12l-61 -4q-10 0 -22.5 8t-23 19.5t-17.5 23t-7 17.5z" />
<glyph unicode="F" horiz-adv-x="1218" d="M-90 461q0 41 12 93t33.5 104.5t47.5 100.5t54 83q43 70 99.5 121t120 86.5t130 61.5t128.5 44q4 8 21 9h12q12 0 26 -1q22 -2 49 -8q12 0 45 -8t47 -8h90h35l68 12l28 -12h52l51 16h45q23 0 46.5 -20.5t23.5 -47.5v-114q0 -25 -13.5 -49.5t-38.5 -24.5q-47 25 -88 45 q-35 16 -68.5 31.5t-47.5 15.5h-58q-6 0 -21.5 -1t-30.5 -4t-27.5 -10t-12.5 -20v-73v-92v-74v-33q0 -16 14.5 -24.5t34 -11.5t38.5 -4t28 -1q47 0 70.5 11.5t35.5 25.5t19.5 25.5t21.5 11.5q23 0 37 -10.5t13 -22.5l-21 -115q12 -27 6 -33t-6 -18q0 -18 10 -29q6 -6 11 -10 q0 -27 -18 -51.5t-32 -24.5q-23 0 -33 17.5t-22 39t-31.5 40t-60.5 18.5q-16 0 -36 -1t-37 -6t-29.5 -17.5t-12.5 -32.5v-35q0 -16 -8 -41t-8 -55q0 -18 2 -27.5t5 -18t6 -21.5t3 -42v-16q0 -27 13.5 -52.5t27.5 -37.5q18 -8 44 -14.5t48 -12.5q27 -8 55 -14q10 0 23 -4 q6 -2 12 -2q12 0 25.5 -10.5t13.5 -22.5q0 -23 -15.5 -36t-34.5 -20.5t-37.5 -10.5t-24.5 -3q-29 0 -47.5 3t-32 6t-24.5 6.5t-23 3.5h-113h-70q-53 0 -90 10q-20 6 -35 12q-29 0 -41 -1t-20 -11q-4 -4 -15.5 -7t-35.5 -3h-41h-33q-18 0 -47 15t-29 40q0 20 17.5 32.5 t39 17.5t43 6t27.5 1h23h51h57q6 0 14.5 2t18.5 6t23 11h12q27 0 35 26q4 12 4 29v35v35l-17 112l17 51q-4 20 -8 39q-4 16 -6.5 31.5t-2.5 22.5v57v106q4 20 9 39q4 16 6 31.5t2 22.5v57q0 6 -3 29.5t-11.5 50t-21.5 47t-32 20.5q-29 0 -66.5 -21.5t-64.5 -35.5 q-29 -12 -78 -38.5t-88 -51.5q-16 -14 -28.5 -50t-22.5 -75q-12 -45 -23 -98v-68q0 -29 -18 -54.5t-44 -47t-54.5 -33.5t-46.5 -12q-43 0 -58.5 31.5t-15.5 58.5z" />
<glyph unicode="G" horiz-adv-x="1075" d="M35 502v80v55q12 33 22 61q8 25 15.5 50.5t7.5 42.5l16 34q0 45 35 96.5t83 96.5t100.5 74.5t88.5 29.5q16 2 31 4q12 2 24.5 4.5t20.5 2.5h23q31 0 44 3t25.5 8t29.5 8t54 3h80h74h39h57q43 0 73 -36t47 -81t25.5 -85t8.5 -48q0 -16 2 -25.5t6 -17.5t8 -14q0 -6 -2 -14 q-4 -14 -14 -25q0 -14 -2 -27.5t-15 -13.5q-10 0 -32.5 23.5t-46.5 52.5q-29 35 -64 78q-23 12 -60.5 26.5t-72.5 26.5q-43 14 -88 26q-66 0 -130.5 -24.5t-116.5 -71.5t-88 -114.5t-42 -153.5q0 -41 -8 -65.5t-8 -53.5t2 -48t14 -48q14 -43 41 -92t62.5 -91t80.5 -70 t97 -28l73 25q29 0 63 21.5t34 62.5v41q-4 25 -10.5 50.5t-18.5 51.5q-16 29 -40 58.5t-40 37.5q-29 10 -29 29q0 8 9.5 13.5t21.5 7.5q14 2 33 2h90h98h39q14 0 23.5 2t19.5 5t26.5 6t45.5 3q14 -4 27 -10q10 -4 19 -12.5t9 -16.5q0 -12 -10 -39.5t-23 -27.5h-22 q-43 0 -70.5 -33t-27.5 -60v-57v-61q0 -27 -8.5 -41.5t-8.5 -44.5q4 -16 6 -33q2 -14 1 -31.5t-7 -32.5q0 -14 -9 -23t-19 -18q-12 -8 -29 -16l-137 -23h-33q-8 0 -25.5 3.5t-37 8.5t-41 8t-39.5 3h-56q-10 0 -28.5 4t-34.5 12q-31 10 -61.5 14.5t-47.5 4.5q-6 8 -19.5 13 t-28.5 11.5t-28.5 14.5t-19.5 22q-16 6 -42 42t-50.5 81t-43 91t-18.5 77v35q0 16 -11 39.5t-11 40.5z" />
<glyph unicode="H" horiz-adv-x="1406" d="M51 1049q0 39 23.5 67.5t50.5 28.5l102 6h13h22q16 0 42 -12.5t54 -12.5l58 19h80h39q23 0 30 -21q4 -8 4 -20q0 -43 -12 -60.5t-31.5 -22.5t-41 -6t-41 -9.5t-32 -32t-12.5 -74.5q0 -16 8.5 -51t8.5 -51v-58q0 -41 26.5 -71.5t69.5 -30.5q16 0 29 6q8 2 12 6l74 -12h61 h35q16 0 33 -2q33 -4 47 -21q10 0 17 3.5t11 3.5q8 4 16.5 10t12.5 6h80q12 10 22.5 25.5t10.5 31.5v29v131l-23 102v35q0 20 -14 28.5t-30.5 14.5t-31 17.5t-14.5 42.5q0 25 24.5 46t55.5 21q27 -10 55 -18q25 -6 54.5 -11.5t60.5 -5.5h23h57q20 0 47 -5t48.5 -16 t36.5 -30.5t15 -50.5l-10 -23l-47 -10h-55q-14 0 -36 -26.5t-22 -46.5v-138v-80q0 -12 5.5 -44.5t5.5 -47.5q0 -8 -6.5 -18t-10.5 -21q-10 -27 -10 -39v-57v-57q0 -31 5 -59.5t5 -55.5q0 -16 -5 -34.5t-5 -45.5q0 -14 -2 -22.5t-3 -16.5t0 -17t5 -24q6 -23 36 -38 t63.5 -27.5t60 -24.5t26.5 -28q0 -14 -9 -23.5t-19 -17.5q-12 -8 -29 -17h-113h-57h-57l-97 23l-57 -23q-6 0 -18.5 1t-24.5 4t-21.5 11.5t-9.5 24.5q0 23 20.5 37t45 32.5t45 46.5t20.5 77v57v57v62v57q0 14 -11 35.5t-27 21.5h-58h-74q-14 0 -40.5 11.5t-38.5 11.5h-41 h-58h-55h-41q-43 0 -69.5 -18.5t-26.5 -61.5v-131q-12 -35 -14.5 -42t-2.5 -19q0 -14 8.5 -32t8.5 -42q-12 -31 7 -50.5t48 -37t55.5 -33.5t26.5 -39q0 -6 -9 -13t-21.5 -11.5t-25 -7.5t-18.5 -3q-10 0 -27.5 5.5t-39 12.5t-46 12t-47.5 5q-10 -6 -20 -10t-19.5 -6t-17.5 -2 h-22h-58h-35q-29 0 -56.5 14t-27.5 49q0 27 7.5 53.5t38.5 26.5l38 10q16 0 37 22.5t21 35.5v80v57q0 16 -11.5 55t-11.5 82v96q0 6 3 22.5t8.5 35t8.5 35t3 22.5l-23 96q0 16 11 43q6 14 12 31v137q0 14 -23.5 22.5t-53.5 13.5t-53.5 10t-23.5 12z" />
<glyph unicode="I" horiz-adv-x="598" d="M45 1104q0 8 2 16q2 6 5 12.5t11 6.5h39h74q8 0 19.5 -2t21.5 -7q10 -4 23 -8q12 0 30.5 2t34.5 6q20 4 43 9h23q8 0 20 8l8 8q6 0 20.5 -3t31 -6t32 -5t23.5 -2q4 0 14 -8.5t19.5 -20.5t16.5 -27.5t7 -29.5q0 -8 -24.5 -14.5t-55 -12.5t-55.5 -14t-25 -21v-143 q4 -16 11 -31q4 -12 8 -24.5t4 -18.5l-23 -96q0 -6 3.5 -22.5t8.5 -35t8 -35t3 -22.5l18 -102q0 -43 -9 -80t-9 -51v-58q0 -12 -11.5 -21t-11.5 -52q0 -8 6.5 -19.5t15.5 -20.5t19.5 -15.5t16.5 -6.5l45 -12q57 -27 57 -86q0 -25 -33.5 -40t-68.5 -15h-35h-39h-39l-76 22 q-12 0 -34.5 -6t-47 -14.5t-45 -14.5t-26.5 -6q-12 0 -34 13.5t-22 27.5q0 23 24 40t51.5 34.5t47 38t13.5 51.5q-16 31 -8 46t8 30v55v137v297l-23 56q4 23 10 43q4 16 8.5 31.5t4.5 23.5q0 41 -6.5 64.5t-16.5 37.5q-10 10 -22.5 13.5t-25.5 4.5t-27.5 3t-26.5 8 q-12 8 -20.5 26.5t-8.5 57.5z" />
<glyph unicode="J" horiz-adv-x="591" d="M-330 -342q0 12 18.5 36.5t41.5 49.5q25 29 59 61q6 10 13.5 13.5t13.5 7.5q8 2 14 4q12 0 25.5 -3t29.5 -22q31 -20 50.5 -40.5t41 -36t48 -25.5t71.5 -10q12 10 25 20q10 10 23.5 18.5t25.5 18.5q37 37 58.5 83t32.5 96.5t14.5 100.5t3.5 95q6 6 10 22.5t4 37t-2 41 t-6 36.5v39v115v313l-17 96l-6 35l6 113q0 6 -9 13t-22.5 13.5t-26.5 10.5t-22 4h-57q-8 0 -24.5 -3t-34 -8.5t-33.5 -8.5t-23 -3q-29 0 -34 13.5t-5 25.5q0 20 20.5 43t47.5 39t52.5 27.5t33.5 11.5h23h57q20 0 32.5 -4t21.5 -8t16.5 -8.5t19.5 -4.5q8 0 47 5.5t86 12.5 t91 12t67 5h41q12 0 33.5 -4t21.5 -31q0 -37 -32.5 -47t-71.5 -21t-72 -36t-33 -88q-2 -6 -4 -14q-2 -6 -2 -14.5v-16.5q2 -7 2 -15q0 -21 -14 -49q-10 -47 -10 -73q6 -4 12 -11q8 -8 16 -24v-22.5t2 -18.5q0 -8 2 -17q3 -25 3 -46q0 -11 -1 -21q-2 -29 -5 -56.5t-4 -54 t3 -55.5l-6 -102l6 -33l-12 -64q1 -8 1 -19q0 -34 -10 -90q-12 -75 -33.5 -159t-48 -158.5t-46.5 -107.5q-37 -47 -96.5 -75t-109.5 -41t-73.5 -17t12.5 -4h-40q-6 0 -27 -3.5t-45.5 -6.5t-49 -5t-38.5 -2q-23 0 -55.5 4t-63.5 16.5t-52.5 36t-21.5 62.5z" />
<glyph unicode="K" horiz-adv-x="1333" d="M16 6q0 12 9.5 33.5t25 43t31.5 38t33 16.5h16l64 17h73q12 0 14.5 13t2.5 28v38q2 12 4 25q4 27 -4 49q-7 26 -7 51q0 12 2 24q5 36 5 62v39v80q0 27 -2 52.5t-15 39.5v97q4 29 8 51q4 20 6.5 38.5t2.5 28.5q0 63 -33 88t-73 35.5t-72.5 19.5t-32.5 46q0 25 13 40 t31.5 24.5t39 12.5t37.5 3h32h23q6 0 22.5 -3t34 -6.5t33.5 -5.5t25 -2h57l80 17q25 0 57.5 -14.5t32.5 -49.5q0 -12 -1 -22.5t-9 -10.5q-18 0 -36 -10t-33 -25.5t-24.5 -37t-9.5 -41.5v-39q0 -20 10 -68q6 -25 13 -53v-16q4 -12 10 -21q4 -8 10 -14t13 -6q10 0 17 8t17 20 q35 45 80 131q23 39 43.5 79t42.5 75q29 53 57.5 84t49.5 31h24q16 0 23.5 8t32.5 8h172q43 0 72.5 -32.5t29.5 -63.5q0 -37 -36 -54.5t-80 -24.5t-84 -7h-46q-16 -12 -48 -31.5t-48 -36.5q-25 -25 -52.5 -57.5t-51 -63t-40 -57.5t-16.5 -39q0 -16 10.5 -28.5t24.5 -38.5 q14 -25 33.5 -46.5t38 -40t35 -32t24.5 -19.5q14 -14 30.5 -38.5t34 -51t36 -52.5t40.5 -40q16 -16 42 -36.5t51 -43.5q29 -25 61 -51h41q16 0 45 2t45 -18q10 -12 24 -44q14 -30 14 -60q0 -36 -28 -62t-100 -27q-35 0 -55.5 1t-37 5t-33.5 12.5t-46 20.5l-39 23 q-27 10 -50.5 32.5t-45.5 53.5q-43 47 -97.5 113.5t-97.5 125.5q-29 51 -59.5 97.5t-59.5 72.5q-31 23 -57 23q-12 0 -25.5 -12.5t-13.5 -22.5q0 -35 11.5 -73t11.5 -62v-41l16 -39v-58q0 -57 33 -83.5t73 -39t72.5 -19.5t32.5 -28q0 -25 -12 -41t-28.5 -26t-32 -14.5 t-19.5 -4.5l-29 11q-12 0 -15 -5.5t-11 -5.5h-103q-18 2 -35 9q-14 4 -28.5 10t-22.5 16h-57q-8 0 -39 -7t-67.5 -16t-74.5 -16.5t-59 -7.5h-22q-16 0 -35 9.5t-23 31.5z" />
<glyph unicode="L" horiz-adv-x="1036" d="M29 51q0 43 27.5 53.5t60.5 17.5t60.5 24.5t27.5 74.5v172l16 154v74q0 8 2 31.5t6 49.5q4 31 11 66q0 16 -9.5 30.5t-9.5 26.5v23q0 57 -17.5 78.5t-39 33t-38.5 25.5t-17 57q0 20 9 36t21.5 26t24.5 14t18 4h445q29 0 54.5 -16t25.5 -47v-39q-23 -16 -43 -29 q-16 -10 -33 -19t-23 -9h-61q-43 0 -67.5 -25t-24.5 -68v-61q0 -55 -13.5 -120.5t-25.5 -125.5v-112v-115v-57v-23q0 -6 3 -21.5t10 -31t17.5 -26.5t26.5 -11h57h62h57q6 0 34 12t60.5 28.5t64.5 35t46 30.5q16 14 32.5 27.5t31.5 13.5q12 29 17 34t21 5q12 0 35 -13t23 -26 q0 -6 -17.5 -48t-42 -94t-53.5 -100t-53 -65q-6 -8 -36 -11t-62 -5q-37 -2 -84 -2h-58h-39q-43 0 -86 8t-57 -2l-27 -6l-98 -23q-6 0 -25.5 3t-42 8.5t-42 8.5t-25.5 3q-16 0 -30.5 -4t-24.5 -9q-12 -6 -25 -10q-23 0 -34 10.5t-16 24.5t-6 28.5t-1 22.5z" />
<glyph unicode="M" horiz-adv-x="1691" d="M29 0q0 20 15 35.5t34.5 26t38 14.5t24.5 4h41q6 0 24.5 2t39.5 6q23 4 51 8q14 14 28.5 50t24.5 74t17.5 70t7.5 40v73v23q6 6 10 19.5t6 27.5q2 16 2 33v92q0 8 3 24.5t7 32.5l13 39v58l8 24q4 10 6 22.5t2 26.5v45q0 6 -6 28t-14 44q-8 27 -19 59q-10 14 -28.5 26.5 t-34.5 25.5q-12 10 -29.5 19t-28.5 28v22q0 12 10.5 18.5t24.5 10.5t35 4h51q20 0 29.5 3t13.5 8t6 8.5t9 3.5h96h39l57 -23q20 -53 44 -130t48.5 -163t48 -171t45 -152.5t38 -109.5t26.5 -42q4 10 10 19q4 8 11.5 17t13.5 15q31 104 83 217t93 215q0 43 25.5 75t54.5 75 q6 14 8 37.5t7 47t17.5 44t40.5 29.5h80l29 -17q29 0 53.5 5t46.5 12q22 8 47 18q70 0 92.5 -39t22.5 -82q0 -6 -9 -18.5t-22.5 -24.5t-27 -21.5t-21.5 -9.5h-35q-14 0 -24 -2q-27 -4 -37 -14q-31 0 -46 -13.5t-23.5 -33.5t-9.5 -45t-1 -45v-137v-148q0 -23 6 -35l11 -22 q10 -12 11 -24.5t1 -26.5l-6 -68q0 -29 8 -56.5t8 -39.5l25 -58v-57q0 -37 35.5 -51t77.5 -23.5t78 -20.5t36 -42q0 -61 -57 -62h-74q-14 0 -30.5 -1t-33.5 -11l-170 12h-57h-39q-6 0 -28.5 -2t-48 -4t-48 -4t-28.5 -2q-31 0 -44.5 4t-13.5 31q0 29 15.5 62.5t58.5 33.5h39 h80q14 0 23.5 9.5t12.5 22.5t4 26.5t1 21.5q0 27 -11.5 63.5t-11.5 51.5v74v61v57q0 8 -3 27.5t-9 39t-13.5 34t-15.5 14.5q-4 0 -17.5 -17.5t-30.5 -45t-38.5 -61.5t-41 -66.5t-36 -59t-24.5 -41.5q-16 -12 -27.5 -32.5t-19.5 -42t-14.5 -43t-12.5 -35.5 q-16 -29 -31.5 -50.5t-25.5 -35.5q-16 -35 -22.5 -40t-22.5 -5q-25 0 -32 16t-26 47l-16 125q-14 37 -32.5 76t-34 79t-25.5 78.5t-10 73.5v23q0 8 -6.5 27.5t-14.5 39t-18.5 33.5t-18.5 14q-6 0 -16 -18.5t-19.5 -43t-15.5 -50t-6 -37.5v-103v-38q-8 -53 -17 -97 q-6 -37 -11 -71.5t-5 -42.5q0 -57 20.5 -78t45 -27t45 -12t20.5 -37q0 -23 -9 -34t-21.5 -16t-24.5 -6t-19 -1h-79l-195 34h-39h-35q-6 -4 -14 -6q-12 -6 -27 -6h-39q-6 0 -18 2t-24.5 7.5t-21.5 11.5t-9 14z" />
<glyph unicode="N" horiz-adv-x="1673" d="M35 96q0 16 18.5 28.5t32.5 12.5h44t14 1t4.5 1t12.5 1t38.5 1h85.5q14 0 24 9.5t16.5 21.5t8.5 25.5t2 19.5q-4 8 -6 16q-6 12 -6 29q0 31 -3.5 50.5t-8.5 33.5t-8 25.5t-3 27.5q0 14 3 35t7 37q6 20 13 41v137q0 12 -3.5 28.5t-19.5 33.5q0 25 10 30q6 4 13 4 q-2 8 -8.5 22.5t-13.5 29t-12 27t-5 18.5q0 43 -33 65.5t-73 43t-72.5 47t-32.5 77.5q8 20 16 37q8 14 17.5 26.5t23.5 12.5h193q27 0 45 -2t34 -16q27 -16 34 -29.5t24 -28.5q14 -41 42.5 -50t53.5 -30q25 -20 48.5 -50t48 -62.5t47 -63.5t44.5 -51q31 -35 52.5 -73 t68.5 -62q12 -10 47 -47t77 -79t81 -75t62 -33q14 0 19 6.5t5 15.5t-3 18.5t-3 15.5v153q0 18 11.5 43t11.5 60v172q-8 6 -22.5 20.5t-29 29.5t-28 27.5t-19.5 12.5h-39q-12 0 -28.5 7t-30.5 17.5t-23.5 19.5t-9.5 13v64q0 20 9.5 32.5t23.5 17.5t30.5 6t28.5 1h39 q14 0 38 -3t49.5 -6t49 -6t41.5 -3h285q41 0 77 -18.5t36 -61.5q0 -16 -2 -27.5t-15 -30.5q-42 -26 -81 -26q-5 1 -10 1q-44 4 -85 3l-57 -17h-35q-16 0 -27.5 -23.5t-11.5 -49.5v-80v-17v-120v-97q0 -12 8 -36.5t8 -36.5v-115l-34 -199q0 -12 5 -32.5t12 -42t12 -41 t5 -31.5q0 -8 -1 -28.5t-4 -41t-10 -36t-19 -15.5h-27.5t-40 2t-36 6t-15.5 10q-29 29 -48.5 70t-47.5 66q-23 31 -43.5 51t-40 38.5t-37 39t-29.5 49.5q-23 51 -70 98t-99 94t-102 95.5t-81 99.5q0 6 -6 19.5t-16.5 25.5t-24 22.5t-27.5 10.5q-39 0 -39 -62v-153v-80 l17 -115q0 -41 -3.5 -56.5t-3.5 -45.5q0 -39 24 -58.5t58.5 -30t74.5 -15.5t75 -13t58.5 -25.5t23.5 -50.5q0 -16 -10.5 -19t-24.5 -3h-233l-132 -19q-16 14 -40.5 16.5t-38.5 2.5h-39q-43 0 -63.5 11t-51.5 11h-74l-16 -22h-41q0 8 -1 27.5t-1 37.5q-2 23 -2 47z" />
<glyph unicode="O" horiz-adv-x="1234" d="M23 614q0 20 4 37t10 34t14 35.5t17 47.5q0 31 9 57.5t25 57.5q0 6 18.5 38.5t45.5 69.5t56.5 66.5t49.5 29.5l58 23q27 0 48 2t44 14q23 10 43 17.5t41 7.5h98h39l74 -18h41q27 -8 49 -17q20 -8 38.5 -15t24.5 -14q31 -16 71 -27t67 -40q16 -14 33.5 -49t33.5 -49 q70 -59 89.5 -113.5t19.5 -97.5l-6 -136v-57q0 -23 -17.5 -67.5t-41 -94t-44 -91.5t-26.5 -54q-14 -43 -50 -70.5t-71 -44.5q-55 -43 -103.5 -77.5t-107.5 -34.5q-25 0 -48.5 5t-64.5 5q-8 0 -20.5 -1t-26.5 -3q-16 -2 -33 -2h-35q-16 0 -41.5 6t-48.5 16q-27 10 -57 25 q-55 25 -112.5 54.5t-92.5 98.5q-43 102 -78.5 213t-35.5 213zM272 489q0 -29 36 -87t89.5 -116.5t113.5 -103.5t110 -45h38q43 0 93.5 22.5t92.5 61.5t70.5 91.5t28.5 109.5v57v135q0 43 -11 69t-29.5 49.5t-43 53t-51.5 80.5q-16 12 -35.5 30.5t-41 35t-45 29t-44.5 12.5 h-39q-16 0 -38.5 2t-45.5 6q-24 4 -53 10q-35 0 -70 -47t-62.5 -107.5t-45 -115.5t-17.5 -72v-35v-125z" />
<glyph unicode="P" horiz-adv-x="972" d="M23 57q0 14 1 34t8 37t21.5 29.5t42.5 12.5l23 -16h76q55 0 55 57v61l22 76l-22 39q4 16 10 31q4 12 8 24.5t4 18.5q0 14 -11 38.5t-11 41.5q0 6 3 10t8 12t8 20.5t3 37.5v73v41q0 12 -11 27.5t-11 46.5v57q0 20 10 47q6 14 12 31q0 31 -26.5 53.5t-69.5 22.5h-22 q-6 0 -24.5 4t-39 11t-36 17.5t-15.5 22.5q0 18 9 32.5t22.5 25t27 16.5t21.5 6q14 0 18 -3t17 -19h352l172 -33h57q57 0 97 -41t65 -95.5t36 -109.5t11 -86q0 -35 -5 -78t-20.5 -85t-46 -76.5t-81.5 -49.5q-8 0 -22.5 -5t-29 -12t-27 -12.5t-18.5 -5.5q-14 0 -39.5 3.5 t-51 12.5t-44 22.5t-18.5 35.5q0 29 16 39t42 15.5t55.5 12.5t55 28.5t42 67.5t16.5 128q0 12 -2 27.5t-14 29.5q-16 23 -47 41.5t-65 30.5t-62.5 18.5t-36.5 6.5h-35q-8 0 -18.5 -6.5t-18.5 -14.5t-11 -18.5t3 -18.5v-268v-96v-119l22 -92q-6 -29 -12 -51q-4 -20 -7 -40 t-3 -28q0 -57 30.5 -72.5t66.5 -16.5t66.5 -5t30.5 -37v-23q0 -8 -6 -21t-14 -26.5t-18.5 -23t-18.5 -9.5h-35q-16 0 -51 11.5t-51 11.5h-131q-8 0 -34 -3t-56.5 -8t-59 -8.5t-43.5 -3.5q-23 0 -43 1.5t-35.5 9.5t-25.5 23.5t-10 45.5z" />
<glyph unicode="Q" horiz-adv-x="940" d="M35 575v113v80l10 35q0 16 6 24.5t23 38.5q0 12 11 25.5t11 30.5q4 27 22.5 56.5t44 54t55.5 44t61 27.5q14 0 34.5 16.5t51.5 30.5q29 16 56 27.5t58 11.5q41 0 87 -24.5t71 -55.5q78 -43 147.5 -121t104.5 -164q0 -8 2 -30.5t3 -49t3 -49t2 -30.5v-58v-112 q0 -23 -7 -53.5t-19.5 -66.5t-29 -73t-34.5 -70q-23 -31 -45.5 -55t-42 -44.5t-31.5 -34t-12 -19.5q0 -14 25.5 -44t65.5 -67t89 -78t95 -77.5t84 -66.5t57 -44q86 -59 173 -106.5t173 -102.5q8 -16 61 -41.5t117.5 -50.5t125 -43t83.5 -18l57 -25h41q20 -4 41 -6 q16 -2 35.5 -3t36.5 -1h176q27 0 56.5 5t58.5 5q16 0 39.5 3t39.5 3q12 0 19.5 -3t38.5 -3q49 0 86 11t66.5 23.5t52 24t45.5 11.5h34q16 0 37 -6.5t21 -22.5q0 -23 -31 -45.5t-68.5 -44t-71.5 -38.5t-40 -26l-74 -12q-18 0 -40.5 -2t-39.5 -14h-114q-43 -6 -62.5 -11.5 t-30 -9.5t-22.5 -6t-39 -2h-80q-6 0 -24.5 3t-38.5 7q-23 6 -52 13h-38q-6 0 -44 9t-86.5 19t-94.5 19.5t-66 9.5q-68 0 -141.5 32.5t-143.5 57.5q-78 31 -142.5 70t-107.5 67q-31 16 -71.5 23.5t-88.5 34.5q-12 16 -19 31.5t-38 25.5q-29 20 -59.5 49t-63.5 58.5t-64.5 58 t-62.5 49.5q-31 0 -46 22.5t-28 57.5q-31 27 -59.5 36t-54.5 38q-16 14 -23.5 38.5t-34.5 40.5q-23 20 -56.5 38t-67 36.5t-64.5 41t-45 56.5q-23 31 -44.5 53.5t-37.5 43t-26.5 43t-10.5 53.5l-6 57zM256 608q0 -68 36 -148.5t83 -158.5q6 -12 21.5 -29.5t32.5 -34 t35.5 -27.5t31.5 -11q43 0 74.5 47t55 104.5t39 108.5t23.5 59v57q0 68 -14.5 103t-14.5 45v45q0 27 -24.5 78t-52.5 94q-14 12 -35.5 40t-50.5 28q-57 0 -94 -25t-62 -65.5t-44.5 -95t-39.5 -111.5v-103z" />
<glyph unicode="R" horiz-adv-x="1257" d="M23 1104q0 6 9 13t19 13q12 8 29 15l346 16h211q6 0 22.5 2t32.5 6q20 4 43 9h80q41 0 77 -32t64 -59q16 -49 52 -73q12 -14 24 -30.5t17 -39.5q8 0 16 -17.5t14 -41t10.5 -44t4.5 -26.5q0 -29 -10.5 -63.5t-26 -69.5t-32.5 -66.5t-30 -52.5q-8 -14 -21 -22.5 t-25.5 -15.5t-21.5 -19t-9 -33q0 -23 12 -59.5t30.5 -73.5t38 -65.5t31.5 -34.5q25 -16 44.5 -41t41 -49.5t46 -44t57.5 -25.5q12 -4 38.5 -15.5t40.5 -25.5t14 -21q0 -6 -3 -18q-6 -23 -30 -33t-51.5 -13t-50 -2t-26.5 3q-14 12 -37.5 12t-38.5 4q-55 33 -77.5 53.5 t-53.5 38.5q-12 6 -30.5 21.5t-40 36t-43 43t-39.5 41.5q-25 31 -42.5 59.5t-30.5 54t-25.5 47t-26.5 33.5q-29 16 -42.5 30.5t-41.5 14.5q-25 0 -38.5 -15t-20.5 -35.5t-9 -43t-2 -37.5l23 -96v-41q0 -49 31.5 -73.5t68.5 -41t68.5 -32t31.5 -45.5q0 -14 -14 -24.5 t-27 -10.5h-73l-115 16h-45h-96h-35h-80q-6 0 -40 3t-72 10.5t-68.5 20.5t-30.5 36q0 6 6 12t14 12q8 8 21 15q6 0 18.5 -2t24.5 -4q14 -2 31 -5h41q41 0 68.5 24t27.5 50v215v332l16 147q-6 20 -8 49t-7 55t-18.5 46t-40.5 27h-79q-23 0 -45.5 4t-42 14t-31.5 28.5 t-12 49.5zM496 684l8 -4q4 -4 6 -7t2 -14q-6 -20 4 -37.5t28.5 -30.5t40 -20.5t36.5 -7.5q18 8 36 17q16 6 29.5 12t24.5 6l41 -16q27 0 45 21.5t29.5 49t17.5 53t10 33.5l-12 58q0 14 -3 27.5t-20 29.5q0 12 -3 36.5t-19 37.5q-6 0 -30 6t-51.5 14t-55 14.5t-39.5 6.5 q-8 -2 -19 -4q-10 -4 -22.5 -7.5t-26.5 -13.5q-14 0 -27.5 -13t-13.5 -42v-35v-80v-35q0 -16 -8 -29.5t-8 -25.5z" />
<glyph unicode="S" horiz-adv-x="1007" d="M16 195q0 59 45 103t109 44q39 0 74 -17.5t35 -52.5q0 -12 -3.5 -18t-3.5 -14q0 -14 6.5 -22.5t6.5 -18.5q0 -4 -3 -11.5t-3 -11.5q0 -31 16 -52.5t41.5 -36.5t58.5 -22.5t66 -7.5q66 0 120 31t97 82q25 27 41 55.5t16 71.5q0 25 -12 46.5t-12 43.5q0 10 3 11t3 5 q0 33 -17.5 54.5t-44 38t-58.5 31t-62 30.5q-8 4 -13.5 14.5t-15.5 14.5q-20 10 -41 11t-39 17q-16 10 -22.5 21.5t-22.5 23.5q-23 10 -40 11.5t-40 17.5q-12 14 -21.5 24.5t-17.5 26.5q-16 20 -39.5 32.5t-23.5 43.5v51q0 12 -2 24.5t-2 27.5q0 8 2 13t2 13q0 10 3 17.5 t3 11.5q0 33 11 56.5t30.5 42t44 34.5t51.5 33q55 35 101 57.5t114 22.5q43 0 76 -1t67 -28q29 -23 40.5 -49.5t11.5 -65.5q0 -20 -7.5 -42.5t-20.5 -41t-32.5 -30t-42.5 -11.5t-36 11.5t-24 23.5t-24.5 23.5t-34.5 11.5q-27 0 -54 -5t-50 -17.5t-37 -31t-14 -44.5 q0 -25 16.5 -35t40 -14.5t50 -8.5t48.5 -16q55 -29 95.5 -51.5t91.5 -57.5q18 -10 32.5 -17t28 -13.5t27.5 -14.5t33 -22q59 -47 95 -95.5t36 -125.5v-48q0 -25 8 -44t8 -46q0 -43 -17.5 -69.5t-33.5 -61.5q-4 -16 0 -27.5t-6 -23.5q-8 -27 -26.5 -35t-35.5 -28 q-18 -16 -34.5 -28.5t-33 -24t-33.5 -21.5t-42 -23q-39 -23 -69.5 -32t-71.5 -19q-14 -4 -24.5 -13t-27.5 -9q-18 0 -28 3t-23 3q-31 0 -48 -6.5t-44 -6.5q-16 0 -25.5 7.5t-25.5 11.5q-23 8 -40 7t-40 3q-23 0 -37 13.5t-37 27.5q-23 12 -43 17.5t-43 27.5 q-23 12 -24.5 31.5t-14.5 42.5q-16 35 -28.5 54.5t-12.5 60.5z" />
<glyph unicode="T" horiz-adv-x="1355" d="M23 825q0 8 2 25.5t5 36t6 35t3 22.5l24 98q0 6 3.5 28t10.5 46.5t17 43t25 18.5q27 0 42 -10.5t34 -22.5q12 -10 25 -16.5t36 -6.5q12 0 36.5 5.5t37.5 5.5h41q6 -4 14 -5.5t18 -3.5t23 -2h309l56 11l57 -11q43 0 89 5.5t87 5.5h98q37 0 66 10t50.5 21.5t34.5 21.5 t19 10t13.5 -15.5t13.5 -36t10 -41t4 -28.5v-147q0 -8 -1 -31t-6 -46.5t-17.5 -41.5t-32.5 -18q-35 0 -50.5 15t-22.5 38.5t-11 51.5t-14.5 51.5t-32 38.5t-64.5 15h-112q-10 0 -22.5 -2t-22.5 -6q-12 -4 -25 -8q-43 0 -66.5 -27.5t-23.5 -68.5v-98q0 -16 -1 -29.5t11 -26.5 l-10 -80v-331q0 -41 6 -67t16.5 -42t22.5 -27.5t23 -21.5q31 -10 55 -19.5t59 -9.5q61 -10 92 -37.5t33 -57.5t-22.5 -55.5t-73.5 -31.5q-18 0 -35.5 6t-34.5 10q-18 2 -40.5 2t-46 1t-45 5.5t-38.5 14.5h-12h-182q-12 0 -50 -11.5t-85 -11.5q-33 0 -60 2q-23 2 -46 3t-32 1 q-10 0 -16 -8t-41 -8q-4 2 -8 8q-4 4 -6 9.5t-2 15.5q8 23 20 45q10 18 23.5 38.5t29.5 37.5q29 10 54 18q20 8 39.5 14.5t25.5 6.5l98 22q14 0 22.5 19.5t12.5 42.5q4 27 4 63v217q0 8 9 29l8 16v262q0 16 3 32.5t3 31.5q0 6 -6 18.5t-16.5 24.5t-24 21.5t-27.5 9.5h-227 q-43 0 -66.5 -15.5t-36 -39t-18.5 -51.5t-15 -51.5t-25.5 -38.5t-49.5 -15q-31 0 -44 23.5t-13 49.5z" />
<glyph unicode="U" horiz-adv-x="1280" d="M23 1075q0 27 22.5 53.5t50.5 26.5l99 23h38q12 0 48 -11.5t67 -11.5h170q29 0 34 -12.5t5 -20.5q0 -45 -12.5 -62.5t-31.5 -22.5t-40.5 -5t-41 -9t-32 -34.5t-12.5 -83.5q0 -6 2 -19.5t5 -28.5t6 -28.5t3 -19.5v-57v-308v-137q-12 -27 -6 -34t6 -23l23 -55 q20 -31 38.5 -49.5t41 -30t53.5 -15.5t78 -4q14 0 49 12.5t66 28.5q6 14 19 27.5t31.5 37t40 61.5t46.5 102v79q0 14 2 53.5t5 82.5t6 81t3 50q-4 6 -8 14q-8 16 -8 27v96l-19 115v38q0 23 -14 30t-31 11q-23 4 -40 8.5t-17 24.5q0 18 8 35.5t19.5 33t26 25t26.5 9.5 q29 -14 57 -23q25 -10 55.5 -16t59.5 -6h80q20 0 47 5t50.5 4t39.5 -14.5t16 -52.5q6 -20 9 -39q1 -11 1 -21v-9q-1 -14 -10 -21h-57h-41q-25 0 -40 -25.5t-15 -54.5q-10 -31 -12.5 -49t2.5 -29q2 -12 10 -18l-25 -74q10 -16 13.5 -33.5t7.5 -31.5q2 -18 4 -33 q0 -6 -4 -18.5t-8.5 -26.5t-8.5 -28.5t-4 -22.5v-39q0 -8 -2 -20.5t-6 -26.5q-4 -16 -8 -33q0 -14 4 -25.5t8 -21.5q4 -8 4 -19.5v-25.5q0 -29 -4 -39q-12 -12 -12 -41t-23.5 -58.5t-50.5 -76.5q0 -27 -25.5 -46.5t-54.5 -45.5q-14 -16 -22.5 -25.5t-15.5 -16t-16 -10.5 t-26 -10q-68 -31 -133 -36t-94 -5q-35 0 -77 4t-84 14.5t-81 24.5t-65 37l-41 57q-16 23 -28.5 49.5t-22.5 49.5q-12 27 -23 55v137q0 29 -11 58.5t-11 76.5v115q4 20 10 41q4 16 8 32.5t4 22.5q-6 29 -12 51q-10 45 -10 64q4 16 10 33q4 14 8 26.5t4 20.5v112 q0 14 -24.5 24.5t-54 18t-53.5 14.5t-21 17z" />
<glyph unicode="V" horiz-adv-x="1400" d="M23 1100q0 33 57 33h39q29 0 69 10q23 6 45 12h74l51 -10l37 4q14 2 27.5 4t21.5 2h62q27 0 42 -4t15 -29q0 -39 -24.5 -57t-55 -28.5t-55.5 -20.5t-25 -31q0 -16 6.5 -36.5t13.5 -39t16.5 -31t15.5 -12.5q14 -14 24 -30q10 -14 18.5 -29.5t8.5 -32.5q0 -6 9 -31.5 t23.5 -61.5t32 -77t37 -74.5t38 -56t32.5 -22.5q12 0 25.5 20.5t23.5 44.5q12 29 25 66q14 20 43.5 74.5t58.5 118t51.5 121.5t22.5 89q0 23 -13.5 30t-25.5 15q-14 4 -27.5 14.5t-13.5 30.5t12 32.5t29.5 17.5t33 6.5t21.5 1.5h98q6 0 12.5 -2.5t10.5 -4.5q6 -2 10 -4 q45 0 66.5 2t35 5.5t27 6.5t43.5 3l39 -6l41 6q25 0 43.5 -14.5t18.5 -49.5q0 -23 -8.5 -36t-20.5 -19t-28.5 -10t-33.5 -9q-47 -8 -96 -19t-69 -54l-11 -45l-15 -22.5t-23.5 -37t-23.5 -44t-18 -44.5q-6 -12 -14 -22q-6 -10 -13 -19.5t-14 -15.5q-12 -31 -29.5 -69 t-43.5 -68q-51 -121 -88 -224q-16 -43 -32.5 -88t-29 -82.5t-19.5 -67.5t-7 -44v-58q0 -31 -7.5 -52t-50.5 -21q-16 0 -33.5 2t-33.5 14q-27 12 -30 28.5t-15 28.5q-18 25 -19 46q-4 23 -8 40t-14 33q0 14 -11.5 38t-11.5 36q-23 39 -36 75t-27.5 72.5t-31.5 76.5t-48 85 q-4 20 -10 41q-4 16 -8.5 33.5t-8.5 28.5l-18 51q-4 12 -19.5 34.5t-31.5 45.5q-20 25 -46 55q-10 78 -35.5 145.5t-72.5 94.5q-102 53 -102 92z" />
<glyph unicode="W" horiz-adv-x="2031" d="M23 1075q0 18 13 41t44 23h268q20 4 41 8q16 4 31.5 6t23.5 3h62q27 -12 42 -20t15 -36q0 -31 -27.5 -44.5t-60.5 -21.5t-60.5 -18t-27.5 -31q0 -16 6 -31.5t23 -35.5q12 -18 23.5 -36t11.5 -34l26 -53q10 -23 19.5 -45.5t9.5 -38.5q0 -4 7 -25.5t18.5 -51.5t25.5 -62.5 t29 -59.5q10 -12 14 -27.5t8 -29.5q4 -4 9.5 -21.5t11.5 -36t11 -34t9 -15.5t8.5 15.5t8.5 34t9 35t9 18.5q10 14 18.5 33.5t14.5 38t9 33.5t3 19q12 12 25.5 36t27 54.5t26.5 64.5t30 67q25 59 46 106t21 82q0 20 -14 27.5t-30.5 11.5t-31 13.5t-14.5 37.5q0 18 11.5 29.5 t26.5 20t30.5 11.5t21.5 3q16 0 23.5 -2t34.5 -15h96q37 0 48 2t17 5.5t15.5 6.5t38.5 3h98q25 0 41 -14.5t16 -49.5q0 -29 -20.5 -41t-50 -19t-60.5 -14.5t-51 -21.5q0 -61 27 -109q10 -16 22 -41.5t12 -60.5q0 -4 9 -39t24 -79t33 -90t37 -71q4 -4 12 -26.5t15.5 -47 t14.5 -45t9 -18.5t6 17.5t9 32t10.5 32t9.5 17.5q14 14 23.5 33.5t13.5 39t6 35.5t2 23q23 20 43 70t43 106q8 25 21.5 49t17.5 47q28 87 28 128q0 23 -15 30.5t-32.5 11.5t-33 13.5t-15.5 37.5q0 18 12.5 29.5t30 20t32.5 11.5t21 3q31 0 39.5 -2t24.5 -15h90q27 0 39 2 t21.5 5.5t19.5 6.5t35 3h102q27 0 42.5 -14.5t15.5 -49.5q0 -29 -8.5 -43t-20.5 -22.5t-27.5 -10.5t-29.5 -4q-25 -2 -48.5 -4t-43 -8t-35 -18.5t-21.5 -36.5l-18 -74l-56 -119q0 -18 -17 -34.5t-34 -28.5q-10 -25 -12 -42.5t-5 -34.5t-10.5 -34.5t-23.5 -42.5 q-45 -109 -80 -201q-16 -39 -30.5 -78.5t-24.5 -73.5t-17.5 -60.5t-7.5 -41.5l-12 -45q-4 -16 -7 -32.5t-3 -20.5q0 -8 -1 -21.5t-6.5 -26.5t-17.5 -22.5t-33 -9.5q-16 0 -22 19q-14 4 -19.5 10t-15.5 6q-16 16 -24.5 23.5t-20.5 33.5q-10 8 -14.5 23.5t-8.5 28.5 q0 16 -7 28.5t-11 22.5q0 29 -3 45t-20 29q-23 45 -34 76.5t-22 59t-26.5 55.5t-42.5 65q0 8 -3 22t-6 28.5t-5 27t-2 18.5l-35 57q0 10 -4 30.5t-12 39.5q0 2 -3 16.5t-6 30.5t-6.5 31.5t-3.5 17.5q-2 4 -5 -6t-6 -25.5t-6 -30t-5 -18.5q-29 -31 -42 -70.5t-26 -82.5 q-45 -98 -80 -181q-31 -72 -55 -139t-24 -96l-21 -53q-8 -20 -14 -39t-6 -23q0 -16 -2 -32.5t-15 -28.5q-29 -14 -48 -16.5t-48 -2.5q-12 14 -26.5 40t-30.5 52q-8 8 -13.5 23.5t-9.5 28.5q0 16 -4 28.5t-8 22.5q0 29 -3 45t-20 29q-43 90 -68.5 164.5t-66.5 142.5 q-8 8 -14 25.5t-12 33.5q-8 20 -15 43v58q0 4 -10 25.5t-25 47.5q-12 23 -25.5 46.5t-13.5 27.5q-31 88 -66.5 136t-68 77t-54 47.5t-21.5 46.5z" />
<glyph unicode="X" horiz-adv-x="1439" d="M23 39q0 14 15 29.5t34.5 25.5t39 17.5t25.5 7.5h96q27 0 52.5 21.5t49 51t46 61.5t45.5 54q27 47 57.5 79t57.5 75q16 16 21 31.5t20 25.5v45q0 12 -12.5 35t-29 46.5t-32.5 42t-25 24.5q-29 31 -39 58.5t-41 45.5q-14 12 -25 31.5t-23.5 39t-28 36t-35.5 22.5 q-23 6 -44.5 8t-45 4t-49 7.5t-56.5 21.5q-29 12 -51 39t-22 51q0 35 20 49.5t37 14.5h39q14 -12 37.5 -14.5t38.5 -2.5h231q6 0 21.5 2t31.5 6q18 4 39 9h103q12 0 44.5 8t45.5 8l80 -16h34q8 6 35 15t57.5 18.5t60.5 16.5t42 7q8 0 25.5 -3t33.5 -7q20 -4 43 -8 q41 -16 74 -27.5t80 -11.5q43 0 58.5 -16.5t15.5 -63.5q0 -23 -16.5 -40.5t-39 -29.5t-50 -19t-48.5 -7q-51 -6 -96 -42t-86 -85.5t-82 -102.5t-84 -96v-55q0 -16 9 -34t22.5 -38.5t27 -42t21.5 -41.5q12 -29 38.5 -68t53.5 -67q20 -23 37.5 -54.5t37 -61.5t47.5 -47 q19 -12 44 -12q12 0 26 3h80q37 -8 59.5 -25.5t35 -39t16.5 -45t4 -44.5v-45q0 -12 -22.5 -23.5t-34.5 -11.5q-16 0 -24.5 6.5t-18 14.5t-21.5 18t-33 19h-75q-23 -6 -43 -13q-37 -10 -60 -10l-74 23h-38q-14 0 -38 11t-36 11q-16 4 -37 2t-39 -2t-31.5 6t-13.5 29 q0 39 17.5 51t39.5 17q16 10 30.5 22t14.5 47q0 14 -7 25.5t-16 24t-18.5 27.5t-13.5 36q-10 14 -21.5 37.5t-26.5 46t-33.5 38t-39.5 15.5q-12 0 -27.5 -13.5t-29.5 -43.5q-20 -31 -47 -56.5t-50.5 -53t-40 -57.5t-16.5 -67q0 -23 12.5 -40t28 -32.5t27.5 -26.5t12 -20 q0 -10 -14 -11t-31 -1h-381q-33 6 -57 15q-23 8 -40 22t-17 37zM614 974q6 -16 7 -30q0 -6 10 -43t27.5 -80t41 -76.5t52.5 -33.5q14 0 45.5 36.5t64.5 85t57.5 92.5t24.5 60l-16 16q-8 6 -27.5 22.5t-41 34t-41 30t-27.5 12.5q-33 -18 -62 -35q-25 -16 -50.5 -31.5 t-41.5 -32.5q-24 -10 -24 -22q0 -2 1 -5z" />
<glyph unicode="Y" horiz-adv-x="1308" d="M23 1075q0 35 15 57.5t58 22.5h99q29 0 55 -11t41 -11h96q6 0 22.5 -2.5t36 -3.5t40 -3t32.5 -2h45q14 0 16.5 -3t2.5 -19t-12.5 -30.5t-26 -32t-25.5 -36t-12 -38.5q0 -23 22.5 -58t51.5 -69q33 -39 75 -84q0 -6 4.5 -18.5t9.5 -25t12 -21.5t13 -9q14 0 28.5 20.5t27 47 t22.5 50t19 29.5q0 8 12 28.5t27.5 44.5t27.5 47.5t12 39.5q0 12 -16 20.5t-34.5 19.5t-35 27.5t-16.5 47.5q0 8 9 14t22.5 10t27 6.5t21.5 2.5q12 -4 22 -7q10 -2 19.5 -3t15.5 -1h39q31 8 53.5 9.5t77.5 1.5q20 0 33.5 3t23 8t20 8t26.5 3q12 0 31.5 -4t38 -9t31.5 -10.5 t13 -9.5q0 -47 -26.5 -74.5t-69.5 -27.5h-63q-29 0 -43.5 -10.5t-23.5 -25.5t-13 -36.5t-11 -42.5q-10 -12 -18 -24.5t-23 -20.5q-8 -14 -19 -26.5t-19 -24.5l-36 -69t-46.5 -102t-39 -113.5t-16.5 -102.5v-74l-10 -57q0 -6 2 -25.5t6 -39t10.5 -35t14.5 -15.5 q14 -8 59 -19.5t93.5 -26.5t85 -33.5t36.5 -39.5q0 -10 -2 -18q-4 -16 -20 -16q-18 -16 -31.5 -22.5t-26.5 -23.5q-8 0 -13 -9t-10 -19t-13.5 -19.5t-20.5 -9.5q-16 0 -41.5 11.5t-54.5 11.5h-137q-16 0 -33 2q-14 2 -31.5 5t-32.5 11h-92q-35 0 -51 -9t-51 -9h-35 q-72 0 -95.5 18.5t-23.5 73.5q0 35 18.5 68.5t61.5 33.5l96 -22q12 0 29.5 7t31 17.5t19.5 24.5t0 31l-22 227q0 16 -2 33.5t8 33.5q0 12 -6 25.5t-6 26.5q0 43 -21.5 76.5t-69.5 76.5q-14 31 -54 57.5t-83 57.5q-12 29 -36.5 59.5t-37.5 59.5q-12 10 -26 14t-31 14 q-39 10 -80 17q-35 14 -54 37.5t-19 64.5z" />
<glyph unicode="Z" horiz-adv-x="1490" d="M23 870q0 49 21.5 89t54 73t68.5 58.5t66 48.5q16 29 40 56.5t40 39.5q6 6 27.5 19.5t46.5 26.5t46.5 23.5t27.5 10.5q8 0 39.5 -10.5t79 -25.5t103.5 -35.5t114 -41.5q55 -18 107 -36.5t93 -32t70 -21.5t37 -8q12 0 54 11t89 26q53 16 119 37q47 0 63.5 -24t16.5 -50 q0 -59 -16.5 -86t-46 -40t-71.5 -24.5t-93 -42.5q-23 -16 -43.5 -18t-41 -2t-40 -3t-35.5 -18q-43 -29 -86 -59.5t-84 -58.5q-14 -12 -31.5 -37t-42.5 -37q-6 -4 -34.5 -21.5t-69.5 -41t-85 -50t-83 -51.5t-63.5 -44t-24.5 -26q0 -14 33.5 -27.5t64.5 -35.5 q35 -23 55.5 -45.5t28.5 -22.5q37 -31 72.5 -69.5t70.5 -79.5t66 -83t59 -75q47 -78 104.5 -160t112.5 -153q12 -16 36 -32.5t38 -31.5q29 -12 58.5 -37.5t54.5 -35.5q8 -8 28.5 -16.5t43 -14.5t41 -10t24.5 -4h57q16 -4 31 -11q29 -10 49 -24l90 18l64 -18q14 0 19 3 t11.5 6t15.5 6t34 3t46 2t50 15q55 16 109.5 45.5t101.5 56.5q12 10 22.5 21.5t22.5 23.5q18 33 51 57q14 0 21.5 12.5t15.5 24.5t21.5 20.5t43.5 0.5l7 -6q2 -4 4 -11.5t2 -23.5l-13 -56q0 -23 -21.5 -51t-49 -58t-54 -57.5t-38.5 -44.5q-49 -39 -113 -68.5t-121 -50 t-100 -30.5t-49 -10h-103q0 10 -16 14q-8 2 -17 2h-79l-35 -16h-96q-6 0 -27 2t-43.5 5t-42 6t-25.5 3q-72 14 -136 58.5t-122.5 95.5t-106.5 101t-85 81q-12 27 -36 55.5t-38 59.5q-16 43 -53 71.5t-66 59.5q-31 47 -49 90t-47 86q-23 14 -37 34.5t-29.5 41t-34 38 t-49.5 23.5q-43 6 -85 18.5t-82.5 24.5t-79.5 21.5t-76 9.5q-12 0 -14.5 21.5t-2.5 35.5t21.5 34.5t48.5 39t50.5 32t27.5 13.5q31 20 63.5 34.5t66.5 28t69.5 26.5t72.5 36q43 35 86 58.5t90 66.5q20 12 42 32.5t43.5 41t43 38t43.5 25.5q6 6 12.5 15.5t12.5 19.5 q8 10 14 22q0 10 -12 23l-10 10q-23 8 -74 27.5t-111.5 39t-115.5 34t-86 14.5q-6 0 -27.5 -9.5t-46.5 -20.5t-46.5 -22.5t-27.5 -15.5q-16 -31 -43.5 -60.5t-58.5 -53t-60.5 -40t-48.5 -18.5q-8 -2 -21 -2t-26.5 5t-22.5 16.5t-9 31.5z" />
<glyph unicode="[" horiz-adv-x="598" d="M96 1606q0 8 2 16q2 6 5 12t12 6h39h15t19 2q10 0 23 3q8 0 22.5 -2.5t28.5 -4.5q16 -2 35 -4q25 0 45 3t33 3l143 11q16 0 36.5 -19.5t20.5 -48.5q0 -8 -31.5 -19.5t-68.5 -23.5t-68.5 -25.5t-31.5 -27.5v-457q-4 -16 -8 -31q-4 -12 -6.5 -24t-2.5 -19l17 -278v-115 l-4 -102q0 -23 1 -56.5t1 -66.5t1 -59.5t1 -32.5v-246v-96q0 -6 6 -19.5t15.5 -27t19.5 -23.5t16 -10l74 -45q31 -14 47 -29.5t16 -46.5q0 -14 -15 -17t-37.5 -2t-46.5 5t-38 4h-39h-35h-39l-79 16q-31 0 -47.5 -5t-32.5 -5q-14 0 -36 11t-22 28q0 20 8.5 35.5t18.5 29 t21.5 27.5t15.5 33q4 31 2 47t-2 33v57v426v492v67q0 109 2 197q0 76 1 139t1 74q0 55 -18.5 82.5t-32.5 35.5q-8 4 -15.5 22.5t-7.5 70.5z" />
<glyph unicode="\" horiz-adv-x="1103" d="M102 1196q11 27 23 39l43 43t29.5 25.5t30 16.5t44.5 17q35 16 53.5 28.5t61.5 12.5q51 0 75.5 -17.5t35 -47t12.5 -70.5t8 -88q2 -12 20.5 -63.5t40 -109.5t39 -107.5t19.5 -59.5q4 -23 17.5 -86t32 -147t40 -175.5t44 -171t41.5 -137t36 -69.5q12 -12 41 -10.5t56.5 6 t45 2.5t10.5 -27q-23 -51 -60.5 -78.5t-80.5 -58.5q-10 -4 -23.5 -11.5t-21.5 -17.5q-16 -10 -22.5 -18.5t-12.5 -12.5t-14 -6t-27 -2q-41 0 -63.5 23.5t-26.5 62.5q0 25 3 55.5t-9 51.5q-2 6 -9 30.5t-16.5 52t-16.5 52l-9 31.5q-10 47 -10 86q0 4 -5.5 29.5t-14.5 62.5 t-19.5 79t-18.5 77.5t-15 62.5t-7 31q-2 4 -7.5 24.5t-11.5 45t-12 46t-10 25.5q-4 6 -13.5 30.5t-20.5 52.5t-22.5 52.5t-17.5 30.5q-2 6 -8 43t-14.5 79t-14.5 78.5t-8 43.5q-10 14 -25.5 17t-15.5 11q-16 10 -25.5 13.5t-29.5 3.5q-27 0 -52.5 -16.5t-52.5 -16.5 q-25 0 -34 14.5t-5 36.5z" />
<glyph unicode="]" horiz-adv-x="598" d="M45 -250q0 10 32 22.5t68.5 26t68.5 27.5t32 27v135l4 32q2 14 4 27.5t2 20.5l-10 274v215l4 98q0 14 -1 50t-2 83.5t-2 98.5t-2 95t-2 74.5t-1 37.5v239q0 16 3 34.5t3 62.5q0 6 -7.5 19t-16.5 26.5t-18 23.5t-16 10l-79 45q-27 12 -42.5 28.5t-15.5 45.5 q0 14 15.5 18.5t38 3.5t45 -5.5t38.5 -4.5h39h35h39l80 -18q27 0 45 6t35 6q14 0 35.5 -11t21.5 -30q0 -20 -9 -35.5t-19.5 -28.5t-19.5 -27.5t-9 -33.5q-4 -29 -2 -46t2 -33v-56v-639v-585v-74q-4 -18 -6 -37q-2 -16 -3 -31.5t-1 -23.5q0 -55 19 -83t36 -36q10 -4 14 -21.5 t4 -64.5q0 -12 -2 -21q-4 -18 -16 -18h-39q-10 0 -18.5 -1t-18.5 -3t-20 -2t-23.5 2t-26.5 6q-14 4 -30 8q-35 0 -54.5 -5t-35.5 -5l-144 -18q-12 0 -31.5 19t-19.5 50z" />
<glyph unicode="^" horiz-adv-x="978" d="M137 188q0 16 10.5 50t22.5 63l12 29q2 2 4 6q4 8 9 12v-6q12 16 23 43t22 53q4 6 8 15q6 12 20 26l4 10q4 16 16.5 37t24.5 37q31 76 54 139q20 53 37.5 102.5t17.5 65.5q4 14 5 23.5t5 24.5q0 20 7 37.5t50 17.5h13q4 0 5 2t4 3t11 -2t25 -13q12 -8 22 -35h4 q2 0 3.5 -2t5.5 -4v-24.5t4 -27.5q6 -6 6 -10v-6v-29q0 10 4 -4t8 -24q0 -4 2 -8.5t2 -8.5q10 -23 18.5 -35t16.5 -34q4 -25 17.5 -51.5t39.5 -61.5q2 -14 7 -27q4 -10 5 -21t5 -15h-6l18 -46q2 -4 12.5 -16t20.5 -27l29 -36q10 -27 17 -50.5t11 -40.5q10 -27 16.5 -48 t6.5 -38q0 -55 -51 -63l-68 -39l-45 16l-41 121q0 12 -3 30.5t-26 31.5q-8 14 -14 26q-4 10 -8 23.5t-4 23.5q0 4 -6.5 26t-16.5 47.5t-24.5 52t-28.5 40.5l-4 29q-4 0 -6 20.5t-7 24.5q0 -4 -3 -25.5t-3 -25.5q-6 -6 -12 -19.5t-10 -27.5q-6 -16 -10 -33q-10 -12 -30 -44 t-40.5 -69t-35.5 -70.5t-15 -49.5q0 -8 -11.5 -45t-33.5 -64q0 -12 -8.5 -15t-20.5 -8q-4 0 -7 -2t-7 -4l-9 -4h-33.5t-31.5 4t-22.5 14.5t-8.5 32.5z" />
<glyph unicode="_" horiz-adv-x="1024" d="M-102 -313q2 6 12 21.5t24.5 32.5t32 32.5t33.5 21.5q98 8 201.5 4t201.5 -4q31 4 83.5 0t117.5 0h164q18 -4 45 -2t55.5 5t58 4t52.5 -7q31 4 68.5 4t97.5 -4q-2 -6 -4 -14q-4 -6 -7.5 -14.5t-7.5 -16.5q-2 -6 -4 -13t-11 -14.5t-28.5 -14.5t-58.5 -15q-12 2 -45 1 t-73 -2t-81 0t-67 7h-39t-60.5 -1t-63.5 -4t-48 -7q-35 -8 -90.5 -4t-120.5 4h-37t-50.5 1t-50 2t-38.5 3q-16 -4 -31.5 -6t-33 -1t-40 3t-55.5 4q-20 -2 -39 -4q-16 -2 -33.5 -2h-29.5z" />
<glyph unicode="`" horiz-adv-x="684" d="M16 1890q-12 35 7.5 48t44.5 -3q10 -16 25.5 -38.5t37.5 -34.5q23 -16 43.5 -40t36.5 -46q39 -41 68.5 -80t56.5 -78q6 -2 13 -13.5t15.5 -23.5t16.5 -22.5t18 -10.5q6 -16 18.5 -34.5t26 -38t23.5 -41t12 -45.5q12 -4 13.5 -13.5t13.5 -9.5q10 -12 2 -27.5t-12 -29.5 q-4 -23 -32 -39.5t-54 -12.5q-12 2 -32 19.5t-38 40t-33.5 43t-21.5 29.5q-16 23 -34 37t-34 42q-27 35 -44 77t-48 95q-2 18 -14.5 51t-28.5 68t-34.5 71t-31.5 60z" />
<glyph unicode="a" horiz-adv-x="780" d="M68 272l28 240q0 6 6.5 28.5t16.5 49t23.5 52.5t27.5 42q59 55 115 135q27 37 51 53.5t49 25.5t49.5 14.5t54.5 21.5q12 0 32 13.5t36 25.5h57h35l39 18q43 0 61.5 -24.5t18.5 -67.5q0 -8 -6 -35.5t-15.5 -61.5t-19.5 -69t-16 -55q0 -16 -2 -33.5t-15 -46.5 q-16 -12 -16 -40v-40l-6 -108v-80q0 -6 1 -21.5t4 -31t11 -26.5t23 -11l28 45q12 10 28.5 25.5t33.5 29.5q18 16 37 35q12 0 20 -10.5t8 -22.5l-8 -16q-8 -16 -16 -25q-14 -41 -37 -70.5t-49.5 -57.5t-54 -56.5t-52.5 -65.5l-45 -63q0 -18 -11 -38t-27 -31q-14 -10 -30 -10 h-2q-18 1 -28 23q-12 37 -12 73t6 70t12 64.5t6 59.5v73v41q0 10 -14 15q-8 2 -15 2q-6 0 -30.5 -36t-56 -82t-64.5 -93t-53 -68q-6 -8 -19.5 -23.5t-29 -29.5t-34 -25.5t-32.5 -11.5q-29 0 -47.5 20.5t-28.5 48t-15 55.5t-5 40zM244 442q-1 -9 -1 -19q0 -19 3 -39 q4 -30 15 -53.5t40 -23.5q27 0 62.5 47t67.5 106.5t53.5 111t21.5 61.5q0 8 2 40q1 9 1 18q0 21 -4 43q-5 30 -23 44q-6 4 -14 4q-16 0 -42 -18q-37 -31 -69.5 -71t-57.5 -81t-39 -76.5t-14 -56.5q0 -9 -2 -37z" />
<glyph unicode="b" horiz-adv-x="636" d="M68 137q0 16 10 43q6 14 12 31v61l19 189v41l38 192v58v16q0 16 11.5 69.5t11.5 125.5v57l57 233v17q0 14 5.5 46t11.5 64q8 37 18 82l17 58q4 31 17 54t40 66l194 170h56q16 0 31.5 -8t31.5 -8l58 16h32q14 0 31.5 -9t33 -23.5t25 -29.5t9.5 -28q0 -31 -8.5 -65.5 t-29 -68.5t-53 -60.5t-81.5 -38.5h-17h-22q-23 0 -50.5 -12.5t-52 -32t-41 -43t-16.5 -43.5q-16 -14 -21.5 -46t-19.5 -57q-16 -18 -19.5 -50t-3.5 -48l-22 -74q0 -29 -12.5 -57.5t-27.5 -61t-27.5 -70.5t-12.5 -83v-41q0 -10 8 -14q4 -2 10 -2q14 0 28.5 24.5t37.5 55 t55.5 55t83.5 24.5l45 17q47 0 72 -28t25 -75v-16l-17 -41q4 -16 8 -33q4 -14 6.5 -29.5t2.5 -27.5q0 -23 -7 -29q-4 -10 -7 -17t-3 -11q0 -8 2 -13.5t4 -13.5t1 -20.5t-7 -32.5v-62q0 -6 -11 -25.5t-25.5 -44t-31 -53t-24.5 -55.5l-22 -90q-37 -53 -70 -96 q-29 -37 -54.5 -72t-35.5 -43q-23 -14 -35 -26.5t-24.5 -20.5t-31 -12t-57.5 -4l-57 -17q-16 0 -22.5 9.5t-8.5 24.5t-4 33.5t-10 35.5q0 10 -6 21t-10 24q-14 16 -27.5 31.5t-13.5 37.5zM246 313q0 -20 4 -37q4 -14 8 -25t14 -11h25q29 10 62.5 36.5t62.5 59.5t48 67.5 t19 63.5v51v45l-10 41l10 33q1 74 -73 74q-29 0 -58.5 -43t-54 -98.5t-41 -107.5t-16.5 -69v-80z" />
<glyph unicode="c" horiz-adv-x="575" d="M50 299v12q0 11 1 19q0 63 14.5 99t14.5 77l22 51v47q2 6 10.5 32t19.5 57.5t21.5 64.5t16.5 51q0 12 14.5 30.5t34 36t41 30t37.5 12.5q12 4 14 6t2 4t2 5t15 7q31 4 47 9t30.5 10.5t27.5 8.5q8 2 20 2q8 0 18 -1q27 -4 58.5 -12.5t56 -23.5t38.5 -41q11 -20 12 -50 q0 -8 -1 -17q0 -23 -9.5 -43t-22.5 -37.5t-29.5 -27.5t-28.5 -10q-16 2 -27.5 3t-17.5 1h-13h-16q-35 0 -78 -2t-59 -15q-16 0 -19.5 -10t-3.5 -25l-28 -45q-4 -25 -9 -47q-4 -18 -8 -36.5t-6 -24.5v-33l-16 -57q-4 -8 -10 -17q-4 -8 -8.5 -15t-6.5 -13q0 -18 6 -50 t16.5 -62t24 -52.5t29.5 -24.5q31 0 63.5 24.5t64.5 54.5t61.5 53.5t54.5 21.5q31 -4 35 -15.5t-1 -23.5q-2 -29 -23.5 -65.5t-51 -72.5t-61 -66t-52.5 -42q-68 -43 -121 -71q-46 -25 -103 -25h-16q-29 2 -47 29.5t-28.5 63.5t-15.5 71t-5 51l6 18q0 8 -2 28t-3 41.5 t-2 41.5z" />
<glyph unicode="d" horiz-adv-x="815" d="M57 63v33v92q0 6 4.5 30t10.5 52q6 33 14 72q0 8 3 22.5t7 26.5q6 14 13 31v16q4 20 8 41q4 16 6 32.5t2 23.5q12 31 17 57t24 57q6 45 31.5 78t60.5 59.5t71 50t64 52.5q12 0 23 2q20 4 35 20q37 6 58 10.5t34.5 13.5t18.5 23.5t7 42.5l17 58l18 125l17 80q0 6 4 28.5 t10 47t12 46t8 25.5q4 10 4 16.5v18.5q0 8 6.5 24.5t14.5 37t18.5 40t18.5 35.5q20 27 44.5 61.5t51.5 65.5t55.5 54.5t59.5 29.5h16q31 0 38 8t19 8l80 -16h58q8 0 16 -12.5t12 -28.5q6 -18 11 -39v-57q0 -72 -49.5 -121t-127.5 -49q-4 4 -10 8q-12 8 -22 8q-14 0 -28.5 -4 t-22.5 -12q-12 -12 -28 -45t-29 -69t-23.5 -67.5t-12.5 -41.5l-10 -52q-12 -35 -25.5 -61.5t-22.5 -55t-15.5 -61.5t-6.5 -78q-8 -14 -19 -58t-20.5 -92t-15.5 -88t-6 -46v-39q0 -10 -3 -32.5t-6 -47.5t-6 -46.5t-3 -27.5q-6 -23 -7.5 -41t0.5 -30q2 -16 7 -27 q0 -6 -3.5 -22.5t-3.5 -35t4.5 -31.5t20.5 -13q27 0 54.5 18t50 41.5t40 42t25.5 18.5q12 0 23.5 -12t11.5 -29q-20 -23 -35 -45q-14 -20 -24.5 -41.5t-10.5 -44.5q-8 -23 -24.5 -44t-37 -45.5t-40 -50.5t-33.5 -52q0 -6 -9 -15.5t-21.5 -17.5t-26 -15t-19.5 -10 q-48 -35 -80 -51q-14 -7 -21 -7q-11 0 -11 13q-20 -10 -28 6q-9 14 -12 44q-2 18 -2 39q0 14 1 29q2 38 3 71t-1 55.5t-13 22.5q-16 0 -41.5 -21.5t-54.5 -52.5q-18 -16 -42.5 -47t-50.5 -60.5t-49.5 -52t-35.5 -22.5q-20 0 -40.5 11t-36 27.5t-26 38t-10.5 43.5zM261 386 q3 -36 21 -60q12 -16 38 -17q12 0 28 4q39 10 75 51.5t61.5 96.5t39.5 115q12 53 11 99v13q0 16 -7 29q-4 10 -15.5 19t-29.5 9q-41 0 -79.5 -26.5t-68.5 -65.5t-48.5 -80t-18.5 -71q0 -8 -5 -44q-3 -22 -3 -45q0 -13 1 -27z" />
<glyph unicode="e" horiz-adv-x="581" d="M57 176l6 41v33q0 8 4.5 44t10.5 78t11 79.5t7 50.5q8 6 8 12t-2 12t-2 15.5t9 21.5q0 25 10 51q6 14 12 29l29 68q4 45 43 93t91 87t108 63q47 20 82 20q6 0 12 -1q43 0 72.5 -15.5t48 -42t26.5 -61.5q6 -28 6 -59v-15q0 -55 -41 -89t-84 -58q-39 -27 -83 -47.5 t-81.5 -45t-63.5 -57t-28 -84.5v-86q-1 -6 -1 -12q-1 -29 15 -57q18 -34 48 -33q2 -2 16 6t31.5 19.5t35 23.5t25.5 19q31 14 48.5 23t25.5 5q14 0 24.5 -4t10.5 -31q-4 -45 -39 -87t-76 -77.5t-80 -62.5t-51 -39q-35 -31 -64.5 -33t-60.5 -2q-18 2 -37.5 16.5t-35 34 t-23.5 40t-6 34.5v35q0 14 -8 31q-4 8 -9 14zM330 675q-1 -4 -1 -7q0 -8 3 -12q4 -8 16 -7q2 -1 6 -1q8 0 24 5q20 6 42 18.5t39.5 30t19.5 37.5v35q0 10 -6 18.5t-14 12.5q-8 6 -21 10l-35 4q-10 0 -20 -15.5t-21 -33.5q-10 -23 -20 -47q-2 -10 -6 -23.5t-6 -24.5z" />
<glyph unicode="f" horiz-adv-x="546" d="M-569 -586q0 6 9 23.5t21.5 38t24.5 39t18 24.5q0 8 17.5 25.5t42 34t51.5 30t43 13.5h35q4 -4 12 -11q4 -4 11.5 -9t11.5 -9l51 -16q14 -4 26 -7q10 -4 22.5 -5t18.5 -1h45q43 0 75 19.5t63 54.5q10 2 22 37t26.5 84t28 107.5t24.5 110.5t17.5 91t6.5 49v39q0 4 4 35 t11 75t16.5 97t17.5 104.5t16 94.5t14 67q0 14 2.5 31.5t6.5 32.5l8 32q0 27 -23.5 39.5t-53.5 18.5t-53.5 14t-23.5 31q0 14 3 29.5t20 27.5q12 14 34.5 19.5t45 8.5t42 11t27.5 29q8 10 16.5 38.5t14.5 67.5t12 84t10.5 85t6.5 72t2 46q10 16 22.5 44t12.5 52 q0 25 12 50.5t29.5 50t37 45t35.5 32.5q29 29 47.5 53.5t48.5 53.5q14 6 26.5 17.5t26 21.5t29 17t37.5 7h35q13 3 26 3q17 0 33 -6q29 -11 51.5 -32.5t36 -49t13.5 -52.5q0 -12 -7.5 -34.5t-18.5 -46t-21.5 -43t-16.5 -23.5q-14 -14 -29.5 -19.5t-29.5 -6.5t-28.5 -3 t-26.5 -10q-16 -6 -41 -11.5t-49.5 -14.5t-48 -25.5t-37.5 -46.5q-6 -23 -20.5 -84.5t-29.5 -126.5q-16 -78 -34 -170q0 -23 11 -35t27.5 -20.5t35 -10.5t32.5 -2h64q6 0 15 -4t19 -8q10 -6 23 -10v-41q0 -6 -9.5 -21.5t-22.5 -31t-26.5 -27t-21.5 -11.5h-96q-59 0 -79 -18 t-20 -61q-4 -12 -8 -23q-4 -10 -6 -19.5t-2 -15.5q0 -72 -8 -134t-8 -89q0 -8 -5.5 -40t-12.5 -69.5t-12 -72.5t-5 -49l-6 -99q0 -6 -3 -22.5t-6.5 -35t-5.5 -35.5t-2 -26q0 -35 -3 -54t-8 -31.5t-8 -21.5t-3 -24q0 -8 -7.5 -35.5l-16.5 -60.5t-20 -63.5t-20 -44.5 q-25 -31 -41 -54.5t-32 -70.5q-12 -6 -42 -34t-65 -58.5t-68.5 -55t-58.5 -24.5q-23 0 -36 -3.5t-25.5 -8.5t-23.5 -8t-30 -3h-16q-12 0 -21.5 2t-13.5 -2q-8 -4 -17 -5t-22 -1q-10 0 -30.5 2t-42 4t-40 4t-24.5 2q-8 0 -32.5 5t-50 16.5t-45 27t-19.5 37.5z" />
<glyph unicode="g" horiz-adv-x="569" d="M-285 -637q0 35 9.5 59.5t25.5 59.5q8 27 37 64.5t43 66.5q8 10 22.5 17.5t29 15.5t28.5 17t22 24q29 16 47.5 30.5t49.5 26.5q14 0 29.5 9t29.5 22.5t27.5 27t25.5 21.5q18 12 29.5 17t11.5 22q16 14 40 27.5t40 29.5q10 37 19 72q8 29 14 58.5t6 45.5q0 27 -24.5 31 t-55.5 4h-16q-8 0 -27.5 12.5t-40 29.5t-36 32.5t-15.5 21.5v41q0 41 -9 62.5t-9 50.5q0 43 21.5 107.5t49 128t52 116.5t30.5 76q14 12 36 19.5t22 37.5q31 25 70.5 57.5t82.5 32.5q37 0 62.5 -18t43 -45t24.5 -56.5t7 -50.5v-18v-57q0 -23 -12 -81.5t-27.5 -121 t-28 -116.5t-12.5 -68v-39q0 -12 -15 -38t-32.5 -64t-33 -89t-15.5 -117v-57v-57q16 -29 21.5 -61.5t36.5 -73.5q16 -31 21 -70t17 -68q6 -37 9.5 -57t5.5 -36.5t2 -33v-45.5v-77q-6 -31 -22.5 -52.5t-36 -40t-40 -34t-32.5 -29.5q-29 -29 -65 -53.5t-48 -24.5l-57 -18h-39 q-18 0 -51 -8.5t-47 -8.5h-119q-29 0 -51.5 12.5t-41 30t-34 37t-27.5 33.5q-12 6 -26.5 21.5t-26.5 33t-19.5 35.5t-7.5 31v57zM-35 -608q0 -23 27.5 -41.5t62.5 -32.5t69 -22.5t46 -8.5q20 0 46 15.5t47.5 40t35.5 53.5t14 57v80q0 8 -3 40t-13 65.5t-27.5 61.5t-48.5 28 q-29 0 -53.5 -17.5t-52.5 -46.5q0 -8 -23.5 -29.5t-51.5 -55.5t-51.5 -81t-23.5 -106zM262 410q10 -33 19 -58q8 -23 18 -39t20 -16l29 27q16 57 31 106q10 41 20.5 81t10.5 52q0 10 -1 29.5t-7.5 38t-18.5 33t-35 14.5t-38 -23.5t-26.5 -54.5t-16.5 -59.5t-5 -38.5v-92z " />
<glyph unicode="h" horiz-adv-x="768" d="M51 115v192q0 8 12.5 55.5t27.5 105.5t27.5 113.5t12.5 84.5q6 16 9 30.5t7 26.5q4 14 7 29v57q0 8 1 13t11 9q0 4 2 8.5t2 8.5v41q0 6 6 27.5t14.5 48t14.5 53t6 41.5v125q0 59 15.5 106t23.5 76l6 57q2 14 15.5 44t29.5 61t32.5 57.5t24.5 32.5q12 6 17.5 22.5t10.5 35 t14.5 36t31.5 25.5q4 0 12.5 1t16.5 5q4 4 12 4h16q16 16 48 34.5t65 35.5q37 18 82 32q43 0 71.5 -22.5t47 -53t27 -63.5t8.5 -53q0 -16 -25 -45t-53 -58q-35 -35 -76 -73q-14 -14 -30.5 -16.5t-32.5 -2.5q-23 0 -40.5 -3t-33.5 -19q-43 -25 -67.5 -62t-41.5 -80 q0 -8 -5 -28.5t-12 -43t-12.5 -43t-5.5 -28.5l-22 -90q-2 -6 -11.5 -45t-19.5 -88t-18 -96.5t-8 -67.5q0 -8 2 -16q4 -16 16 -17q25 0 59.5 31t77.5 59q12 12 35 33t47.5 40.5t48 32.5t39.5 13h35q39 0 59.5 -35t29.5 -78t11 -80.5t2 -43.5l-6 -70q0 -12 3 -51t3 -68 q0 -6 -3 -15t-7 -20q-4 -10 -8 -22v-39q0 -27 -5 -36t-5 -38q-10 -33 -23 -47q-14 -12 -21 -30.5t-20 -30.5q-8 -31 -26.5 -72t-46.5 -72q-14 -14 -26.5 -39.5t-26 -51t-33 -44t-46.5 -18.5h-22h-74q-6 0 -22.5 1t-32.5 6t-28.5 16t-12.5 34q0 14 11 34.5t24.5 40t28 37 t20.5 25.5q31 25 57.5 51.5t40.5 38.5q41 31 50.5 60.5t23.5 60.5q29 55 45 91t16 79v80q0 8 -4 24.5t-14 32t-25.5 27.5t-35.5 12q-12 0 -19.5 -11t-36.5 -28q-74 -55 -117 -119.5t-77 -136.5q-12 -43 -20.5 -91t-16.5 -96t-16.5 -93t-20.5 -84q-16 -27 -40 -42.5 t-40 -15.5q-31 0 -46 16.5t-23.5 39t-9.5 46t-1 36.5z" />
<glyph unicode="i" horiz-adv-x="495" d="M80 735v33q0 18 36 54t82 72t89 63.5t55 27.5q35 0 57.5 -25.5t22.5 -54.5l-19 -57q12 -12 17 -35q2 -10 2 -22q0 -41 -9.5 -76t-9.5 -78v-16q0 -10 -2 -23.5t-6 -26.5q-4 -14 -8 -30v-23q0 -23 -7 -37t-15 -37q-4 -16 -13.5 -33.5t-9.5 -39.5q0 -8 4 -21.5t12.5 -27 t19.5 -22.5t25 -9q16 0 29.5 10t22.5 23q10 10 21 17t26 7h39q12 0 14 -12t2 -29q0 -6 -18.5 -24.5t-41 -40t-45 -41t-30.5 -25.5q-6 -14 -26.5 -49t-45 -71t-52.5 -63.5t-48 -27.5q-14 0 -31.5 9.5t-32 24.5t-23.5 31.5t-9 32.5v33q0 16 -2 28.5t-15 12.5v39l17 57v97 q0 31 8 49t8 47v18q0 14 9 41t19.5 57.5t19.5 60.5t9 52q0 16 -13 36t-44 20q-12 0 -21.5 -8.5t-52.5 -8.5q-4 2 -8 11q-8 12 -8 30zM281 1262q4 24 4 43q0 55 18 89.5t45 73.5q8 0 21.5 3.5t28 6.5t27.5 6t19 3q29 -10 37 -35t25 -51q0 -16 3 -32.5t3 -31.5q0 -12 -8 -29.5 t-8 -43.5q-4 -14 -11.5 -35t-18.5 -38q-10 -17 -26 -29q-12 -9 -27 -8q-5 0 -10 1q-29 0 -62.5 19.5t-49.5 50.5q-11 9 -11 26q0 6 1 11z" />
<glyph unicode="j" horiz-adv-x="450" d="M-518 -582q0 4 7 17.5t17.5 31t21.5 34t17 26.5q4 8 20.5 23.5t36 31t41 26.5t33.5 11h39q6 -6 15 -12q14 -10 20 -10l51 -13q4 0 14.5 -3t21.5 -6t20.5 -5t11.5 -2q16 0 23.5 -6t11.5 -6q16 0 36.5 9t40 22.5t40 28.5t36.5 26q16 10 34 51t31 90t22.5 93t9.5 61l34 245 q0 2 5.5 29t12.5 65.5t16 84t18 83.5v23q0 20 6 39l4 18q0 20 18 45q4 29 10.5 54.5t6.5 42.5q0 10 -1 22t-5.5 22.5t-13.5 17.5t-25 7q-14 0 -41 -17.5t-58 -17.5q-8 0 -17 11.5t-9 27.5q0 14 -3 17.5t-3 7.5q0 18 42 56t95 76t103 66.5t67 28.5q27 0 45 -22.5t18 -50.5 l-6 -70q2 -6 4 -15.5t4 -17.5t2 -18q0 -35 -11 -74t-11 -74v-28q0 -4 -3 -15.5t-6 -24t-5.5 -22.5t-2.5 -12v-23q0 -39 -14 -68.5t-14 -68.5q0 -8 -3 -29.5t-6.5 -45t-7.5 -46t-6 -33.5q-4 -16 -13.5 -59t-21.5 -94q0 -10 -3 -24.5t-6 -27t-5 -22.5t-2 -12q-2 -41 -6 -61.5 t-7 -33t-6.5 -20.5t-3.5 -22q0 -6 -8 -33t-19 -59.5t-23.5 -63.5t-22.5 -43q-18 -29 -44 -59.5t-42 -65.5q-12 -8 -38 -35.5t-56.5 -57.5t-63.5 -53.5t-59 -23.5q-2 0 -12.5 -2t-21.5 -4t-21.5 -4t-12.5 -2q-6 -4 -12 -6q-12 -4 -17 -4h-28q-23 0 -34 -6.5t-46 -6.5 q-4 0 -30.5 3t-49.5 3q-12 2 -21.5 4.5t-13.5 2.5h-10q-6 0 -27.5 4t-44 13t-41 24.5t-18.5 35.5zM352 1280q0 43 5 79t36 71q12 12 19.5 22t38.5 10h16q29 0 37 12.5t26 12.5q25 0 51.5 -16.5t26.5 -40.5q0 -47 -14 -77t-31 -73q-6 -14 -13 -34.5t-16.5 -39t-20.5 -32 t-24 -13.5h-63q-29 0 -35 3t-16 20q-16 16 -19.5 50t-3.5 46z" />
<glyph unicode="k" horiz-adv-x="899" d="M-16 45q0 35 23.5 56.5t53 47t54 65.5t26.5 110q4 31 3 49t3 49q0 16 3.5 29.5t19.5 27.5l6 215q0 43 3 60.5t3 31.5q12 29 17.5 47.5t5.5 49.5v73q4 16 14 45t14 58l23 137q16 111 58 209t89 207q8 18 21.5 47t33 56.5t45 50t60.5 28.5q16 0 30.5 6t27.5 10 q16 10 32.5 16.5t30.5 6.5q31 -2 60.5 -12.5t52 -27.5t33 -43t1.5 -58q0 -16 -1 -21.5t-5 -19.5q0 -6 -6 -24.5t-15 -38t-19.5 -35t-16.5 -15.5q-39 -29 -83 -45t-84 -34.5t-70.5 -45.5t-41.5 -76l-16 -39q-35 -72 -55.5 -144.5t-36.5 -139.5v-41q-16 -41 -27.5 -73 t-11.5 -58q-2 -8 -1 -21.5t6 -26t12.5 -21.5t15.5 -9q12 -2 33.5 20.5t49 50t61.5 49.5q31 21 67 21h6q27 -2 51.5 -26.5t41.5 -54t27.5 -56.5t10.5 -33q-2 -31 -20.5 -66.5t-40 -70.5t-39 -66.5t-19.5 -52.5q0 -25 9.5 -66.5t27.5 -82.5t46 -72t65 -31q12 -2 21 7.5 t17.5 22.5t16.5 29.5t18 26.5q23 12 37.5 37t36.5 25h19q8 -2 11 -12.5t3 -22.5t-2 -23.5t-2 -15.5q0 -10 -14.5 -41t-36 -69.5t-48 -80.5t-52 -77t-45.5 -57q-19 -21 -30 -21h-2q-45 0 -75.5 26.5t-53 63.5t-38 78t-27.5 72q-6 20 -18.5 56t-31 69.5t-44 60.5t-60.5 29 q-14 0 -24.5 -14.5t-16.5 -33t-9 -37t-5 -24.5v-61v-12q1 -45 27 -64q30 -21 69 -33q35 -9 63 -31q24 -19 24 -64q0 -6 -1 -13q0 -14 -9 -25.5t-21.5 -19t-25.5 -10.5t-20 -3q-16 4 -50 14.5t-46 14.5h-57q-31 0 -55 10q-12 6 -25 12q-12 0 -27.5 -11t-27.5 -11q-16 2 -39 2 t-44.5 4t-35.5 14q-12 8 -12 26v5zM336 582q0 -10 1 -24.5t5 -27t15.5 -20.5t29.5 -8h4q17 0 38 13q24 15 43.5 39t32.5 50.5t13 44.5q0 23 -16.5 40.5t-28.5 17.5h-11q-51 0 -85 -33q-37 -37 -41 -92z" />
<glyph unicode="l" horiz-adv-x="614" d="M127 -28q-1 6 -1 12q0 10 2 24q3 22 3 55v132q0 29 11.5 57.5t11.5 54.5v41q0 -16 4 15.5t10 94t10 148.5t4 180q0 12 11.5 36t11.5 38v74q12 59 18 116.5t12.5 113t16.5 111.5t33 114q16 55 53 106t65 111q14 27 32 49t44 37q29 47 79 74.5t97 27.5h154q59 0 74.5 -37 t15.5 -84v-39q0 -29 -18.5 -61.5t-45 -60t-56 -47t-50.5 -19.5q-27 0 -45 8t-35 8q-43 0 -89 -26.5t-58 -85.5q-16 -31 -15.5 -54.5t-7.5 -48.5q-18 -43 -37.5 -111.5t-19.5 -127.5q0 -6 -3 -20.5t-7 -31.5q-4 -18 -9 -38v-64l-28 -166q2 -13 2 -27q0 -17 -3 -39 q-5 -38 -15.5 -87.5t-20.5 -106.5t-14 -121q0 -12 5 -39.5t19 -27.5q18 0 40 12t42.5 30.5t42 39t39.5 36.5q39 39 80 71t80 32l12 -17q0 -23 -12.5 -52.5t-30.5 -60t-40.5 -57t-43.5 -41.5q-41 -29 -66.5 -69.5t-68.5 -83.5q-14 -31 -44 -50.5t-59 -35.5 q-31 -12 -74.5 -31.5t-74.5 -19.5q-23 0 -32 7.5t-11 21.5z" />
<glyph unicode="m" horiz-adv-x="1269" d="M68 649q0 29 17 54.5t40 25.5q27 29 55.5 56.5t59.5 39.5q6 6 27.5 26.5t48 42t53.5 39t41 17.5q31 0 38 -21.5t4 -51t-9.5 -60.5t-4.5 -49v-57q0 -6 2 -21.5t10.5 -27t23.5 -13.5t44 17q10 8 30.5 33.5t44 57t49.5 67.5t48.5 65t41 48t26.5 19q31 0 54.5 -15t40.5 -37.5 t26.5 -46t9.5 -38.5l-12 -51q0 -6 -2.5 -22.5t1 -30t11.5 -17.5t31 13q12 10 42.5 47t67.5 75.5t76 69.5t70 31q41 0 60 -25.5t19 -54.5q0 -6 -4 -23.5t-10 -37t-10 -38t-4 -26.5v-41q0 -31 -18.5 -87t-40 -119.5t-39 -123t-17.5 -96.5q0 -10 -2 -25.5t0 -26.5t12 -13t35 14 q10 6 32.5 22.5t44.5 27.5q24 11 40 10q15 -1 14 -25v-6q-37 -45 -69 -82q-29 -33 -58 -65t-43 -48q-31 -23 -49 -43t-33.5 -37.5t-34 -28t-49.5 -10.5q-23 0 -37 13.5t-24 30t-14.5 33.5t-4.5 26q0 57 15.5 109t36 99.5t39 93.5t24.5 91q0 8 2 20.5t6 24.5q4 14 8 29 q0 14 -2 38.5t-9 46t-19.5 35t-30.5 5.5q-41 -14 -71.5 -68.5t-57.5 -127.5t-49.5 -154t-45 -148.5t-46 -112.5t-49.5 -45q-14 0 -34 6t-38.5 15.5t-30.5 19.5t-12 17v13q0 44 12 87q14 49 31.5 92t33 79t15.5 64v17q0 39 29 108q8 27 20 51.5t8 40.5q0 25 -22.5 40.5 t-34.5 5.5q-35 -10 -63.5 -42t-50 -68t-37 -67.5t-21.5 -44.5q-29 -43 -43 -84t-31 -75q0 -4 -10 -47t-30.5 -92.5t-52.5 -89.5t-77 -40q-12 0 -23.5 9.5t-18.5 22.5t-11 26.5t-4 21.5q0 12 -9.5 29.5t3.5 44.5q8 16 28.5 77.5t42.5 134.5q20 73 36 141q14 60 14 90v7 q0 12 8 24.5t8 27.5q0 29 -5 45t-34 16q-12 0 -23.5 -8t-23.5 -19.5t-27.5 -19.5t-40.5 -8q-14 0 -26 8q-6 4 -8 8z" />
<glyph unicode="n" horiz-adv-x="911" d="M79 658q7 24 7 36q51 72 99 126t116 98q14 8 38.5 20t47.5 12t35 -14t22 -31q6 -14 4 -38.5t-7 -49t-10 -47t-5 -31.5l6 -32l23 -41q8 0 31.5 23.5t55 58t66.5 74.5t68 75t59.5 58.5t38.5 23.5q16 0 27.5 -20.5t21.5 -43.5q10 -27 19 -61v-15q0 -26 -4 -65 q-6 -51 -19.5 -111.5t-29 -123t-28.5 -114.5t-22.5 -87t-9.5 -37q0 -8 -2 -19.5t-2 -20.5t5 -15t22 -6l24 16q10 8 22.5 16.5t26.5 18.5q35 23 65 42t38 19q12 0 26.5 -13t14.5 -26q0 -4 -13.5 -22.5t-32 -39t-37 -36.5t-26.5 -16q0 -16 -11 -30.5t-24 -14.5 q-33 -35 -55 -68t-45 -60.5t-49.5 -44t-67.5 -16.5q-14 0 -29.5 10.5t-27.5 25.5t-19.5 32.5t-7.5 29.5l-6 74q12 55 31.5 118.5t36.5 119.5q16 47 26.5 90t14.5 82v22q-8 57 -41 58q-49 0 -78 -21.5t-47.5 -55.5t-31.5 -73t-30 -74q-10 -12 -13 -23t1 -28q-4 -25 -9 -49 t-13 -47q-23 -66 -43.5 -130.5t-36.5 -119.5q10 -16 -3.5 -19t-25.5 -3t-34.5 1t-44 7t-39 18.5t-19.5 34.5q-1 9 -1 18q0 27 9 55q12 38 27.5 70.5t30 57t14.5 33.5v34v39l-11 35q0 12 8.5 31.5t17.5 39t17.5 36t8.5 24.5v29l-7 80q0 12 -3 25.5t-19 13.5q-12 0 -27.5 -6.5 t-31 -13.5t-28.5 -13t-22 -6h-16q-9 5 -9 18q0 5 2 13z" />
<glyph unicode="o" d="M63 348v7q0 57 29 136q31 84 73 165t84 143.5t64 77.5q23 14 38.5 31.5t29.5 31.5t29.5 23.5t40.5 9.5q29 0 70.5 -2t70.5 -15q31 0 40 -24.5t23 -54.5q8 -8 19.5 -22.5t21 -30t15.5 -32t6 -28.5l-17 -182q0 -57 -24.5 -127t-71.5 -125q-16 -16 -23.5 -36t-14.5 -40.5 t-16 -42t-26 -41.5q-12 -14 -27.5 -34.5t-33 -42t-36.5 -39t-40 -25.5q-31 -16 -51.5 -28.5t-36.5 -21t-33.5 -11.5t-38.5 -3q-31 0 -57.5 14.5t-46 38t-31.5 53t-12 60.5v137q0 12 -8.5 22.5t-8.5 57.5zM211 319q8 -6 14 -24.5t15.5 -36.5t21.5 -32.5t35 -14.5q41 18 76 37 q29 16 56.5 34.5t37.5 36.5q12 29 27.5 68t29.5 74q-4 16 9.5 32.5t13.5 30.5v58q0 10 -5 35.5t-16.5 53t-28 48t-36.5 20.5q-33 0 -67 -27.5t-62.5 -63.5t-51 -71.5t-30.5 -52.5l-21 -78q-8 -29 -13 -55t-5 -33v-39z" />
<glyph unicode="p" horiz-adv-x="706" d="M-279 -889q2 25 15.5 36t32 16.5t38 5.5h33.5q8 6 19.5 9t20.5 8t16.5 12t7.5 22q6 14 13 38.5t13.5 47t11.5 42t7 25.5v19q0 8 6 42t16 70q8 43 23 97q4 12 10 22q4 10 8 19.5t4 15.5q0 14 3.5 48t3.5 112l22 57l23 131l6 57q0 6 6 19.5t14 30t14.5 35t6.5 34.5 q2 29 3 53.5t3 47.5t4 47q6 29 14 55q6 23 12.5 45.5t14.5 36.5l4 115q0 39 -39 39q-16 0 -31.5 -14.5t-36.5 -31.5q-45 -45 -69 -45q-10 2 -12 5.5t-5 7.5q-2 4 0 10q0 41 27 75t53 72q31 57 74 110.5t88 108t85 110.5t67 122q10 4 18 8q21 8 37 8q6 0 21.5 -7t31 -18.5 t27.5 -25.5t12 -29q-18 -45 -35 -83q-14 -35 -28.5 -69t-22.5 -52q-6 -8 -22.5 -34t-35 -55.5t-31.5 -58t-13 -41.5l18 -28q20 0 62.5 41t89.5 90t92 90t74 41q31 0 47 -32t25.5 -71t11.5 -73.5t2 -40.5q0 -12 -9.5 -48t-13.5 -65q-8 -6 -8 -13t2 -12q2 -6 6 -10 q-2 -23 -17.5 -64.5t-34 -82.5t-34.5 -75t-22 -40q-23 -35 -48.5 -61.5t-54.5 -51.5q-29 -27 -69.5 -52t-67.5 -68q-31 -29 -64.5 -49.5t-62.5 -44t-45 -53.5q-12 -22 -12 -52q0 -11 2 -23v-41q-2 -29 -6.5 -48t-9.5 -40.5t-9 -48t-4 -71.5q-2 -37 -5 -57.5t-8 -33 t-9.5 -20.5t-6.5 -21v-43.5t-4 -70.5v-45q0 -43 21.5 -50.5t52.5 -7.5h39q31 0 52.5 -27.5t21.5 -58.5q0 -12 -15.5 -24t-40.5 -27q-31 0 -62 -19q-26 -15 -60 -15q-7 0 -15 1h-80q-43 -10 -88 -13t-88 -15q-23 2 -34 0t-20 -6.5t-18.5 -8.5t-23.5 -4q-12 2 -23.5 12.5 t-18.5 23.5t-11.5 25.5t-4.5 18.5zM272 250q0 -16 7.5 -36.5t50.5 -25.5q12 0 35.5 16.5t46.5 39.5q27 25 55 57q16 10 30.5 25.5t32.5 31.5q12 27 14.5 36t2.5 38q0 6 -2 15.5t-4 19.5q-4 10 -6 22v41v21.5t-2.5 31t-9.5 29t-21 15.5q-16 0 -40 -14.5t-47.5 -34t-40 -37 t-16.5 -23.5q-29 -59 -46 -107.5t-40 -103.5v-57z" />
<glyph unicode="q" d="M-80 -973v7q0 23 10 42q13 23 32.5 38.5t43 23.5t45.5 8h39q20 2 51 12.5t59.5 27.5t49 39.5t22.5 51.5v57q0 8 4.5 28t10.5 40q6 23 14 51q2 49 0 61.5t-4 12.5t-2 -2t6 20q4 29 16.5 47.5t12.5 49.5q0 43 16 85t29 85q0 6 4 22t10 33.5t10 34t4 24.5v23q0 12 7.5 40.5 t16.5 59.5t16.5 56.5t7.5 31.5l4 62q0 6 3 18t6 24.5t1 21.5t-10 9q-6 0 -29 -23.5t-53.5 -60t-67.5 -77.5t-69.5 -78t-58 -60.5t-36.5 -23.5q-35 0 -56.5 30.5t-33.5 70.5t-17 81t-5 64v55q16 31 21 69.5t18 67.5q31 70 78 154t81 170q4 20 19.5 44.5t36 47t41 40 t34.5 23.5q12 0 28.5 11.5t29.5 11.5q12 12 38.5 14t34.5 2q25 8 38.5 18.5t22.5 18.5t18.5 14.5t23.5 6.5h35h22q6 0 20.5 -11.5t30.5 -25.5q18 -16 39 -37v-23l-16 -114v-17q0 -23 -8 -51.5t-21 -56.5q-8 -27 -18 -56.5t-10 -52.5v-16l-17 -137l-16 -103l-6 -57l-19 -35 v-61q-4 -14 -15 -38t-11 -36v-41q0 -6 -7.5 -38t-16.5 -70t-17.5 -74.5t-10.5 -51.5l-6 -57q0 -25 -9 -68t-13 -102l-13 -96l-10 -64q0 -33 2 -48t3 -24.5t3 -18.5t2 -27q0 -25 11.5 -33t28 -11.5t36 -7.5t38 -16t30.5 -40t16 -81q0 -16 -11 -19t-30 -3q-12 0 -38.5 17 t-57.5 17q-18 -2 -42 -3t-45.5 -2t-39.5 -1h-27q-12 -2 -28.5 -16t-37 -29.5t-45 -30t-52.5 -16.5h-41q-12 0 -40 -12t-57 -17h-34q-35 0 -69 22.5t-34 53.5zM205 250q4 -16 12 -29q4 -10 11.5 -18t11.5 -8q8 0 41.5 35.5t74.5 85t79 99.5t54 81q0 6 5.5 30.5t12.5 54t12 54 t5 31.5q0 14 -5 27.5t-36 13.5h-22l-62 -35q-25 0 -48 -21.5t-45.5 -54.5t-40 -74t-32 -78.5t-21.5 -68.5t-7 -45v-80z" />
<glyph unicode="r" horiz-adv-x="735" d="M90 666q-1 5 -1 10q0 14 7 26q10 18 27.5 33t40 30t41.5 32q25 27 43 58.5t36.5 59t42 47t60.5 23.5q7 1 12 1q13 0 18 -7q7 -10 34 -23q23 -12 39 -28.5t16 -38.5q-2 -10 -4 -23q-4 -27 4 -51q0 -18 -7 -44t-3 -42q4 -8 12 -16q6 -6 13 -11.5t14 -1.5q20 4 43.5 39 t46 78t45 84t41.5 55l63 17q12 4 27.5 2t23.5 -2q39 -23 49.5 -63t14.5 -62v-5q1 -28 -19 -71q-22 -47 -55 -78q-14 -8 -26.5 -13t-24.5 -9q-10 0 -15.5 1t-13.5 5q-10 4 -19 5t-22 1q-27 0 -50 -20.5t-46 -42.5q-35 -43 -54.5 -97.5t-19.5 -101.5q-14 -14 -33.5 -35.5 t-29.5 -50.5q-12 -29 -11 -59.5t-12 -59.5q2 -25 0 -56.5t-7 -66.5t-13 -66.5t-19 -56.5q-14 -10 -34.5 -18t-42.5 -12q-25 -6 -54 -9q-10 0 -26 17q-8 8 -15 16l-28 58q-2 14 4 48.5t14 70.5t15.5 65t7.5 33q45 68 59 142.5t31 147.5l-17 136q-10 27 -25.5 26.5t-31.5 -4.5 q-33 -6 -47 -17.5t-24.5 -23.5t-22.5 -23.5t-43 -15.5q-16 0 -20.5 20.5t-8.5 37.5z" />
<glyph unicode="s" horiz-adv-x="557" d="M-80 16q0 14 18.5 45t46 60t58.5 51.5t53 22.5q6 0 20.5 -9.5t34 -19.5t44 -19.5t55.5 -9.5q20 0 37.5 12.5t30 30t18.5 37t6 33.5q0 35 -26.5 85t-59.5 102t-59.5 99.5t-26.5 77.5v23q8 35 24.5 71.5t37 67.5t45 54.5t53.5 29.5q14 8 29.5 26.5t27.5 35.5 q16 16 29.5 31.5t27.5 19.5q16 14 51 16t52 1h45q31 0 55.5 -28t24.5 -57q0 -23 -33 -38t-74 -28.5t-81 -25.5t-52 -27q-18 -18 -26.5 -41.5t-8.5 -48t8.5 -47t20.5 -41.5q14 -29 33.5 -60.5t36 -72.5t28 -92t11.5 -115q0 -55 -37 -111.5t-95 -99.5q-45 -25 -69.5 -40 t-43 -24t-35.5 -12.5t-44 -3.5h-74q-10 0 -26.5 -2t-32.5 -6q-20 -4 -43 -8h-12h-46q-57 0 -57 55z" />
<glyph unicode="t" horiz-adv-x="512" d="M102 154v96q0 8 5.5 37.5t12.5 65.5t12 72t5 58v35q16 47 31 84q10 33 20.5 60.5t10.5 31.5v64q0 27 -17 33q-12 10 -26.5 20t-14.5 27q0 12 9.5 25.5t22.5 27.5t26.5 29.5t21.5 29.5q14 31 27.5 38t30.5 20q27 31 57.5 51t56.5 63q16 29 24.5 57.5t37.5 45.5 q27 8 47.5 31.5t32.5 23.5q18 0 35.5 -1t32.5 -6t24.5 -16.5t9.5 -31.5q0 -12 -28.5 -46t-62.5 -74t-62.5 -78t-28.5 -58q0 -16 9 -24.5t21.5 -11.5t25.5 -4t19 -1h68q4 4 12 10q16 12 27 12q31 0 44 -24.5t13 -55.5v-16v-39q0 -23 -24.5 -35t-54 -18t-57.5 -8t-34 -2 q-31 0 -35 3t-16 3h-41q-12 0 -34.5 -12.5t-22.5 -28.5q0 -23 -2 -40.5t-4 -29.5q-2 -14 -4 -26q-6 -12 -13 -23q-10 -20 -10 -35v-22q0 -35 -10 -76t-19 -49q-10 -10 -16 -19.5t-6 -48.5v-41q0 -12 4 -29.5t14 -32t24.5 -24.5t37.5 -10q27 0 45 14q8 6 16 15 q16 0 25.5 -9.5t17.5 -19.5q8 -12 14 -29q0 -16 -13 -42.5t-31.5 -52.5t-39 -45t-34.5 -19t-27.5 -24t-13.5 -34q-6 0 -22.5 -4t-33.5 -8q-20 -6 -41 -10q-27 0 -42 3t-15 19q-6 4 -18.5 29.5t-24.5 56.5t-21.5 60.5t-9.5 42.5z" />
<glyph unicode="u" horiz-adv-x="933" d="M39 637q0 25 12 38t29.5 22.5t34 18.5t22.5 23q27 20 64 58.5t75.5 75t74.5 63.5t65 27h39q18 0 26 -20.5t8 -37.5q-37 -129 -65 -235q-12 -45 -24.5 -89t-21.5 -81t-14.5 -62.5t-5.5 -34.5q0 -14 -5 -46.5t0 -60.5t27 -37q4 -2 10 -2q22 0 65 28q4 10 26.5 26.5 t48.5 40.5q16 16 20.5 33.5t12.5 17.5q0 16 14.5 31t14.5 27q4 14 22.5 53t40.5 94q18 39 35 84t29 88t19 79t7 59t10.5 35t26 18t31.5 7t29 1h47q25 0 40 -24.5t15 -55.5q0 -6 -5 -38t-12 -72.5t-17.5 -83.5t-20.5 -72q-43 -92 -84 -183.5t-41 -177.5q0 -10 8 -22 q4 -6 8 -10q27 0 54.5 16t49 34.5t38 35t22.5 16.5t13.5 -6t13.5 -12q8 -8 14 -17q0 -8 -19.5 -39.5t-45 -67.5t-49 -67t-29.5 -37q-20 -14 -35.5 -25.5t-28 -22.5t-26 -26.5t-29.5 -37.5q-27 -27 -55.5 -37t-59.5 -10q-14 0 -27.5 9t-23.5 22.5t-16 28.5t-6 26v34v23 q8 25 16 49q6 20 12 43t6 39q0 12 -3 25.5t-19 13.5q-12 0 -28.5 -15.5t-33 -35t-31 -38t-22.5 -24.5q-12 -16 -45 -50t-69.5 -67.5t-70.5 -60.5t-48 -27q-12 0 -24.5 11.5t-22 27t-15.5 30.5t-6 22v57q0 16 2 33q2 14 3 28.5t1 24.5q0 12 5 33.5t5 50.5q0 27 7.5 55.5 t11.5 42.5l16 78q4 14 21.5 49t17.5 94q0 29 2 40.5t-24 11.5q-12 0 -25.5 -4.5t-36.5 -12.5q-16 -10 -32.5 -16t-24.5 -6q-12 0 -26.5 15t-14.5 40z" />
<glyph unicode="v" horiz-adv-x="815" d="M6 717q0 27 19.5 53.5t37.5 26.5q29 27 56.5 52t62.5 40q6 8 21.5 24.5t35 32t39 27.5t35.5 12q27 0 39.5 -18.5t15.5 -43t3 -49t4 -36.5l35 -99q8 -35 17 -58.5t16.5 -45t12.5 -45t5 -55.5l12 -91q0 -31 3 -46t7 -27q4 -10 9.5 -31t13.5 -21q10 0 20.5 20.5t20.5 25.5 q12 12 34.5 28.5t22.5 38.5q0 27 22.5 52.5t22.5 39.5q0 29 -3 50.5t-3 62.5q0 12 -9 28.5t-21.5 32t-21.5 31.5t-9 29q0 27 5 38t13 18t18.5 17.5t18.5 38.5q10 43 36.5 67t65.5 54q31 -14 38 -27.5t20 -29.5q31 -39 41 -65.5t10 -65.5v-80q0 -10 3 -16.5t3 -34.5 q0 -39 -10 -72t-35 -76q0 -12 -3 -16t-6 -6t-6 -6t-3 -17q-12 -14 -21 -26q-8 -10 -13 -22.5t-5 -20.5q0 -6 -9.5 -16.5t-19.5 -24t-19.5 -27.5t-9.5 -29q-23 -29 -40 -47t-33.5 -35.5t-35 -37t-38.5 -46.5q-29 -35 -48.5 -70.5t-40 -65t-47 -49t-69.5 -19.5q-14 0 -24.5 4 t-10.5 30l17 97q-12 27 -14.5 44t-2.5 29q0 43 3 76t3 62q0 27 -4 47t-10 38.5t-10 35t-4 38.5q0 6 -10.5 38t-21.5 70t-21.5 71.5t-10.5 42.5q0 27 -30.5 42t-59.5 15q-16 0 -23.5 -4t-14.5 -10.5t-18.5 -10.5t-35.5 -4q-12 0 -23 11q-6 6 -10 12z" />
<glyph unicode="w" horiz-adv-x="1228" d="M-12 688q0 27 20.5 51.5t36.5 24.5q31 29 49.5 47t46.5 31q6 8 27.5 30.5t47.5 44t51.5 39t39.5 17.5q31 0 44.5 -21.5t17.5 -51.5t3 -59.5t-1 -43.5v-58q2 -20 4 -31.5t4 -21.5t4 -24.5t4 -40.5q0 -39 3 -64t20 -51q4 -16 2 -33.5t-4 -32t1 -22.5t17 -8q31 0 41 13 t22 28q23 29 52.5 67.5t40.5 67.5q6 31 6 48t-2 30.5t-3 27t3 31.5v6q0 14 -1 20.5t-4 8.5t-9.5 3t-18.5 7h-29q-16 0 -26 14q-6 6 -9 15q-4 14 6.5 28.5t27 23.5t36 15t33.5 6q14 18 25.5 24.5t20.5 9.5t18.5 5t21.5 9q12 16 41 30.5t55 14.5q39 -10 38 -38t-15 -71v-23 q0 -12 2 -26t16 -14q14 2 46 28.5t69 57t71.5 55t57.5 24.5q31 0 60.5 -10t56 -25.5t47 -37t30.5 -41.5q19 -29 25 -69q2 -16 3 -32q0 -23 -5 -47l-70 -205q-8 -35 -37.5 -65.5t-52.5 -65.5q-27 -39 -59.5 -80.5t-71.5 -82.5q-18 -23 -30.5 -33t-23.5 -19.5t-25.5 -23 t-35.5 -39.5q-10 -16 -31.5 -36.5t-46 -39t-51 -31t-47.5 -12.5q-43 0 -71.5 13.5t-24.5 41.5q8 31 9 46.5t1 27.5l13 35q-5 43 -13 77q-4 18 -4 37t4 40q6 28 6 50q0 15 -3 27q-7 30 -19 31q-35 0 -67.5 -44t-63.5 -87q-16 -27 -16.5 -43t-18.5 -43q-16 -35 -33.5 -55.5 t-21.5 -46.5q-10 -14 -19.5 -32t-19.5 -32t-24.5 -23.5t-35.5 -9.5q-14 0 -31.5 4.5t-30.5 12.5t-21.5 19t-6.5 28q12 45 20 77q5 21 4 55q0 18 -1 38q1 39 -7 75q-3 16 -4 33q0 21 5 45l6 68q-2 27 -3 40t-2 24.5t-2 22.5t-3 34q-4 12 -5.5 21.5t-3.5 13.5q-2 6 -4 10v51v6 q0 27 -19.5 39t-47.5 12q-12 0 -19.5 -5t-15.5 -12t-20.5 -12t-36.5 -5q-14 0 -25 10q-6 6 -10 12zM793 588q2 -20 7 -41t10 -45.5t5 -57.5q-4 -16 -4 -43.5t4 -54.5t14.5 -47t24.5 -20q25 0 54.5 20t56 49t46 59.5t25.5 53.5q8 43 12 73q3 18 3 33q0 11 -1 21 q-3 26 -15.5 52t-33.5 60q-8 16 -37.5 27.5t-58.5 11.5q-12 0 -30.5 -10t-35 -25.5t-28.5 -34t-14 -32.5q-4 -22 -5 -39q1 -5 1 -10z" />
<glyph unicode="x" horiz-adv-x="1048" d="M35 96q0 20 3 32.5t9 22t16.5 17.5t22.5 20q29 29 39 54.5t41 25.5q20 0 35.5 -15t32 -33.5t36 -34t49.5 -15.5q14 0 26.5 9t24 22.5t19.5 27t14 21.5q43 27 79 75t36 107v47v39q0 29 3 51.5t-25 38.5q-16 20 -27.5 35.5t-23 27t-25.5 20.5t-33 20q-29 18 -48.5 21 t-53.5 3q-4 6 -10.5 3t-14.5 -9l-16 -12t-17 -6q-25 0 -41 16t-16 41q0 39 14.5 72.5t38 59.5t56 41t69.5 15q53 0 113 -34q31 0 60.5 -17.5t41.5 -34.5q31 -25 44.5 -39t13.5 -40q12 -29 28.5 -54.5t44.5 -25.5q12 0 17.5 22.5t23.5 34.5q25 43 50.5 87t84.5 73 q27 27 38.5 36t35.5 9q47 0 67.5 -7.5t47.5 -21.5q35 -41 57.5 -75.5t22.5 -77.5q0 -29 -20.5 -45.5t-37.5 -34.5q-8 -20 -11 -34.5t-7 -23t-13.5 -12.5t-29.5 -4q-25 0 -41 14.5t-30.5 31.5t-30 31.5t-35.5 14.5q-25 0 -48.5 -15.5t-42 -35t-29.5 -41t-11 -33.5 q0 -31 17 -54.5t17 -47.5v-58q0 -16 2.5 -24t2.5 -21q0 -14 3 -24t3 -27q0 -23 7 -35t17 -21t21.5 -18.5t17.5 -23.5q12 -29 27.5 -47.5t56.5 -32.5q14 -6 32.5 -8t35 -6t27 -14.5t10.5 -32.5q0 -55 -28 -93.5t-87 -38.5q-12 0 -17.5 -6t-23.5 -6q-12 0 -27.5 6t-27.5 6 q-31 0 -50.5 10.5t-36 27t-31.5 38t-36 43.5q-14 10 -27.5 16.5t-13.5 41.5q-8 12 -15 20t-12.5 15.5t-8.5 15.5t-3 22q0 31 -7 52.5t-15 21.5q-2 0 -12.5 -8t-21.5 -20.5t-20.5 -24.5t-9.5 -21q-12 -29 -14 -36t-2 -21t-7.5 -22.5t-16.5 -15.5t-18 -15t-16 -21 q-43 -59 -93 -89t-140 -30q-6 -4 -12 -6q-12 -6 -29 -6q-4 2 -10 6q-4 2 -12.5 4t-16.5 2q-43 0 -69.5 36t-26.5 83z" />
<glyph unicode="y" horiz-adv-x="921" d="M-717 -713q0 29 18.5 55.5t45 48t55.5 34t51 12.5q23 0 50.5 -12.5t58.5 -28.5q39 -16 70.5 -33.5t54.5 -17.5l67 -11q20 14 46 18.5t51.5 8.5t50 11t47.5 30q43 12 86 42t84 73q14 12 34.5 39.5t34.5 56.5q29 29 56.5 67.5t40.5 69.5q20 20 41.5 51t37 65t25.5 68.5 t10 65.5v35v45q4 20 9 39q4 16 6 31.5t2 25.5q0 14 -8.5 21.5t-8.5 35.5v17q-6 6 -10 14q-8 16 -8 27v16q0 37 -14.5 79t-37 82t-54 73.5t-64.5 56.5q-16 16 -21.5 8t-19.5 -8h-16h-45l-35 -16q-16 0 -39 13t-23 42q0 6 24.5 37t56.5 66.5t60.5 67.5t34.5 40q16 16 42 28.5 t55 12.5q43 0 63.5 -27.5t50.5 -70.5q29 -59 47.5 -104.5t32.5 -88.5q6 -35 14.5 -58.5t15.5 -44t10 -41t-1 -51.5q-4 -14 1 -32.5t14.5 -35t21.5 -27.5t20 -11q12 0 25.5 26.5t26 60.5t22.5 67.5t17 50.5q16 23 28.5 42t24.5 36.5t27.5 35t39.5 39.5q16 23 23.5 49.5 t15.5 53.5q4 25 12.5 49t22.5 41q16 31 32.5 55.5t47.5 24.5q41 0 60.5 -24.5t19.5 -55.5l-25 -137v-33q0 -23 -4 -46.5t-16 -44t-33.5 -33.5t-58.5 -13q-16 0 -21 -13q-2 -6 -2 -10q-29 -29 -42 -56.5t-22.5 -55t-18.5 -54t-25 -51.5q-12 -12 -23.5 -27.5t-11.5 -46.5 q-12 -20 -21 -39q-10 -16 -18 -30.5t-12 -20.5q-8 -25 -16.5 -38t-17.5 -27.5t-19.5 -30.5t-20.5 -47q-8 -23 -15.5 -35t-12.5 -22.5t-9 -20.5t-8 -25l-17 -45q-10 -16 -14 -25t-27 -32q-23 -29 -40 -53.5t-17 -36.5q-33 -82 -119 -178q-39 -51 -70.5 -96.5t-60.5 -61.5 q-143 -86 -227 -178q-14 -4 -42 -18.5t-56 -30.5q-35 -18 -74 -41h-23q-12 0 -36.5 -11.5t-36.5 -11.5h-62q-10 0 -35.5 11.5t-40.5 11.5q-6 0 -19 -4t-28 -9q-16 -6 -32 -10q-25 0 -44.5 15.5t-46.5 42.5q-16 0 -41.5 14t-37.5 31q0 4 -3.5 18t-6.5 32.5t-5 36t-2 25.5z " />
<glyph unicode="z" horiz-adv-x="1132" d="M51 154q0 31 7.5 62.5t50.5 74.5q14 8 35.5 13t44 7t45 2h38.5q43 35 84 48.5t70 25.5q47 47 94 85t94 85q14 31 36 49.5t22 30.5q0 18 -10.5 29.5t-23.5 17.5t-26.5 8t-19.5 2h-17q-12 4 -22 11q-10 4 -21.5 8t-19.5 4q-10 0 -29.5 3t-42.5 7q-25 6 -53 12 q-47 0 -79 -28.5t-61.5 -62.5t-64.5 -62.5t-86 -28.5q-16 0 -19 14.5t-3 26.5v23q0 53 42 115.5t105.5 116.5t136 90t131.5 36h64q8 0 30.5 -17.5t49.5 -39.5q20 -16 36.5 -27.5t24.5 -11.5q10 -10 21.5 -11.5t23.5 -1.5q10 0 18.5 -2t16.5 -14q10 0 22.5 -4t28.5 -8 q12 -8 27.5 -15.5t24.5 -7.5q27 0 50 7.5t46 15.5q23 4 43 8t43 4q47 0 55 -24.5t8 -71.5v-41q0 -43 -30.5 -63.5t-71.5 -32.5q-47 -16 -94 -21.5t-88 -17.5q-16 -10 -28.5 -24.5t-27 -30t-31 -29t-40.5 -19.5q-23 -16 -42.5 -34.5t-39 -39t-42 -40t-52.5 -35.5 q0 -6 -7.5 -11.5t-15.5 -9.5t-15.5 -10t-7.5 -14q0 -6 33 -30t75 -48.5t82 -45t56 -20.5q6 -6 18.5 -7t24.5 1q14 2 31 6q45 0 71.5 20.5t48 45t45 45t62.5 20.5q29 0 46.5 -7t17.5 -54q-8 -49 -17 -90q-8 -35 -20 -68t-27 -41q-47 -35 -93 -52t-105 -34h-64l-51 6l-16 -4 t-17.5 -2h-17.5q-63 49 -125 90q-53 35 -112.5 68t-104.5 47h-45q-29 0 -47.5 -10t-34 -21.5t-28.5 -21.5t-28 -10q-47 0 -71.5 25.5t-24.5 60.5z" />
<glyph unicode="{" horiz-adv-x="716" d="M96 621q0 25 16.5 44t38 37.5t44 37t32.5 40.5q31 45 46.5 65.5t23.5 37t9 41t1 77.5q0 25 1 31t2 9t2 8.5t1 25.5q8 35 10.5 74t6.5 86q0 27 -9.5 62.5t-35.5 39.5q-10 6 -16.5 9.5t-10.5 5.5t-11 3t-20 5q-23 14 -35 35.5t3 44.5q10 39 27.5 53t38 22.5t43 17.5 t44.5 38q33 18 69 40.5t72.5 42t73.5 30t74 2.5q18 -8 19 -28t-8 -42.5t-24.5 -47t-25.5 -42.5q-2 -12 -10 -21.5t-17.5 -18.5t-19.5 -20.5t-16 -25.5q-12 -39 -16.5 -62.5t-16.5 -62.5v-80q8 -29 7 -38t-13 -36q0 -8 -8.5 -20.5t-8.5 -24.5q-2 -16 -2 -18t1 -5t2 -13.5 t-1 -43.5v-205q0 -31 -20.5 -64.5t-20.5 -55.5q0 -25 17.5 -65t17.5 -83q-2 -104 -3 -154.5t-1 -64.5t-1 -5t-1 23.5t1 22.5t3 -8.5t5 -68.5t7 -161v-124q0 -10 1 -29t2 -37t2 -34.5t1 -24.5q0 -35 34 -73t71 -69.5t60.5 -55.5t4.5 -30q-29 -43 -70.5 -43t-76.5 25 q-51 14 -89 22.5t-68.5 18.5t-57.5 27.5t-57 52.5q-16 29 -31.5 45t-3.5 45q8 25 13 36t13.5 16t19.5 5h34q20 8 27 20.5t7 31t-3 43t-3 59.5q0 47 -4 87t-8 111q2 20 2 27.5v11.5t1 11.5t3 29.5q0 31 -1 40t-2 17.5t-2 24t-1 55.5q0 31 -12.5 67t-38.5 36q-16 0 -25.5 -5 t-25.5 -5q-10 0 -27.5 1t-34 5t-29 12t-12.5 21z" />
<glyph unicode="|" horiz-adv-x="598" d="M115 1571q0 27 13 39t30.5 14t37 0t31.5 -2q35 0 59.5 2t55.5 -6q29 0 62.5 8t50.5 8q18 0 23 -16t5 -29q0 -25 -11 -40t-25.5 -29.5t-25.5 -26.5t-11 -31v-78v-262v-415v-308l6 -348l-4 -45q-2 -18 -2 -34.5v-22.5q8 -63 18 -86t21.5 -34t25.5 -26.5t31 -64.5 q0 -12 -2 -21q-4 -18 -21 -18h-39h-28q-10 0 -18.5 2t-18.5 6t-21 8q-16 0 -33.5 -2t-33.5 -6q-18 -4 -35 -8h-16h-58q-6 0 -15 5t-17.5 14.5t-12.5 23.5t0 31q2 10 11.5 22t20.5 24.5t20.5 26t9.5 29.5v113v80v387q0 8 -1 25.5t-1 34.5t-1 32.5t-1 21.5l4 97v415v58v284 q0 12 -3 32t-14 36q-16 14 -41.5 34.5t-25.5 45.5z" />
<glyph unicode="}" horiz-adv-x="716" d="M55 1667.5q0 18.5 19 28.5q37 8 73.5 -1t73.5 -27.5t73 -42t71 -42.5q20 -31 43.5 -40t44 -16t38 -19.5t27.5 -49.5q12 -31 0 -53.5t-29 -38.5q-14 -4 -21 -5t-12 -3t-11.5 -3t-18.5 -5q-25 -10 -35 -43t-10 -54q4 -53 7 -92t15 -67v-183q0 -53 1.5 -64t8.5 -11 t22.5 -5.5t43.5 -50.5q14 -16 38 -25.5t47.5 -18.5t40 -22.5t16.5 -35.5q0 -12 -8.5 -30.5t-21.5 -34t-28.5 -27t-27.5 -11.5t-36 8.5t-38 8.5q-27 0 -39 -36t-12 -67q0 -41 -1 -56t-2 -23.5t-2.5 -17.5t-1.5 -40q2 -23 3.5 -30t3.5 -12t3 -12t3 -30q-4 -74 -8.5 -113.5 t-4.5 -86.5q0 -68 10.5 -93.5t18.5 -42.5q25 -16 37 -20t18.5 -8t11.5 -12.5t13 -28.5q6 -16 5 -28.5t-6 -22t-14.5 -18.5t-17.5 -21q-61 -33 -93 -50.5t-55.5 -29.5t-49 -21.5t-76.5 -23.5q-35 -27 -77 -24t-71 46q-18 4 5.5 26.5t60.5 54.5t70.5 69t33.5 71q0 8 1 25.5 t2 37t2 37t1 25.5v125q2 63 -1 109.5t-4 83.5t2 68.5t16 70.5q0 18 10 47t23.5 58.5t23.5 56.5t10 43q0 10 -10 22.5t-24.5 28.5t-28.5 41t-23 61l6 113q-4 59 0.5 106.5t-0.5 75.5q0 14 -8 24.5t-8 27.5q-14 23 -15 29.5t9 33.5v86q-10 39 -14 62.5t-15 62.5 q-16 29 -39.5 43t-27.5 37q-10 20 -25.5 45t-25 48.5t-9.5 42z" />
<glyph unicode="~" horiz-adv-x="1394" d="M154 324v34q0 33 8 55.5t8 65.5q0 47 23.5 83t62.5 59q12 0 22.5 2t22.5 14q27 14 43 32.5t43 18.5q39 0 67.5 -2t63.5 -14q12 0 25.5 -2t25.5 -15q27 0 51.5 -11t51.5 -23q35 -23 81 -54.5t85 -48.5q39 -10 75.5 -11t71.5 -1q12 0 33.5 1t34.5 11q12 8 20 21.5t12.5 28 t8.5 28.5t10 25q14 12 21.5 35.5t7.5 50.5q0 12 -5.5 17t-5.5 28q0 43 29 66.5t68 23.5q27 0 49 -10.5t37 -22.5q25 -16 39 -28.5t22 -28.5q14 -10 16 -32t2 -48q0 -59 -20.5 -111.5t-58.5 -81.5q-14 -18 -26.5 -39.5t-25.5 -36.5q-53 -35 -129.5 -65.5t-150.5 -30.5 q-57 0 -106.5 15.5t-95.5 37t-91 44t-94 34.5q-25 0 -49.5 8.5t-47.5 8.5q-66 0 -118 -16.5t-99 -63.5q-12 -6 -19 -15.5t-13.5 -16.5t-14.5 -13t-20 -6h-51z" />
<glyph unicode="&#xa1;" horiz-adv-x="512" d="M-57 -621q10 25 18 50q8 23 17.5 46t15.5 46q8 6 15 24.5t13.5 39t9.5 41t3 32.5q12 23 24 49q10 23 20.5 54.5t16.5 68.5q0 39 15.5 98.5t25.5 106.5q4 29 16.5 60.5t16.5 58.5q4 39 7 56t5 26.5t5 17.5t8 31q2 18 5 33.5t6 32t7 34.5t8 47q4 4 5 12.5t1 16.5 q4 16 -8 25.5t-8 25.5q0 10 17.5 28.5t21.5 22.5q10 12 28.5 21.5t39 14.5t42 3t39.5 -10q-4 -8 -4 -21.5t1 -26t1 -23.5t-4 -15l-35 -279l-16 -211l-12 -182q0 -12 -2 -23.5t2 -21.5h28q16 16 33 13t31 -7q10 -6 10 -14v-8q0 -23 -6 -35t-15.5 -22.5t-23.5 -24t-29 -33.5 q-37 -49 -71.5 -85t-68.5 -73t-64.5 -81t-57.5 -107q-12 -6 -22 -10t-20.5 -6.5t-18.5 -2.5q-6 0 -21.5 8.5t-31 20.5t-27.5 27.5t-12 29.5zM211 1001q0 23 16.5 28.5t28.5 19.5t20.5 23t16.5 17.5t19.5 15.5t29.5 17q8 4 14 11.5t12.5 15.5t13.5 13t17 5q16 0 26.5 -8 t18 -22.5t15.5 -30.5t20 -31q25 -29 51.5 -60.5t26.5 -58.5q-4 -23 -27.5 -48t-40.5 -54q-16 -23 -31.5 -40t-41.5 -17q-23 0 -32 16t-26 29q-23 14 -31 22t-20 25q-16 29 -24.5 34t-36.5 21q-14 10 -24.5 25.5t-10.5 31.5z" />
<glyph unicode="&#xa2;" horiz-adv-x="722" d="M86 461q8 55 18.5 89t14.5 77l18 51l4 33q0 8 8.5 35.5t20.5 59.5t23.5 62.5t17.5 49.5q0 12 14.5 29.5t32.5 33.5t38.5 27.5t33.5 11.5q14 4 17 6t3 5t2 7t19 11q39 4 75.5 11t71.5 11q0 8 1 19.5t5 19.5q23 66 34 117t11 94q8 2 24.5 11t34 20.5t34 20.5t22.5 11 q8 0 15.5 -10t11.5 -18q10 -35 5 -51.5t-5 -47.5q-12 -29 -20.5 -49t-12.5 -47q-2 -8 -5 -21.5t-6 -25.5t-7.5 -20.5t-10.5 -6.5q0 -10 -4 -14t-8 -14q43 -8 74.5 -39t27.5 -86q0 -23 -9 -44.5t-23.5 -38.5t-32 -27.5t-31.5 -8.5q-25 0 -43 19q-8 8 -18 20h-7 q-12 -33 -23 -69.5t-21.5 -70.5t-20.5 -62.5t-21 -43.5q4 -10 -4 -44t-21 -72.5t-27.5 -73.5t-20.5 -43q4 -8 4 -24.5t-4 -26.5q55 27 106 53t86 26q31 -4 35 -16t0 -29q-2 -25 -22.5 -51t-49 -48.5t-59.5 -43t-51 -33.5q-29 -16 -56.5 -32.5t-56.5 -30.5q-4 -8 -6 -10.5 t-6 -12.5q-12 -55 -33.5 -105t-34.5 -116q-31 -23 -59.5 -28t-38.5 -1l6 17q4 43 5 75.5t18 49.5q4 23 13 46t9 40l6 12h-39q-27 4 -44 31.5t-28.5 62.5t-15.5 70t-4 51v12q2 6 1 24.5t-4 41t-5 45t-2 37.5zM250 489q0 -16 2 -44.5t8 -57.5t15.5 -51.5t21.5 -28.5 q8 25 19.5 62t22.5 71.5t18.5 61.5t7.5 33q12 18 22 59t19.5 88t22.5 90t32 66q-35 -10 -63.5 -20.5t-39.5 -20.5q-12 0 -15 -8.5t-7 -24.5l-29 -41q-6 -23 -12 -43q-10 -37 -10 -53l-6 -35l-11 -57q-2 -8 -6 -17q-4 -8 -7 -15t-5 -14z" />
<glyph unicode="&#xa3;" horiz-adv-x="1144" d="M74 35q0 8 5 28.5t17 32.5q14 14 43 28.5t56.5 28t50 30t26.5 34.5q-2 14 -2 27q-2 10 -2 18v10v80q0 4 2 14.5t2 14.5v98l19 84q-18 4 -35 0q-8 -2 -16 -6q-23 2 -37.5 2t-27.5 -3t-28.5 -8t-37.5 -13q0 14 -13.5 23t-9.5 24q0 4 8 16t21.5 27.5t30 32t30.5 26.5 q27 8 59.5 9t71.5 1q8 39 13.5 76t11.5 73t16 72.5t27 75.5q18 43 53 99.5t61 115.5q16 27 35 52.5t45 39.5q29 43 79 70t97 27h154q55 0 73.5 -36t18.5 -79v-45q0 -29 -18.5 -60.5t-46 -60.5t-57 -47t-50.5 -18q-25 0 -43 8t-37 8q-20 0 -43.5 -8t-44 -22.5t-37 -34 t-22.5 -44.5q-16 -23 -15 -37t-14 -36q-12 -31 -29.5 -74t-21.5 -86q10 4 24.5 0t26.5 0q0 6 10.5 9t24.5 4t28.5 1t22.5 -2q29 0 50.5 8.5t52.5 8.5q20 -4 34.5 -5.5t25.5 -1.5t23.5 -1t30.5 -5q16 -16 32.5 -34.5t6.5 -26.5q-2 -6 -15 -20.5t-28.5 -31t-29 -34 t-17.5 -29.5q-47 4 -94 9.5t-113 9.5h-119v-25v-61q0 -4 6.5 -16.5t10.5 -12.5v-57q0 -4 -2 -14.5t-2 -14.5v-33q0 -4 -6.5 -17.5t-6.5 -17.5q0 -16 2.5 -36.5t9.5 -41t22.5 -34t39.5 -13.5q2 0 13.5 1t23.5 4q14 2 33 6l78 6q37 4 75.5 24.5t71.5 44t55.5 44t26.5 24.5 q23 12 38 28.5t42 16.5q29 0 37 -20.5t8 -36.5q0 -14 -13.5 -54t-37 -88.5t-55 -98.5t-70.5 -83q-14 -10 -29.5 -12t-28.5 -10q-2 -2 -23.5 -3t-48 -2.5t-48 -1.5h-23.5q-8 0 -12 3q-6 2 -10 4q-18 0 -31.5 3t-27 8t-31 8t-46.5 3q-4 0 -14 3t-33 3q-29 -2 -51 -4 q-23 -2 -43 -2h-31q-55 0 -100 -11t-88 -11q-6 -2 -14 -2q-6 0 -14.5 -1t-16.5 3q-23 4 -37 16t-14 35z" />
<glyph unicode="&#xa4;" horiz-adv-x="1161" d="M23 371q0 12 10 35.5t35 37.5q35 8 55 13.5t43 9.5q0 14 10 35v45q-35 0 -59.5 3t-59.5 -9q8 12 -7 19t-15 22q4 12 32.5 35.5t57.5 48.5q10 0 20.5 1t20.5 5l16 57l23 23v34q20 33 43 60q16 23 35.5 44t29.5 32q8 37 42 67.5t81 56t103.5 48t109.5 45.5q33 4 62 8 q25 4 47 6t33 2h143l86 23q43 0 62.5 -13.5t25.5 -32t4 -39t-2 -34.5v-39q-10 -23 -17.5 -45.5t-18.5 -41t-30.5 -29.5t-52.5 -11q-18 0 -40.5 12.5t-48 27.5t-53.5 27.5t-58 12.5q-150 0 -251.5 -73t-123.5 -193h67q16 4 35 8q33 6 57 14q6 6 20.5 9t31 4t34 0t27.5 -3 q20 4 30.5 14.5t45.5 10.5q23 0 37 1t25.5 1h22.5t28 -2q16 -23 35.5 -34t15.5 -23q0 -6 -13.5 -19.5t-30 -28t-30.5 -30t-16 -25.5q-47 -4 -87 -4t-114 4q-51 -10 -116.5 -15t-104.5 -14v-63v-29q8 0 24.5 3t26.5 3l96 7q27 -4 56.5 6t64.5 -6q37 31 119 22q-2 -4 -4 -10 q-2 -4 -2 -11.5v-13.5t-6.5 -20t-18.5 -31.5t-29.5 -34t-42.5 -26.5h-46.5t-78.5 4q-8 2 -25.5 2t-37.5 -1t-40.5 -2t-33.5 -3q12 -39 36 -76t57.5 -65.5t78.5 -48t101 -21.5l53 16q68 0 106.5 19.5t85.5 54.5q14 10 21.5 18t12.5 15.5t12.5 14.5t21.5 15q39 16 80 17 q6 -4 14 -11q4 -4 9.5 -12t5.5 -16q0 -43 -38 -96.5t-92.5 -99.5t-113 -76.5t-98.5 -30.5h-27q-41 -6 -76 -13q-29 -4 -57.5 -7t-38.5 -3q-23 0 -66 14.5t-87 34t-80.5 41t-45.5 35.5q-10 6 -28.5 38t-36 71t-30.5 76.5t-13 60.5l-23 12q-27 -4 -59.5 -1t-71.5 11z" />
<glyph unicode="&#xa5;" horiz-adv-x="1308" d="M23 1075q0 35 15 57.5t58 22.5h99q29 0 55 -11t41 -11h96q6 0 22.5 -2.5t36 -3.5t40 -3t32.5 -2h45q14 0 16.5 -3t2.5 -19t-12.5 -30.5t-26 -32t-25.5 -36t-12 -38.5q0 -23 22.5 -58t51.5 -69q33 -39 75 -84q0 -6 4.5 -18.5t9.5 -25t12 -21.5t13 -9q14 0 28.5 20.5t27 47 t22.5 50t19 29.5q0 8 12 28.5t27.5 44.5t27.5 47.5t12 39.5q0 12 -16 20.5t-34.5 19.5t-35 27.5t-16.5 47.5q0 8 9 14t22.5 10t27 6.5t21.5 2.5q12 -4 22 -7q10 -2 19.5 -3t15.5 -1h39q31 8 53.5 9.5t77.5 1.5q20 0 33.5 3t23 8t19.5 8t27 3q12 0 31.5 -4t38 -9t31.5 -10.5 t13 -9.5q0 -47 -26.5 -74.5t-69.5 -27.5h-63q-29 0 -43.5 -10.5t-23.5 -25.5t-13 -36.5t-11 -42.5q-10 -12 -18 -24.5t-23 -20.5q-8 -14 -19 -26.5t-19 -24.5q-14 -16 -33 -58t-41 -85q8 -4 16 -5.5t13 -5.5q20 8 41.5 17.5t48.5 5.5q18 -2 28.5 -2t17.5 1t15 0t25 -5 q16 -16 26 -31.5t6 -26.5q-2 -6 -12 -16t-23.5 -21.5t-25.5 -23.5t-16 -23q-43 4 -81 5.5t-98 5.5h-22q-8 -35 -15.5 -65t-7.5 -54v-12h17q20 -4 46.5 5t55.5 -12q23 10 47.5 17.5t67.5 -4.5l-4 -8q-2 -4 -5 -9.5t-8 -11.5q-2 -4 -7 -18.5t-15 -32t-26.5 -33.5t-43.5 -24 q-16 4 -44.5 6t-63.5 12h-27v-6q0 -6 2 -28.5t6 -47.5t10.5 -43t14.5 -18q14 -6 59 -14.5t93.5 -18.5t85 -26.5t36.5 -37.5q0 -10 -2 -18q-4 -16 -20 -16q-10 -8 -10 -14.5t1 -11.5t0 -11t-10 -15q-16 0 -38.5 -8t-51.5 -8q-14 0 -43.5 -6t-58.5 -6h-137q-16 0 -33 2 q-14 2 -31.5 5t-32.5 11h-92q-35 0 -51 -9t-51 -9h-35q-37 0 -64.5 -2t-48 1t-31 15t-10.5 43q0 29 33 54.5t76 25.5l102 35q12 0 29.5 7t31 17.5t19.5 24.5t0 31l-10 90q-23 0 -54.5 -6.5t-54.5 -6.5t-55.5 4.5t-75.5 8.5l-28 12q2 6 6 18.5t10 24.5t15.5 22.5t19.5 12.5 q51 10 102 19t103 9v19q0 16 4 33.5t8 33.5q0 14 10 35q-23 0 -42 -3t-32 -3q-18 2 -24 -4q-4 -4 -4 -8q-43 4 -72 5t-70 -15q0 8 -9 17t-9 22q2 2 8 12t15.5 22.5t21.5 26.5t25 25q25 0 64.5 1t82.5 5q-16 16 -36.5 30.5t-37.5 36.5q-14 31 -54 57.5t-83 57.5 q-12 29 -36.5 59.5t-37.5 59.5q-12 10 -26 14t-31 14q-39 10 -80 17q-35 14 -54 37.5t-19 64.5z" />
<glyph unicode="&#xa6;" horiz-adv-x="454" d="M119 1327q12 6 26.5 20.5t26.5 30t22.5 30.5t16.5 22q23 8 61 -13q18 -25 16.5 -44t8.5 -52q4 -31 -2 -53.5t-10 -48.5q12 -16 18 -46t-6 -40q-4 -12 -5 -25.5t-3 -24.5l-4 -24q0 -29 4 -43.5t12 -30.5q-10 -31 -12 -59.5t-1 -55t2 -52t-5 -50.5q-6 -16 -18.5 -36.5 t-26 -38t-25.5 -32t-16 -18.5q-12 -8 -21.5 1t-17.5 -1q6 31 4 52.5t-5 41t-4 40t5 48.5q0 70 -1 136.5t-5 148.5q-12 66 -21.5 118t-13.5 99zM154 336q6 25 20 46t30.5 37.5t31 28t20.5 13.5q8 4 16.5 7t14.5 7q8 2 14 4q10 -35 7 -59.5t-11 -48.5q10 -10 9 -23.5t-4 -27 t-6 -26.5t1 -22l4 -61q0 -43 8 -76t4 -55q0 -66 -9 -124t-19 -126q-10 -23 -41 -41t-45 -29v23q-12 39 -22.5 72.5t-6.5 58.5q-4 16 3 43t3 49q4 43 -3 77t-3 58q10 23 7 53.5t-7 45.5q-12 39 -14 59t-2 37z" />
<glyph unicode="&#xa7;" horiz-adv-x="1126" d="M-51 -342q0 18 15.5 39.5t37 40t47 30t47.5 11.5q35 0 41 -5t10 -20q18 -59 45 -86.5t53.5 -39t51.5 -14.5t39 -13q27 0 40 3t23 3q20 0 27.5 -3t11.5 -3q23 0 44.5 10t29.5 18l45 35q0 16 17.5 39t17.5 57v74q-23 45 -34 66.5t-20.5 33t-18.5 21.5t-23 33q-8 8 -34 25.5 t-60.5 44t-72.5 61.5t-70 80t-52.5 99t-18.5 118q4 27 17.5 61.5t43.5 70.5t76 72.5t113 67.5q-14 12 -37.5 37t-47 58.5t-40 75.5t-16.5 91q0 86 48 153.5t114.5 115t138.5 72t119 24.5q10 0 19 -3t28 -3q16 0 29.5 3t25.5 3q76 -16 124 -38t76 -40t37 -31.5t9 -15.5v-45 q0 -35 -18.5 -69t-77.5 -34q-37 0 -51.5 22.5t-31 50.5t-50 51.5t-107.5 23.5q-18 0 -55 -12.5t-73 -36t-62.5 -58t-26.5 -82.5q0 -78 54.5 -132t140.5 -105q2 -20 31.5 -41t65.5 -43.5t65.5 -50t29.5 -60.5l23 -39q0 -18 6 -25t6 -22q0 -25 -6 -55.5t-10 -52.5l-7 -45 q-6 -23 -29.5 -52.5t-54 -58.5t-67.5 -55.5t-72 -44.5q4 -4 18.5 -28.5t28.5 -33.5l74 -96q2 -2 8 -17.5t13.5 -38t12.5 -51t5 -59.5q0 -49 -28.5 -92t-71.5 -79t-95.5 -65.5t-99.5 -49t-82 -32t-45 -12.5h-125q-45 0 -105.5 7.5t-115.5 29t-93 59.5t-38 97zM393 416 q0 -16 10.5 -29.5t22.5 -21.5l92 -97q12 -16 19.5 -25.5t37.5 -9.5q25 0 51.5 13.5t49 34t39 44t20.5 46.5q0 25 -18.5 53.5t-46 55t-57 50t-50.5 39.5q-51 -10 -98 -35.5t-62 -54.5z" />
<glyph unicode="&#xa8;" horiz-adv-x="1218" d="M233 1452q2 23 16.5 38t34 24.5t44 15.5t47.5 12q14 6 25.5 19.5t21.5 27t21.5 23.5t29.5 10q25 0 34 -28.5t23 -51.5q12 -25 27.5 -44t30 -38.5t24 -41t9.5 -52.5q0 -12 -10.5 -20.5t-25 -15.5t-29.5 -14t-26 -18q-12 -12 -19 -25t-13 -22.5t-15.5 -15.5t-27.5 -6 q-23 0 -37.5 11t-26.5 26.5t-26.5 33t-34.5 27.5q-16 10 -33.5 30.5t-32 40t-23 36t-8.5 18.5zM768 1462q0 18 16.5 24.5t30.5 22.5q29 29 59.5 48.5t69.5 41.5q10 4 16.5 13.5t12.5 17.5t12 14.5t16 6.5q18 0 29.5 -12.5t20 -30t16.5 -37t20 -33.5q12 -18 29 -28.5 t30 -21.5t22.5 -24.5t9.5 -33.5q0 -18 -11.5 -32t-27 -25t-31.5 -23.5t-27 -28.5q-12 -23 -26.5 -40t-40.5 -17q-27 0 -37 16t-33 29q-16 14 -33.5 19t-33.5 28q-16 29 -24.5 40t-37.5 27q-14 10 -30.5 14.5t-16.5 24.5z" />
<glyph unicode="&#xa9;" horiz-adv-x="1486" d="M102 614q0 27 4.5 44.5t10.5 36t14 39t16 52.5q0 29 12.5 62t28.5 63q0 8 20.5 42t49.5 72t61.5 67.5t55.5 29.5l69 39q27 0 48.5 2t48.5 15q45 29 92 28h106h47l80 -16h39q31 -10 58 -21q23 -10 43 -19t30 -17q29 -16 74 -28.5t74 -45.5q8 -6 17 -20.5t18.5 -31 t18.5 -30.5t15 -21q80 -66 102.5 -126t22.5 -107l-6 -148v-69q0 -23 -19.5 -73t-45 -103.5t-50 -99.5t-32.5 -60q-14 -47 -52 -77t-73 -42q-66 -51 -118 -91t-116 -40q-31 0 -55.5 6t-71.5 6h-90h-41q-16 0 -43.5 6.5t-52.5 16.5q-31 8 -61 22q-33 16 -66 31t-61.5 33 t-54 43t-42.5 63q-47 117 -86 237t-39 230zM272 621l13 -177q0 -43 36.5 -119.5t104.5 -154.5q59 -63 134 -108.5t134 -45.5h121q53 0 118.5 30t124 81t98.5 118.5t40 141.5q4 14 10 27q4 10 8.5 23.5t4.5 23.5l-23 223q0 53 -13.5 83t-36 57.5t-54 64.5t-68.5 102 q-18 14 -47 32.5t-61.5 34t-65.5 26t-64 10.5h-47q-20 0 -48.5 3t-57.5 7q-33 6 -70 12q-45 0 -94 -39t-90 -90t-67.5 -100t-26.5 -68zM483 475v14q0 14 2 27q2 10 3 23.5t1 23.5v29q0 6 -4 22q-2 6 -2 13l6 39l7 22q10 20 20 39q8 16 17.5 29.5t13.5 17.5q4 25 21.5 45.5 t42 36.5t53 30.5t53.5 31.5q14 2 26 4q10 2 21.5 4t15.5 2t9.5 -2t9.5 -4q6 -2 10 -4h45l45 10q16 0 25.5 -7.5t13.5 -18.5t5 -24.5t1 -23.5v-23q-8 -31 -27.5 -55t-46.5 -24q-23 0 -43 17t-47 17q-31 0 -56.5 -19t-45 -46t-30.5 -53.5t-11 -40.5v-35v-57q0 -12 5 -48 t16.5 -75t30 -69t46.5 -30q0 -4 4 -6t9.5 -3t15.5 3q25 0 61.5 11.5t63.5 33.5q8 14 26.5 19.5t40.5 9.5q12 4 18.5 -1t16.5 -9q0 -6 -2 -13q-4 -16 -10 -22q-12 -23 -34.5 -48.5t-47.5 -47t-50.5 -37t-43.5 -15.5l-29 -12q-18 -2 -35 -4q-14 -2 -26.5 -2h-18.5 q-8 0 -26.5 8t-38 20.5t-37 27t-23.5 24.5q-4 2 -16 22.5t-24.5 46t-22.5 52t-10 39.5l-7 34q-2 8 -4 17q-2 6 -2 14z" />
<glyph unicode="&#xaa;" horiz-adv-x="780" d="M74 -12q4 14 15 48t26 44q51 12 96 30.5t96 14.5q16 10 42 9t54 3h52q8 0 18 4t20.5 7.5t20.5 2.5t21 -14q14 12 34.5 21.5t44.5 1.5l-4 -13q-2 -6 -2 -22q-4 -6 -12 -23.5t-20.5 -36t-29 -36t-34.5 -23.5h-68q-14 4 -35.5 6t-43.5 -6q-16 -14 -45 -13t-58 1 q-16 0 -34.5 -11.5t-28.5 -11.5q-23 -8 -50.5 0.5t-58.5 12.5zM154 553l28 205q0 4 5.5 22.5t13.5 42t20 47t25 35.5q25 23 49 49.5t47 65.5q23 31 44.5 44t42 20.5t43 13.5t46.5 18q12 0 27.5 10.5t29.5 24.5h46h28l39 10q35 0 49.5 -20.5t14.5 -59.5q0 -6 -5.5 -28.5 t-11.5 -51t-14 -57.5t-14 -45q0 -12 -2.5 -26.5t-16.5 -41.5q-12 -12 -11 -36.5t1 -36.5l-6 -92v-62q0 -6 1 -18.5t4 -24.5t10 -21.5t20 -9.5l22 33q25 25 53 47q16 12 33 27q8 0 15.5 -7t7.5 -22q-2 -4 -7 -10q-4 -4 -7 -10t-5 -13q-12 -33 -31.5 -53t-43 -38.5t-48 -40 t-47.5 -56.5l-41 -45q0 -16 -8 -27.5t-20.5 -15.5t-24.5 2t-20 23q-12 31 -14.5 51t0.5 37.5t8.5 35t5.5 41.5v68l6 35q0 8 -13 8q-6 0 -10 -2q-6 0 -27.5 -30.5t-48 -70.5t-54.5 -80t-46 -59q-4 -4 -15.5 -15t-25.5 -22.5t-28.5 -20.5t-26.5 -9q-25 0 -40.5 17.5t-24.5 41 t-12 47t-3 35.5zM311 648.5q2 -25.5 12.5 -46t34.5 -20.5q25 0 54.5 41t55.5 91t44 93t18 47q0 10 1 38t-4 52.5t-19 36t-47 -11.5q-33 -25 -59.5 -58.5t-46 -68.5t-31 -66t-11.5 -47q0 -6 -2 -30.5t0 -50z" />
<glyph unicode="&#xab;" horiz-adv-x="802" d="M96 451q4 23 9.5 37t9.5 36q4 12 5 22.5t5 22.5t11 34t18 34q6 14 13 24.5t16.5 19.5t18.5 20.5t19 27.5q14 16 22.5 24.5t14.5 12.5t13.5 8t19.5 12q16 12 25.5 20.5t31.5 12.5q8 4 17.5 6t21.5 6q39 12 44 14.5t20 2.5q23 0 37 -8.5t14 -30.5q0 -16 -7.5 -30.5 t-15.5 -14.5q-2 -2 -6 -4t-12 -2q-23 -4 -29 -6t-22 -7q-29 -8 -41.5 -21t-38.5 -36q-25 -16 -41.5 -40.5t-25.5 -50.5t-12 -49.5t-5 -41.5q-2 -29 5 -57.5t20.5 -52t30.5 -39t34 -15.5q4 0 14 -12.5t15 -16.5q23 -12 27.5 -22t0.5 -41q-14 -51 -37.5 -73.5t-76.5 -22.5 q-25 0 -41.5 10t-38.5 24q-16 8 -31.5 15.5t-26.5 23.5q-8 16 -13 28.5t-9 35.5q-8 16 -12.5 27.5t-4.5 29.5q4 25 -5 54.5t-1 48.5zM467 451q4 23 8 37t8 36q4 12 6.5 22.5t6.5 22.5t11 34t17 34q6 14 13.5 24.5t15.5 19.5t18.5 20.5t20.5 27.5q14 16 25.5 24.5t20.5 12.5 t18.5 8t21.5 12q16 12 25.5 20.5t31.5 12.5q8 4 17.5 6t21.5 6q39 12 44 14.5t20 2.5q23 0 37 -8.5t14 -30.5q0 -16 -7.5 -30.5t-15.5 -14.5q-2 -2 -6 -4t-12 -2q-23 -4 -29 -6t-22 -7q-29 -8 -58.5 -18t-54.5 -33q-27 -16 -42 -40.5t-24.5 -50t-13.5 -50.5t-6 -41 q-2 -12 4 -36.5t17.5 -49.5t29 -43t35.5 -18q4 0 8 3t8 3q8 0 14.5 -6.5t20.5 -6.5q4 0 14.5 -3t14.5 -7q20 -14 25.5 -32.5t1.5 -47.5q-12 -53 -51.5 -83.5t-90.5 -30.5q-27 0 -37 10t-30 24q-18 8 -34 15.5t-24 23.5q-10 16 -14 28.5t-8 35.5q-10 16 -14.5 27.5t-4.5 29.5 q4 20 -3 34.5t-7 27.5q0 12 -5 21t-1 20z" />
<glyph unicode="&#xac;" horiz-adv-x="1429" d="M80 717q4 6 14 22.5t24.5 32.5t31 31.5t32.5 21.5q98 8 204 2t200 -2q31 0 86 -4t114 4l170 -6q14 -2 40 1t54.5 6t58.5 4t52 -5h92q20 23 49 24t25 -30q0 -18 -1 -50t-1 -63.5v-59.5t2 -38q4 -29 3 -68.5t-2 -79.5t-2 -73t1 -45q-8 -39 -16 -59.5t-15.5 -29.5t-13.5 -11 t-12 -2q-14 -10 -29 -15q-8 -4 -16 -4q-4 59 -7.5 95t7.5 71q-8 25 -8 53.5t3 58t6 54.5t-1 39v131q-4 0 -9.5 -3t-9.5 -3q-12 2 -44 1t-70.5 -2t-78.5 0t-69 7h-37.5t-60.5 -1t-65.5 -2t-51.5 -3q-35 -8 -89 -5t-122 -1q-12 2 -36.5 3t-50 1t-50.5 2t-39 6 q-16 -6 -43 -14.5t-59.5 -14.5t-68.5 -9t-69 -1q-6 4 -12 10q-10 10 -10 23z" />
<glyph unicode="&#xad;" horiz-adv-x="659" d="M96 324q0 14 17.5 53t40.5 61q16 12 35.5 19.5t40 13.5t41 13.5t42.5 21.5q12 0 23.5 1t34.5 11l16 8t16.5 7.5t18.5 7.5q4 16 26.5 18t34.5 -2q23 10 38.5 22.5t35.5 12.5q27 4 40 9t36 -3q12 -16 22.5 -30.5t10.5 -26.5q-2 -6 -11.5 -20.5t-20.5 -33t-19.5 -36 t-10.5 -29.5q-31 -10 -68.5 -9t-80.5 -10q-63 -16 -116.5 -33.5t-105.5 -33.5q-10 2 -14 -4q-2 -4 -2 -8q-18 -4 -30.5 -6.5t-24.5 -5.5t-26.5 -9t-33.5 -18q4 12 -3 17t-3 22z" />
<glyph unicode="&#xae;" horiz-adv-x="1480" d="M102 614q0 27 4.5 44.5t10.5 36t14 39t16 52.5q0 29 12.5 62t28.5 63q0 8 20.5 42t49.5 72t61.5 67.5t55.5 29.5l69 39q27 0 48.5 2t48.5 15q45 29 92 28h153l80 -16h39q31 -10 58 -21q23 -10 43 -19t30 -17q29 -16 74 -28.5t74 -45.5q8 -6 17 -20.5t18.5 -31t18.5 -30.5 t15 -21q80 -66 102.5 -126t22.5 -107l-6 -148v-69q0 -23 -19.5 -73t-45 -103.5t-50 -99.5t-32.5 -60q-14 -47 -52 -77t-73 -42q-66 -51 -118 -91t-116 -40q-31 0 -55.5 6t-71.5 6h-90h-41q-16 0 -43.5 6.5t-52.5 16.5q-31 8 -61 22q-33 16 -66 31t-61.5 33t-54 43t-42.5 63 q-47 117 -86 237t-39 230zM272 621l13 -177q0 -43 36.5 -119.5t104.5 -154.5q59 -63 134 -108.5t134 -45.5h121q39 0 83 14.5t87 40t81 61.5t67 79q-23 -4 -48.5 -4t-25.5 4q-8 4 -24.5 3t-20.5 7q-35 14 -49.5 26.5t-36.5 24.5q-12 4 -38 32t-48 54q-29 35 -43.5 66 t-34.5 43q-14 12 -22.5 23.5t-24.5 11.5q-12 0 -19.5 -9.5t-10.5 -22.5t-3 -26.5v-21.5l10 -57v-23q0 -33 17.5 -48t39 -24.5t40 -17.5t18.5 -25q0 -12 -7 -17t-16 -5h-47l-67 6h-154q-2 0 -19.5 3t-37 9t-35.5 14.5t-16 18.5t10 20l12 9q4 0 11.5 -2t13.5 -4q8 -4 16 -7h16 q23 0 40.5 12.5t17.5 28.5v324l10 86q-4 14 -5 31.5t-4 32t-11.5 24.5t-24.5 14h-51q-23 0 -48.5 14.5t-25.5 49.5q0 6 16 14q8 4 19 8l205 11h125h11t19 2q12 2 27 4h45q27 0 48.5 -17.5t37.5 -40.5q6 -23 33 -39q4 -4 11 -12t11 -22q2 0 6.5 -11.5t8.5 -26t7 -27.5t3 -15 q0 -39 -20.5 -81t-36.5 -73q-10 -12 -27.5 -18t-17.5 -33q0 -12 7 -33.5t18 -43t22.5 -39t19.5 -21.5q27 -20 50.5 -53t58.5 -43q8 -4 33.5 -7.5t33.5 -15.5q16 35 25.5 65.5t9.5 65.5q4 14 10 27q4 10 8.5 23.5t4.5 23.5l-23 223q0 53 -13.5 83t-36 57.5t-54 64.5 t-68.5 102q-18 14 -47 32.5t-61.5 34t-65.5 26t-64 10.5h-47q-20 0 -48.5 3t-57.5 7q-33 6 -70 12q-45 0 -94 -39t-90 -90t-67.5 -100t-26.5 -68zM672 637q2 0 6 -2q6 -6 6 -8q-4 -12 1 -24.5t14.5 -21t20.5 -13.5t19 -5q14 6 25 15q10 4 19.5 9t13.5 5l18 -10q18 0 29.5 12 t18.5 27.5t11.5 29t8.5 15.5l-13 41q0 8 -1 14t-9 18q0 10 -1 23.5t-11 23.5q-4 0 -18.5 3.5t-33 8.5t-35 8t-22.5 3q-4 0 -10 -2q-4 -2 -10 -4t-12 -6q-23 0 -23 -33v-98q0 -4 -6 -11.5t-6 -17.5z" />
<glyph unicode="&#xaf;" horiz-adv-x="1024" d="M211 1253q0 4 3 17.5t9 29t14.5 29.5t18.5 21q66 12 131.5 31.5t124.5 19.5q23 8 57.5 5t73.5 5h115q23 0 47 11.5t55 -5.5q23 14 46.5 20.5t62.5 2.5q-2 -2 -4 -8q-2 -4 -4.5 -10.5t-4.5 -14.5q0 -6 -3 -23.5t-10 -38t-20.5 -40t-33.5 -29.5q-23 4 -54.5 2t-70.5 2 q-10 2 -29.5 2t-41 -1t-42 -4t-30.5 -7q-23 -10 -56 -6t-76 -7q-23 4 -59.5 -5t-54.5 -5q-25 -10 -60.5 -7t-74.5 13h-29z" />
<glyph unicode="&#xb0;" horiz-adv-x="649" d="M68 791q-4 39 7 68.5t27 68.5q29 70 78.5 114.5t104.5 83.5q39 18 92 12.5t96 -5.5q25 -4 51.5 -28t38.5 -46q6 -10 11.5 -29.5t7.5 -40t3 -36t1 -19.5q-2 -68 -10.5 -124t-29 -99t-56 -75t-91.5 -50q-47 -29 -111.5 -32t-117.5 9q-8 4 -20.5 22.5t-24.5 22.5 q-23 10 -34 33t-16 48.5t-6 53t-1 48.5zM221 797q0 -16 11.5 -32.5t23.5 -29.5q23 -39 63 -47q8 -2 19.5 2t22 9.5t19.5 12.5t13 11q51 51 56.5 115.5t-50.5 124.5q-10 12 -23.5 15t-23.5 7q-12 4 -33.5 6t-33.5 -6q-18 -8 -26.5 -17.5t-11.5 -18.5t-5 -20t-9 -24 q0 -4 -8 -20.5t-4 -24.5q0 -16 1 -22.5t1 -9.5v-9t-2 -22z" />
<glyph unicode="&#xb1;" horiz-adv-x="927" d="M68 154q2 6 5 20t7 30.5t11 31t18 20.5q68 12 135 28.5t131 16.5q23 14 56.5 11t74.5 1l108 6q10 -2 22.5 2.5t25 7.5t26.5 3t29 -8q23 14 46 20t62 -2v-8q0 -4 -2 -9.5t-4 -11.5q0 -6 -3 -23.5t-12 -38t-23.5 -39.5t-35.5 -30q-16 4 -51 3t-73 3q-10 2 -30 2t-41.5 -1 t-39.5 -5t-27 -8q-23 -8 -58.5 -5t-82.5 -5q-6 2 -21.5 -1t-32 -6t-33.5 -5t-28 0q-23 -12 -55.5 -8t-75.5 8h-28zM124 650.5q1 19.5 1 43.5v50.5t29 23.5q39 0 86 -8t90 -8q16 0 33.5 11t17.5 34q0 27 -6 41t-13.5 24t-13.5 23.5t-6 42.5q0 39 28.5 45t67.5 6q14 0 30.5 6 t31 11t22.5 4t8 -15q0 -23 -3 -48.5t-3 -47.5q0 -18 -4 -35.5t-6 -31t4 -22.5t29 -14q12 -4 26.5 -2t34.5 2q43 0 80 5.5t80 5.5q23 0 26 -17.5t3 -40.5q0 -14 -2 -32.5t-6.5 -34t-13.5 -25.5t-23 -10q-51 0 -89 3t-94 3q-16 0 -20 4t-14 -10q-6 -10 -11.5 -15.5t-9.5 -8.5 t-6 -9t-2 -18q4 -20 3 -30.5t-2 -19t2 -18.5t15 -29q0 -23 4 -40t-22 -17q-14 0 -22.5 -1t-14.5 -2t-14.5 -2t-22.5 -1q-10 0 -27.5 -6t-34 -10t-28.5 -4t-12 10q0 25 7 44t15 38.5t15.5 39t7.5 44.5t-17.5 28.5t-44.5 3.5q-8 0 -26.5 -3t-39 -8t-39 -8t-26.5 -3 q-25 0 -37 6t-17 19.5t-4 33z" />
<glyph unicode="&#xb2;" horiz-adv-x="620" d="M47 1008.5q4 11.5 14.5 23.5t23.5 25.5t24 23.5q29 23 76.5 50.5t99.5 23.5h16q4 -4 12.5 -2t16.5 2q14 6 38.5 2t49 -14t46 -23.5t32.5 -25.5q27 -39 36 -62.5t9 -46.5q0 -12 -7.5 -35.5t-21.5 -50.5q0 -16 -9 -39.5t-20 -40.5q-4 -12 -24.5 -27.5t-36.5 -27.5 q-10 -14 -17.5 -19.5t-11.5 -9.5q-14 -18 -23.5 -35.5t-21.5 -40.5q-4 -8 -17.5 -23t-29.5 -32q-8 -14 -17.5 -26.5t-4.5 -24.5q23 4 40 4h33h51q10 0 29 15.5t41 31.5q25 8 47.5 18.5t48.5 10.5q20 0 18.5 -33t-16 -73t-31 -73.5t-22.5 -37.5q-23 -12 -59.5 -8t-65.5 14 q-20 4 -28 6l-17 4h-35q-23 0 -59.5 1t-71.5 5h-28q-23 -4 -35.5 -7t-22.5 7q-16 12 -29.5 37t-9.5 37q4 14 19.5 22.5t32.5 18.5l11 11t17 11q12 16 34 34t34 34q12 12 21.5 39t19.5 35q8 16 20.5 36.5t30.5 43.5q16 31 32.5 61.5t12.5 69.5q-10 43 -39 75.5t-63 32.5 q-27 0 -64 -41l-35 -32q-20 -16 -37.5 -9t-29.5 19q-4 2 -7.5 5t-7.5 7t-8 6q-8 6 -4 17.5z" />
<glyph unicode="&#xb3;" d="M51 506q0 10 9.5 13t13.5 16q8 12 18 25t22.5 19.5t29 2.5t38.5 -25q6 -8 20.5 -21.5t34 -25.5t42 -21.5t45.5 -9.5q10 0 24 4t27 19q14 12 27.5 33.5t13.5 50.5q0 47 -24.5 95t-67.5 64q-8 4 -26.5 11.5t-41.5 11.5h-23q-16 -4 -28 -2t-23 14q-10 12 -8 35t21 27 q8 0 23 3t32 3q31 0 66.5 10t64.5 53q4 8 5 22.5t1 29.5q0 23 -11 53.5t-34 25.5q-10 -4 -17.5 -2t-11.5 2q-6 0 -8 2l-4 5q-8 0 -17.5 -7.5t-21.5 -11.5l-6 -10q-8 -14 -22.5 -30.5t-38.5 -33.5q-31 -10 -58.5 -0.5t-27.5 52.5v16q0 4 -2 9.5t2 15.5q6 16 29.5 32.5 t56 29.5t69.5 22.5t72 11.5q16 8 35 0q29 0 38 2t17 -2q47 -10 84 -36t53 -56q20 -55 -4 -113.5t-63 -97.5q-4 -4 -25.5 -11.5t-38.5 -11.5q-12 -4 -14 -4h-8q-4 -4 6 -6t22 -6q35 -4 67 -13.5t52 -31.5q23 -27 37 -51.5t14 -47.5q4 -29 -6 -72.5t-33 -74.5 q-16 -23 -46.5 -39t-61.5 -29l-29 -12q-25 -8 -57.5 -12t-61.5 -4h-57q-12 0 -21.5 3t-13.5 3q-39 0 -61.5 6t-34.5 16q-23 4 -48.5 22.5t-25.5 39.5z" />
<glyph unicode="&#xb4;" horiz-adv-x="620" d="M479 1333q0 16 10.5 29.5t22.5 44.5q0 16 12.5 37.5t22.5 36.5q0 35 11 52t11 44q0 31 8.5 46t8.5 28q27 31 49 62.5t49 58.5q29 39 56.5 77.5t56.5 69.5q14 0 29.5 3t27.5 20q16 0 30.5 8t33.5 8q25 0 28.5 -22.5t3.5 -39.5v-34v-39q0 -29 -6 -46.5t-18.5 -32.5 t-29.5 -30.5t-42 -40.5q-29 -29 -48.5 -56.5t-47.5 -55.5q-14 -14 -18.5 -27.5t-16.5 -30.5q-14 -25 -28.5 -40t-27 -29.5t-24.5 -33t-22 -44.5q-4 -8 -11.5 -22.5t-16.5 -29t-20.5 -24.5t-25.5 -10q-27 0 -47.5 16.5t-20.5 46.5z" />
<glyph unicode="&#xb5;" horiz-adv-x="1196" d="M-4 -266.5q0 24.5 5 49t15 41.5q4 16 5.5 45t1.5 45q6 18 21 56t31.5 81t29 81t10.5 56q4 16 12 41t17.5 50.5t19.5 51t18 44.5q2 16 8 31q4 12 9.5 26t11.5 29q0 6 6 12q4 23 18.5 50.5t26.5 62.5q6 14 19.5 50t33 82t44 94t54 89t61.5 67.5t67 26.5h22q25 0 38 -13 t20.5 -31.5t9.5 -40t2 -40.5q0 -20 -17.5 -56t-42 -81t-55.5 -94t-55.5 -94t-42 -83t-17.5 -59q0 -47 21.5 -83.5t57.5 -56t83 -16.5t101 38q4 10 26.5 26.5t46.5 40.5q18 16 22.5 33.5t12.5 17.5q0 16 14.5 31t14.5 27q4 14 22.5 53t40.5 94q39 76 72 163t57 147 q18 41 56.5 57t64.5 16h45q27 0 42.5 -25.5t15.5 -54.5q0 -6 -14.5 -39.5t-33 -76.5t-38 -88t-29.5 -74q-20 -45 -37.5 -81t-31 -69.5t-20.5 -68.5t-7 -78v-74q-2 -25 7 -42t21.5 -29.5t25.5 -18.5t19 -6t18.5 -6t24.5 -15q14 -8 31 -20q0 -16 6 -28.5t6 -28.5 q0 -18 -1 -23.5t-5 -8.5t-13 -10.5t-26 -31.5q-27 -25 -64.5 -35t-66.5 -10q-16 0 -34.5 9t-35 22.5t-27.5 29t-11 25.5l-17 33v22q-16 18 -26 39q-10 16 -17.5 34.5t-7.5 35.5q0 14 -3 27.5t-21 13.5q-12 0 -26.5 -15.5t-29 -36t-27 -39t-20.5 -24.5q-12 -14 -43 -46 t-67.5 -64.5t-71.5 -57.5t-55 -25q-27 0 -62 17.5t-47 38.5q-8 20 -14 41q-14 39 -15 61q0 18 -7 34.5t-17 22t-21.5 -7t-21.5 -49.5q-16 -63 -31 -117q-12 -47 -23.5 -92t-15.5 -63q-4 -59 15.5 -90t41.5 -52q10 -18 33 -26t35 -37q2 -4 2 -21.5t-2 -37t-6 -39t-10 -27.5 q-8 -16 -26.5 -30.5t-41 -22.5t-46.5 -6t-40 18l-22 12q-31 12 -39.5 38t-24.5 42q-4 29 -14.5 55.5t-18.5 53.5q-6 14 -11 37.5t-5 48z" />
<glyph unicode="&#xb6;" horiz-adv-x="1400" d="M125 483l16 99v125q0 12 12.5 37.5t12.5 41.5q8 25 20 50q10 23 23.5 46t30.5 46q6 14 23.5 35.5t41 40t50 32t48.5 13.5l41 4q16 0 39 3t44.5 8t39 8t25.5 3h57q23 0 45.5 9.5t40.5 9.5h80h158h47q10 2 18 4t15.5 4t11.5 2l57 -10h56h57q14 0 26.5 -2t24.5 -17 q8 0 24.5 -1t33 -5t28.5 -15.5t12 -29.5q0 -12 -15 -26.5t-34 -26.5q-23 -14 -49 -27h-51l-74 -16q-16 4 -31 8q-12 4 -26 6t-23 2q-18 0 -29.5 -12t-15.5 -28.5t-5 -34t-1 -27.5v-39v-86v-33v-127v-96v-68v-96q0 -53 19.5 -90t72.5 -37q29 0 39 6t41 6l51 -12h33 q16 0 36.5 -11.5t20.5 -27.5q0 -29 -31.5 -48.5t-72.5 -33.5t-81 -20t-54 -6h-39q-10 0 -23.5 11t-21.5 11q-18 -6 -35 -12q-31 -10 -45 -10h-80h-29q-43 -4 -79 -9q-31 -4 -60 -6t-37 -2q-100 0 -195 33t-170 95.5t-120 150.5t-45 198zM700 547q-2 -74 2.5 -137.5 t13.5 -110.5t22.5 -73.5t29.5 -26.5h18h39q8 0 19.5 8t23 19.5t18.5 25.5t7 27q-4 8 -6 16q-4 20 -4 35v57q0 18 -1 28.5t-2 19.5t-2 19.5t-1 28.5v240v96q-8 12 -10.5 28.5t-5.5 32t-10 29t-26 19.5h-16h-45q-20 0 -31.5 -39t-17.5 -96.5t-9.5 -124t-5.5 -121.5z" />
<glyph unicode="&#xb7;" horiz-adv-x="585" d="M125 496q0 53 24.5 91t55.5 63.5t59.5 42t36.5 24.5q4 0 35 -17.5t64.5 -48t61 -70.5t27.5 -85q0 -31 -19 -64t-48 -60.5t-61.5 -46t-59.5 -18.5q-20 0 -51 26.5t-58.5 60.5t-47 64.5t-19.5 37.5z" />
<glyph unicode="&#xb8;" horiz-adv-x="501" d="M-16 -582q0 20 12 36t31.5 28t42 24.5t45.5 26.5q12 12 17 34.5t22 39.5q27 27 39 42t12 32q0 27 -10.5 32.5t-24.5 18.5q-12 16 -27.5 28.5t-27.5 12.5q-6 0 -11.5 -6.5t-10.5 -14.5t-13 -14t-23 -6q-14 0 -24 13.5t-10 27.5q0 25 32.5 45t59.5 45q12 14 27.5 16t27.5 2 q14 16 18.5 27.5t16.5 11.5q27 0 53.5 -2t42.5 -14q10 0 14 -13.5t21 -27.5q12 -12 25.5 -27.5t13.5 -46.5q0 -55 -17.5 -102t-56.5 -103q-16 -12 -30.5 -18t-30.5 -33q-4 -14 -13.5 -22.5t-21.5 -15.5t-25.5 -15t-25.5 -21q-14 -16 -23.5 -24t-19 -13.5t-21.5 -9.5t-33 -10 h-18t-24.5 2t-21.5 5t-9 9z" />
<glyph unicode="&#xb9;" horiz-adv-x="546" d="M51 461q2 12 19.5 24.5t39 21.5t41 16t25.5 12q14 23 18.5 84t4.5 126v228q2 4 4 10t2 12v13q-8 4 -13.5 1t-15.5 -8q-16 -16 -51 -16q-27 0 -45.5 3t-28.5 26q-4 12 0 26.5t17 24.5h6q16 4 41.5 15.5t60.5 23.5q39 14 79 28.5t75 18.5q35 0 63 -18q4 -4 8 -17 q2 -6 2 -12q0 -68 -6 -129.5t-10 -120.5q-4 -27 -6 -51.5t-6 -50.5v-177q0 -31 16.5 -46t40.5 -27q-8 4 6.5 -5.5t22.5 -13.5q14 -4 22.5 -11t12.5 -11q16 -16 9 -31.5t-32 -19.5q-14 0 -28.5 4t-18.5 8q-8 4 -16.5 7t-34.5 3q-12 0 -23.5 1t-21.5 5q-23 4 -53.5 1t-59.5 -7 q-43 -4 -82 -8t-61 8q-23 16 -23 29z" />
<glyph unicode="&#xba;" d="M35 -6q0 10 10 44t23 48q53 16 95 33.5t93 17.5q16 12 42 9t60 8h45q8 0 17.5 4t20 7t21.5 1t21 -12q16 16 36 24t44 4v-12q0 -6 -2 -12t-4 -17q-2 -6 -9 -22.5t-17.5 -34.5t-26 -35.5t-31.5 -25.5h-74q-14 4 -35.5 4t-39.5 -11q-16 -12 -44 -11t-59 1q-16 0 -35.5 -14.5 t-31.5 -14.5q-16 -10 -45 -3.5t-58 14.5zM137 633q0 49 26.5 120.5t62.5 140.5t73 122t59 65q35 27 55.5 53.5t59.5 26.5q25 0 58.5 -1t60.5 -9q27 0 35 -21.5t16 -48.5q16 -12 33.5 -42.5t17.5 -53.5l-10 -160q0 -47 -22.5 -105t-57.5 -112q-12 -10 -19 -25.5t-13.5 -33 t-14.5 -35.5t-22 -35q-23 -27 -51.5 -67.5t-67.5 -53.5q-47 -27 -73 -42t-58 -15q-55 0 -90 45t-35 98l-6 119q0 14 -8.5 22.5t-8.5 47.5zM272 608q4 -6 8.5 -21.5t11.5 -32.5t19.5 -29.5t30.5 -12.5q35 14 64 31q25 14 48 31.5t29 33.5q14 27 26.5 60.5t25.5 60.5 q0 12 6 27.5t6 29.5v45q0 6 -3 28t-11.5 44.5t-22 41t-31.5 18.5q-29 0 -57.5 -22.5t-53 -53.5t-43 -59.5t-24.5 -41.5q-8 -37 -14 -67q-6 -27 -10.5 -49.5t-4.5 -26.5v-35z" />
<glyph unicode="&#xbb;" horiz-adv-x="911" d="M90 195q0 16 7.5 30.5t17.5 14.5q2 0 6 2q8 4 10 4q23 4 29 5t22 5q29 10 58.5 19.5t56.5 31.5q25 16 40 41t24.5 50.5t13.5 50t6 40.5q2 12 -3 37t-17.5 49.5t-29 43t-34.5 18.5q-4 0 -9 -2t-9 -2q-8 0 -14.5 5t-18.5 5q-4 0 -14.5 4t-14.5 8q-23 12 -28 31t-1 49 q12 51 51.5 82t90.5 31q27 0 37 -10.5t32 -22.5q16 -10 31.5 -17t24.5 -24q10 -16 15 -28.5t9 -34.5q8 -16 12.5 -27.5t4.5 -28.5q-4 -23 3 -37t7 -26t5 -21.5t1 -17.5q-8 -39 -16 -74q-4 -14 -6.5 -23.5t-6.5 -23.5q-4 -12 -11 -33.5t-17 -33.5q-12 -31 -28.5 -44.5 t-39.5 -48.5q-14 -16 -24.5 -24t-19.5 -12.5t-19.5 -7.5t-22.5 -11q-16 -14 -25.5 -22.5t-29.5 -12.5q-10 -4 -19.5 -6t-21.5 -6q-39 -12 -44 -14t-20 -2q-20 0 -35.5 9t-15.5 32zM479 195q0 16 6.5 30.5t16.5 14.5q2 0 6 2q8 4 10 4q23 4 29 5t22 5q29 10 41.5 22.5 t38.5 34.5q25 16 41.5 41t25.5 50.5t13 50t6 41.5q2 27 -6 56.5t-21.5 53t-31 38.5t-33.5 15q-4 0 -14.5 12.5t-14.5 16.5q-23 14 -27.5 23.5t-0.5 40.5q14 51 38.5 73.5t75.5 22.5q27 0 42.5 -10.5t37.5 -22.5q16 -10 31.5 -17t26.5 -24q8 -16 13 -28.5t9 -34.5 q8 -16 12.5 -27.5t4.5 -28.5q-4 -27 5 -56.5t1 -45.5q-4 -23 -8.5 -38t-8.5 -36q-4 -14 -6 -23.5t-6 -23.5q-4 -12 -11 -33.5t-18 -33.5q-12 -31 -28.5 -44.5t-38.5 -48.5q-16 -16 -23.5 -24t-13.5 -12.5t-13.5 -7.5t-19.5 -11q-16 -14 -25.5 -22.5t-29.5 -12.5 q-10 -4 -19.5 -6t-21.5 -6q-18 -6 -28.5 -9t-15.5 -5t-8 -2h-10q-23 0 -37 9t-14 32z" />
<glyph unicode="&#xbc;" horiz-adv-x="1513" d="M51 461q4 10 22.5 21.5t39 21.5t39 18t24.5 13q14 23 18.5 84t4.5 126v228q2 4 4 10t2 12v13q-8 4 -13.5 1t-15.5 -8q-16 -16 -51 -16q-27 0 -45.5 3t-28.5 26q-4 12 0 26.5t17 24.5h6q16 4 41.5 15.5t60.5 23.5q39 14 79 28.5t75 18.5q35 0 63 -18q4 -4 8 -17 q2 -6 2 -12q0 -68 -6 -129.5t-10 -120.5q-4 -27 -6 -51.5t-6 -50.5v-177q0 -31 16.5 -46t40.5 -27q-8 4 6.5 -5.5t22.5 -13.5q14 -4 22.5 -11t12.5 -11q16 -16 9 -31.5t-32 -19.5q-14 0 -28.5 4t-18.5 8q-8 4 -16.5 7t-34.5 3q-12 0 -23.5 1t-21.5 5q-23 4 -53.5 1t-59.5 -7 q-43 -4 -82 -8t-61 8q-12 10 -19.5 15.5t-3.5 13.5zM291 -137l10 22q10 39 17.5 72t23.5 49q4 23 25.5 42.5t31.5 31.5q20 39 32.5 70.5t29.5 54.5q16 16 31.5 43.5t19.5 42.5q4 18 24.5 52t43 67.5t40 61.5t17.5 34q20 20 41.5 60t43 83t42 81t39.5 56q39 63 72.5 123 t68.5 133q27 59 45.5 109.5t40.5 89.5q12 0 31.5 5t38 12.5t34 13.5t21.5 8q16 0 29.5 -11.5t21.5 -27.5q0 -29 -7 -45t-21 -45q-12 -27 -27.5 -45.5t-28.5 -40.5q-2 -6 -6 -18.5t-9 -24.5t-12.5 -21.5t-13.5 -9.5q-10 -14 -17 -24.5t-13 -20.5q-8 -10 -15 -18 q-16 -23 -20 -35t-8 -39q-25 -16 -52.5 -58t-53 -88t-49.5 -87t-38 -58q-4 -16 -22.5 -51t-40 -70.5t-41 -66.5t-27.5 -39q0 -12 -8 -23.5t-18.5 -20.5t-19.5 -18.5t-11 -17.5l-29 -57q-23 -35 -40 -66t-34 -53q-27 -51 -56.5 -94t-64.5 -101q-10 -8 -27.5 -13t-33.5 -7 t-30.5 -2h-20.5zM838 285q-4 12 5 29.5t25.5 36t35 35.5t30.5 30q8 12 15 23.5t24 27.5l18 22q8 10 20.5 24.5t8.5 10.5q8 8 12 18.5t21 26.5q4 10 21.5 22.5t29.5 16.5q4 10 13 17.5t9 11.5q4 4 17.5 20.5t32 32t39 26.5t38.5 7q4 0 13.5 -7t19.5 -16.5t18.5 -19.5 t10.5 -14q-4 -4 -3 -7.5t-7 -15.5q0 -4 -1 -8t-6 -27v-39v-125q-4 -10 -5 -20t-1 -21v-67q0 -6 2 -6h4q12 0 35 7t45 15q4 0 8.5 3t8.5 3q20 20 41 0q12 -12 13 -27.5t-3 -29.5q-4 -4 -5 -9t-1 -1q-4 -10 -6 -23.5t2 -17.5q-16 -31 -47 -39q-16 0 -20.5 1t-8.5 5 q-12 4 -25.5 7t-29.5 3q-4 -4 -7 -10q-6 -10 -6 -22v-41q4 -12 7.5 -21.5t-1.5 -17.5q4 -18 5.5 -32.5t23.5 -14.5q12 0 27.5 -6.5t29.5 -16.5v-29q4 -12 -18.5 -17t-60.5 -5q-18 4 -33 5t-31 1q-10 0 -21.5 -1t-23.5 -5q-35 0 -65.5 1t-43.5 5q-51 18 -51 35 q-10 25 10.5 33t47.5 12q12 4 27.5 18.5t4.5 42.5q-8 23 0 35v57q-16 -4 -50 -5t-68 -1q-47 0 -93.5 1t-54.5 5q-10 4 -16 22.5t-6 29.5zM1014 336q12 4 24.5 5t20.5 1q16 0 32.5 -3t30.5 -3q4 29 7.5 65.5t3.5 71.5v29q-8 -10 -16.5 -18.5t-12.5 -22.5l-51 -68z" />
<glyph unicode="&#xbd;" horiz-adv-x="1542" d="M51 461q2 12 19.5 24.5t39 21.5t41 16t25.5 12q14 23 18.5 84t4.5 126v228q2 4 4 10t2 12v13q-8 4 -13.5 1t-15.5 -8q-16 -16 -51 -16q-27 0 -45.5 3t-28.5 26q-4 12 0 26.5t17 24.5h6q16 4 41.5 15.5t60.5 23.5q39 14 79 28.5t75 18.5q35 0 63 -18q4 -4 8 -17 q2 -6 2 -12q0 -68 -6 -129.5t-10 -120.5q-4 -27 -6 -51.5t-6 -50.5v-177q0 -31 16.5 -46t40.5 -27q-8 4 6.5 -5.5t22.5 -13.5q14 -4 22.5 -11t12.5 -11q16 -16 9 -31.5t-32 -19.5q-14 0 -28.5 4t-18.5 8q-8 4 -16.5 7t-34.5 3q-12 0 -23.5 1t-21.5 5q-23 4 -53.5 1t-59.5 -7 q-43 -4 -82 -8t-61 8q-23 16 -23 29zM291 -137l10 22q10 39 17.5 72t23.5 49q4 23 25.5 42.5t31.5 31.5q20 39 32.5 70.5t29.5 54.5q16 16 31.5 43.5t19.5 42.5q4 18 24.5 52t43 67.5t40 61.5t17.5 34q20 20 41.5 60t43 83t42 81t39.5 56q39 63 72.5 123t68.5 133 q27 59 45.5 109.5t40.5 89.5q12 0 31.5 5t38 12.5t34 13.5t21.5 8q16 0 29.5 -11.5t21.5 -27.5q0 -29 -7 -45t-21 -45q-12 -27 -27.5 -45.5t-28.5 -40.5q-2 -6 -6 -18.5t-9 -24.5t-12.5 -21.5t-13.5 -9.5q-10 -14 -17 -24.5t-13 -20.5q-8 -10 -15 -18q-16 -23 -20 -35 t-8 -39q-25 -16 -52.5 -58t-53 -88t-49.5 -87t-38 -58q-4 -16 -22.5 -51t-40 -70.5t-41 -66.5t-27.5 -39q0 -12 -8 -23.5t-18.5 -20.5t-19.5 -18.5t-11 -17.5l-29 -57q-23 -35 -40 -66t-34 -53q-27 -51 -56.5 -94t-64.5 -101q-10 -8 -27.5 -13t-33.5 -7t-30.5 -2h-20.5z M940 574.5q4 11.5 14.5 24.5t23.5 26.5t23 23.5q31 23 78 50.5t99 23.5h18q4 -4 11 -2t18 2q14 6 37.5 2t48 -14.5t46 -24.5t32.5 -27q27 -39 37 -61.5t10 -44.5q0 -14 -8.5 -36.5t-20.5 -49.5q0 -16 -10.5 -40t-18.5 -40q-4 -12 -25.5 -27.5t-37.5 -29.5 q-8 -12 -16.5 -18.5t-12.5 -10.5q-12 -16 -22.5 -33.5t-22.5 -40.5q-4 -8 -16.5 -23.5t-28.5 -33.5q-10 -12 -18.5 -24.5t-3.5 -26.5q23 4 40 5t33 1h51q8 0 26.5 14.5t41.5 30.5q27 10 49.5 19.5t46.5 9.5q20 0 18.5 -32t-15 -72t-31 -73.5t-23.5 -37.5q-20 -14 -57 -9 t-68 13q-6 2 -14 4t-15 4l-16 4h-35q-23 0 -59.5 1t-71.5 5h-26q-23 -4 -36.5 -7t-21.5 7q-16 12 -30.5 37t-10.5 37t19.5 21.5t31.5 17.5q4 4 12.5 11t16.5 11q14 18 34.5 36t35.5 34q12 12 20 37.5t19 36.5q10 16 22.5 36.5t28.5 43.5q16 29 32.5 60.5t12.5 70.5 q-8 43 -38 75.5t-64 32.5q-12 0 -29 -12t-33 -29l-35 -33q-23 -18 -39 -10t-28 21q-4 2 -7.5 4t-7.5 6q-6 4 -10 6q-8 6 -4 17.5z" />
<glyph unicode="&#xbe;" horiz-adv-x="1497" d="M51 506q0 10 9.5 13t13.5 16q8 12 18 25t22.5 19.5t29 2.5t38.5 -25q6 -8 20.5 -21.5t34 -25.5t42 -21.5t45.5 -9.5q10 0 24 4t27 19q14 12 27.5 33.5t13.5 50.5q0 47 -24.5 95t-67.5 64q-8 4 -26.5 11.5t-41.5 11.5h-23q-16 -4 -28 -2t-23 14q-10 12 -8 35t21 27 q8 0 23 3t32 3q31 0 66.5 10t64.5 53q4 8 5 22.5t1 29.5q0 23 -11 53.5t-34 25.5q-10 -4 -17.5 -2t-11.5 2q-6 0 -8 2l-4 5q-8 0 -17.5 -7.5t-21.5 -11.5l-6 -10q-8 -14 -22.5 -30.5t-38.5 -33.5q-31 -10 -58.5 -0.5t-27.5 52.5v16q0 4 -2 9.5t2 15.5q6 16 29.5 32.5 t56 29.5t69.5 22.5t72 11.5q16 8 35 0q29 0 38 2t17 -2q47 -10 84 -36t53 -56q20 -55 -4 -113.5t-63 -97.5q-4 -4 -25.5 -11.5t-38.5 -11.5q-10 -4 -22 -4q-8 -4 2 -6t26 -6q35 -4 67 -13.5t52 -31.5q23 -27 37 -51.5t14 -47.5q4 -29 -6 -72.5t-33 -74.5q-16 -23 -46.5 -39 t-61.5 -29l-29 -12q-25 -8 -57.5 -12t-61.5 -4h-57q-12 0 -21.5 3t-13.5 3q-39 0 -61.5 6t-34.5 16q-23 4 -48.5 22.5t-25.5 39.5zM313 -137l6 22q8 39 18.5 72t27.5 49q8 23 29.5 42.5t21.5 31.5q27 39 39 70.5t28 54.5q16 16 31.5 43.5t20.5 42.5q4 18 23.5 52t42 67.5 t39.5 61.5t19 34q20 20 42 60t43.5 83t42 81t38.5 56q39 63 72 123t72 133q25 59 46 109.5t38 89.5q12 0 31.5 5t38 12.5t33.5 13.5t22 8q14 0 27.5 -11.5t29.5 -27.5q0 -29 -10.5 -45t-22.5 -45q-10 -27 -28.5 -45.5t-34.5 -40.5q0 -6 -3 -18.5t-7.5 -24.5t-11.5 -21.5 t-13 -9.5l-17.5 -24.5t-13.5 -20.5q-8 -10 -14 -18q-16 -23 -22.5 -35t-6.5 -39q-23 -16 -49.5 -58t-53 -88t-50 -87t-39.5 -58q-4 -16 -22.5 -51t-40 -70.5t-43 -66.5t-32.5 -39q4 -12 -3 -23.5t-16 -20.5t-19.5 -18.5t-12.5 -17.5l-28 -57q-23 -35 -40.5 -66t-33.5 -53 q-31 -51 -56.5 -94t-68.5 -101q-8 -8 -23.5 -13t-33 -7t-32 -2h-20.5zM838 285q-4 12 5 29.5t25.5 36t35 35.5t30.5 30q8 12 15 23.5t24 27.5l18 22q8 10 20.5 24.5t8.5 10.5q8 8 12 18.5t21 26.5q4 10 21.5 22.5t29.5 16.5q4 10 13 17.5t9 11.5q4 4 17.5 20.5t32 32 t39 26.5t38.5 7q4 0 13.5 -7t19.5 -16.5t18.5 -19.5t10.5 -14q-4 -4 -3 -7.5t-7 -15.5q0 -4 -1 -8t-6 -27v-39v-125q-4 -10 -5 -20t-1 -21v-67q0 -6 2 -6h4q12 0 35 7t45 15q4 0 8.5 3t8.5 3q20 20 41 0q12 -12 13 -27.5t-3 -29.5q-4 -4 -5 -9t-1 -1q-4 -10 -6 -23.5 t2 -17.5q-16 -31 -47 -39q-16 0 -20.5 1t-8.5 5q-12 4 -25.5 7t-29.5 3q-4 -4 -7 -10q-6 -10 -6 -22v-41q4 -12 7.5 -21.5t-1.5 -17.5q4 -18 5.5 -32.5t23.5 -14.5q12 0 27.5 -6.5t29.5 -16.5v-29q4 -12 -18.5 -17t-60.5 -5q-18 4 -33 5t-31 1q-10 0 -21.5 -1t-23.5 -5 q-35 0 -65.5 1t-43.5 5q-51 18 -51 35q-10 25 10.5 33t47.5 12q12 4 27.5 18.5t4.5 42.5q-8 23 0 35v57q-16 -4 -50 -5t-68 -1q-47 0 -93.5 1t-54.5 5q-10 4 -16 22.5t-6 29.5zM1014 336q12 4 24.5 5t20.5 1q16 0 32.5 -3t30.5 -3q4 29 7.5 65.5t3.5 71.5v29 q-8 -10 -16.5 -18.5t-12.5 -22.5l-51 -68z" />
<glyph unicode="&#xbf;" horiz-adv-x="823" d="M-111 -17.5q0 15.5 15 27.5q59 53 105 98.5t116 81.5q-2 8 13.5 14.5t13.5 16.5q-6 25 20.5 42.5t59 33.5t59 34.5t20.5 47.5q-4 16 -13 24.5t-13 30.5q-4 14 -8.5 26.5t-8.5 28.5q-4 12 -11 20.5t-11 25.5q-6 29 24.5 47t61.5 24q27 6 52.5 -2t46 -25.5t34.5 -42 t20 -51.5q8 -41 -10 -71.5t-47 -58t-61.5 -55.5t-53.5 -62q-18 -27 -31.5 -42.5t-27.5 -25.5t-31.5 -21.5t-42.5 -29.5q-25 -16 -40 -51t-46 -52q-31 -18 -36 -47.5t4.5 -59.5t31 -53.5t43.5 -29.5q18 2 31.5 -6t27 -18.5t27 -19.5t31.5 -11q57 -4 93 20.5t60.5 56t40 57 t33.5 23.5q16 0 31.5 -24.5t-4.5 -83.5q-6 -18 -19.5 -37t-32 -36t-38 -32.5t-33.5 -23.5q-18 -12 -45 -31.5t-55.5 -39t-57 -33t-51.5 -9.5q-33 4 -69.5 13.5t-70.5 24.5t-59.5 38.5t-33.5 60.5q-2 8 -12.5 33t-20.5 52.5t-16.5 53t0.5 37.5q10 12 7 27.5t-7.5 32t-4.5 32z M289 926q0 27 10 44t27.5 30.5t38 26.5t38.5 30q14 10 22.5 27.5t17 33t19.5 26.5t32 11q18 0 29.5 -11t17.5 -29.5t11 -41t11 -45.5q2 -10 13.5 -18.5t23.5 -17.5t21.5 -19.5t9.5 -22.5q0 -33 -20.5 -62.5t-48 -53t-56.5 -37t-45 -13.5q-20 0 -34.5 9.5t-27 21.5t-25 27.5 t-28.5 27.5t-36.5 21.5t-20.5 34.5z" />
<glyph unicode="&#xc0;" horiz-adv-x="1253" d="M45 23q0 39 23.5 65.5t62.5 26.5l39 10q4 0 15.5 7t23.5 17.5t25.5 21.5t21.5 17q12 51 44 111.5t58 116.5q12 35 32 72.5t36 64.5q20 39 34.5 76t27 74.5t26.5 76.5t33 80q14 31 22.5 67t15.5 73.5t18 76.5t30 78q12 10 26.5 24.5t40.5 26.5h35q45 0 67.5 -19.5t32 -50 t12.5 -66.5t7 -69v-73q12 -23 31.5 -61t19.5 -76v-52q0 -6 10.5 -36.5t23.5 -67.5t23.5 -71t10.5 -46q0 -39 10 -103.5t26.5 -126t38 -106.5t46.5 -45q29 0 45 -6t28 -6q6 0 21.5 -2t33 -8t30 -17.5t12.5 -29.5q0 -41 -29 -57.5t-68 -16.5l-137 6h-57h-103h-45l-57 -6 q-12 0 -40 2t-28 16q0 29 26 47.5t60 30.5q29 10 48.5 22.5t19.5 41.5q0 6 -5 30.5t-12.5 52t-16.5 49t-17 21.5q-6 20 -9 45t-8.5 44.5t-16.5 29.5t-34 6h-69h-23.5t-36 -2t-36 -5t-23.5 -9q-27 -12 -22 -36t5 -50q-6 -8 -18 -32t-23.5 -50.5t-19.5 -49t-8 -28.5 q0 -25 13 -35t29.5 -19.5t30 -25.5t13.5 -55q0 -12 -8.5 -19.5t-19.5 -10.5t-22.5 -4t-17.5 -1q0 -6 -4 -8t-11 -2t-20 10h-21t-28 2l-37 4q-27 0 -43 -6t-43 -6q-29 0 -41 -3t-17 -6t-7 -5.5t-8 -2.5q-10 0 -36 2.5t-52.5 7.5t-46 14t-19.5 22zM301 1890q-12 35 7 48t44 -3 q10 -16 25.5 -38.5t38.5 -34.5q23 -16 43 -40t37 -46q39 -41 68.5 -80t56.5 -78q6 -2 13 -13.5t15 -23.5t16.5 -22.5t18.5 -10.5q6 -16 18.5 -34.5t25.5 -38t23.5 -41t12.5 -45.5q12 -4 13 -13.5t14 -9.5q10 -12 1.5 -27.5t-12.5 -29.5q-4 -23 -31.5 -39.5t-54.5 -12.5 q-12 2 -31.5 19.5t-38 40t-34 43t-21.5 29.5q-16 23 -33.5 37t-33.5 42q-27 35 -44.5 77t-47.5 95q-2 18 -14.5 51t-29 68t-35 71t-30.5 60zM633 621q0 -12 18.5 -23.5t32.5 -11.5h19.5t26.5 2t23.5 8t10.5 18q0 27 -14.5 41.5t-14.5 28.5v90q0 12 -7 34.5t-17 22.5 q-14 0 -25.5 -12t-20 -27.5t-12.5 -31t-4 -21.5v-27.5t-2 -16.5t-5 -19t-9 -39v-16z" />
<glyph unicode="&#xc1;" horiz-adv-x="1253" d="M45 23q0 39 23.5 65.5t62.5 26.5l39 10q4 0 15.5 7t23.5 17.5t25.5 21.5t21.5 17q12 51 44 111.5t58 116.5q12 35 32 72.5t36 64.5q20 39 34.5 76t27 74.5t26.5 76.5t33 80q14 31 22.5 67t15.5 73.5t18 76.5t30 78q12 10 26.5 24.5t40.5 26.5h35q45 0 67.5 -19.5t32 -50 t12.5 -66.5t7 -69v-73q12 -23 31.5 -61t19.5 -76v-52q0 -6 10.5 -36.5t23.5 -67.5t23.5 -71t10.5 -46q0 -39 10 -103.5t26.5 -126t38 -106.5t46.5 -45q29 0 45 -6t28 -6q6 0 21.5 -2t33 -8t30 -17.5t12.5 -29.5q0 -41 -29 -57.5t-68 -16.5l-137 6h-57h-103h-45l-57 -6 q-12 0 -40 2t-28 16q0 29 26 47.5t60 30.5q29 10 48.5 22.5t19.5 41.5q0 6 -5 30.5t-12.5 52t-16.5 49t-17 21.5q-6 20 -9 45t-8.5 44.5t-16.5 29.5t-34 6h-69h-23.5t-36 -2t-36 -5t-23.5 -9q-27 -12 -22 -36t5 -50q-6 -8 -18 -32t-23.5 -50.5t-19.5 -49t-8 -28.5 q0 -25 13 -35t29.5 -19.5t30 -25.5t13.5 -55q0 -12 -8.5 -19.5t-19.5 -10.5t-22.5 -4t-17.5 -1q0 -6 -4 -8t-11 -2t-20 10h-21t-28 2l-37 4q-27 0 -43 -6t-43 -6q-29 0 -41 -3t-17 -6t-7 -5.5t-8 -2.5q-10 0 -36 2.5t-52.5 7.5t-46 14t-19.5 22zM633 621q0 -12 18.5 -23.5 t32.5 -11.5h19.5t26.5 2t23.5 8t10.5 18q0 27 -14.5 41.5t-14.5 28.5v90q0 12 -7 34.5t-17 22.5q-14 0 -25.5 -12t-20 -27.5t-12.5 -31t-4 -21.5v-27.5t-2 -16.5t-5 -19t-9 -39v-16zM678 1333q0 16 10 29.5t23 44.5q0 16 13 37.5t21 36.5q0 35 11.5 52t11.5 44q0 31 9 46 t9 28q25 31 47.5 62.5t49.5 58.5q29 39 56.5 77.5t55.5 69.5q14 0 29.5 3t28.5 20q16 0 31.5 8t31.5 8q27 0 31 -22.5t4 -39.5v-34v-39q0 -29 -6 -46.5t-18.5 -32.5t-31 -30.5t-42.5 -40.5q-29 -29 -48.5 -56.5t-48.5 -55.5q-12 -14 -16 -27.5t-18 -30.5q-14 -25 -28.5 -40 t-27 -29.5t-25 -33t-22.5 -44.5q-4 -8 -10 -22.5t-15.5 -29t-21.5 -24.5t-27 -10q-27 0 -47 16.5t-20 46.5z" />
<glyph unicode="&#xc2;" horiz-adv-x="1253" d="M45 23q0 39 23.5 65.5t62.5 26.5l39 10q4 0 15.5 7t23.5 17.5t25.5 21.5t21.5 17q12 51 44 111.5t58 116.5q12 35 32 72.5t36 64.5q20 39 34.5 76t27 74.5t26.5 76.5t33 80q14 31 22.5 67t15.5 73.5t18 76.5t30 78q12 10 26.5 24.5t40.5 26.5h35q45 0 67.5 -19.5t32 -50 t12.5 -66.5t7 -69v-73q12 -23 31.5 -61t19.5 -76v-52q0 -6 10.5 -36.5t23.5 -67.5t23.5 -71t10.5 -46q0 -39 10 -103.5t26.5 -126t38 -106.5t46.5 -45q29 0 45 -6t28 -6q6 0 21.5 -2t33 -8t30 -17.5t12.5 -29.5q0 -41 -29 -57.5t-68 -16.5l-137 6h-57h-103h-45l-57 -6 q-12 0 -40 2t-28 16q0 29 26 47.5t60 30.5q29 10 48.5 22.5t19.5 41.5q0 6 -5 30.5t-12.5 52t-16.5 49t-17 21.5q-6 20 -9 45t-8.5 44.5t-16.5 29.5t-34 6h-69h-23.5t-36 -2t-36 -5t-23.5 -9q-27 -12 -22 -36t5 -50q-6 -8 -18 -32t-23.5 -50.5t-19.5 -49t-8 -28.5 q0 -25 13 -35t29.5 -19.5t30 -25.5t13.5 -55q0 -12 -8.5 -19.5t-19.5 -10.5t-22.5 -4t-17.5 -1q0 -6 -4 -8t-11 -2t-20 10h-21t-28 2l-37 4q-27 0 -43 -6t-43 -6q-29 0 -41 -3t-17 -6t-7 -5.5t-8 -2.5q-10 0 -36 2.5t-52.5 7.5t-46 14t-19.5 22zM365 1280q4 18 8 33.5 t14 23.5l12 29q8 35 26.5 61.5t41.5 53.5l29 45q10 10 32.5 47t50 82t59.5 91t62 77q12 12 22.5 27.5t22.5 27.5l58 47l28 -29q12 -10 25.5 -31.5t26.5 -41.5q14 -25 33.5 -49.5t38 -55t32.5 -68.5t21 -85l28 -45l17 -29q10 -35 16 -60.5t6 -64.5q0 -10 -2 -29.5t-8 -38 t-18.5 -32t-32.5 -13.5q-18 0 -30.5 13.5t-20 32t-12.5 36t-11 25.5q-14 18 -27.5 42.5t-35.5 37.5q-12 47 -22.5 80.5t-23.5 68.5q-10 29 -29.5 51.5t-43.5 45.5q-10 -10 -17.5 -24.5t-11.5 -27.5l-18 -41q-37 -31 -50.5 -50t-22.5 -37.5t-25.5 -40t-59.5 -54.5l-29 -27 q-27 -27 -42 -44t-25.5 -31.5t-19.5 -24.5t-21 -20h-13q-16 0 -23 8t-15 8zM633 621q0 -12 18.5 -23.5t32.5 -11.5h19.5t26.5 2t23.5 8t10.5 18q0 27 -14.5 41.5t-14.5 28.5v90q0 12 -7 34.5t-17 22.5q-14 0 -25.5 -12t-20 -27.5t-12.5 -31t-4 -21.5v-27.5t-2 -16.5t-5 -19 t-9 -39v-16z" />
<glyph unicode="&#xc3;" horiz-adv-x="1253" d="M45 23q0 39 23.5 65.5t62.5 26.5l39 10q4 0 15.5 7t23.5 17.5t25.5 21.5t21.5 17q12 51 44 111.5t58 116.5q12 35 32 72.5t36 64.5q20 39 34.5 76t27 74.5t26.5 76.5t33 80q14 31 22.5 67t15.5 73.5t18 76.5t30 78q12 10 26.5 24.5t40.5 26.5h35q45 0 67.5 -19.5t32 -50 t12.5 -66.5t7 -69v-73q12 -23 31.5 -61t19.5 -76v-52q0 -6 10.5 -36.5t23.5 -67.5t23.5 -71t10.5 -46q0 -39 10 -103.5t26.5 -126t38 -106.5t46.5 -45q29 0 45 -6t28 -6q6 0 21.5 -2t33 -8t30 -17.5t12.5 -29.5q0 -41 -29 -57.5t-68 -16.5l-137 6h-57h-103h-45l-57 -6 q-12 0 -40 2t-28 16q0 29 26 47.5t60 30.5q29 10 48.5 22.5t19.5 41.5q0 6 -5 30.5t-12.5 52t-16.5 49t-17 21.5q-6 20 -9 45t-8.5 44.5t-16.5 29.5t-34 6h-69h-23.5t-36 -2t-36 -5t-23.5 -9q-27 -12 -22 -36t5 -50q-6 -8 -18 -32t-23.5 -50.5t-19.5 -49t-8 -28.5 q0 -25 13 -35t29.5 -19.5t30 -25.5t13.5 -55q0 -12 -8.5 -19.5t-19.5 -10.5t-22.5 -4t-17.5 -1q0 -6 -4 -8t-11 -2t-20 10h-21t-28 2l-37 4q-27 0 -43 -6t-43 -6q-29 0 -41 -3t-17 -6t-7 -5.5t-8 -2.5q-10 0 -36 2.5t-52.5 7.5t-46 14t-19.5 22zM324 1241v29q0 27 6 43t6 43 q0 39 18.5 67.5t44.5 44.5q8 0 17.5 1t21.5 12q16 12 28.5 25.5t29.5 13.5q29 0 50 -2t52 -15q8 0 19.5 -1t15.5 -5q16 0 36.5 -9t41.5 -20q27 -16 62.5 -39.5t57.5 -33.5q35 -12 76 -20.5t66 -8.5q14 0 28.5 1t22.5 5q23 12 27 35t14 45q8 8 1 32.5t-7 47.5q0 8 -5 12 t-5 27q0 27 21.5 42t51.5 15q43 0 62 -22q23 -10 33 -17.5t18 -17.5q10 -12 11 -28.5t1 -39.5q0 -88 -63 -147q-8 -10 -16.5 -24.5t-16.5 -26.5q-43 -27 -102.5 -51.5t-114.5 -24.5q-41 0 -77 12t-69.5 28.5t-67.5 35t-71 28.5q-16 0 -36.5 5t-43.5 5q-43 0 -81.5 -12 t-77.5 -55q-16 -4 -22.5 -19.5t-22.5 -15.5h-41zM633 621q0 -12 18.5 -23.5t32.5 -11.5h19.5t26.5 2t23.5 8t10.5 18q0 27 -14.5 41.5t-14.5 28.5v90q0 12 -7 34.5t-17 22.5q-14 0 -25.5 -12t-20 -27.5t-12.5 -31t-4 -21.5v-27.5t-2 -16.5t-5 -19t-9 -39v-16z" />
<glyph unicode="&#xc4;" horiz-adv-x="1253" d="M45 23q0 39 23.5 65.5t62.5 26.5l39 10q4 0 15.5 7t23.5 17.5t25.5 21.5t21.5 17q12 51 44 111.5t58 116.5q12 35 32 72.5t36 64.5q20 39 34.5 76t27 74.5t26.5 76.5t33 80q14 31 22.5 67t15.5 73.5t18 76.5t30 78q12 10 26.5 24.5t40.5 26.5h35q45 0 67.5 -19.5t32 -50 t12.5 -66.5t7 -69v-73q12 -23 31.5 -61t19.5 -76v-52q0 -6 10.5 -36.5t23.5 -67.5t23.5 -71t10.5 -46q0 -39 10 -103.5t26.5 -126t38 -106.5t46.5 -45q29 0 45 -6t28 -6q6 0 21.5 -2t33 -8t30 -17.5t12.5 -29.5q0 -41 -29 -57.5t-68 -16.5l-137 6h-57h-103h-45l-57 -6 q-12 0 -40 2t-28 16q0 29 26 47.5t60 30.5q29 10 48.5 22.5t19.5 41.5q0 6 -5 30.5t-12.5 52t-16.5 49t-17 21.5q-6 20 -9 45t-8.5 44.5t-16.5 29.5t-34 6h-69h-23.5t-36 -2t-36 -5t-23.5 -9q-27 -12 -22 -36t5 -50q-6 -8 -18 -32t-23.5 -50.5t-19.5 -49t-8 -28.5 q0 -25 13 -35t29.5 -19.5t30 -25.5t13.5 -55q0 -12 -8.5 -19.5t-19.5 -10.5t-22.5 -4t-17.5 -1q0 -6 -4 -8t-11 -2t-20 10h-21t-28 2l-37 4q-27 0 -43 -6t-43 -6q-29 0 -41 -3t-17 -6t-7 -5.5t-8 -2.5q-10 0 -36 2.5t-52.5 7.5t-46 14t-19.5 22zM233 1452q2 23 16.5 38 t34 24.5t44 15.5t47.5 12q14 6 25.5 19.5t21.5 27t21.5 23.5t29.5 10q25 0 34 -28.5t23 -51.5q12 -25 27.5 -44t30 -38.5t24 -41t9.5 -52.5q0 -12 -10.5 -20.5t-25 -15.5t-29.5 -14t-26 -18q-12 -12 -19 -25t-13 -22.5t-15.5 -15.5t-27.5 -6q-23 0 -37.5 11t-26.5 26.5 t-26.5 33t-34.5 27.5q-16 10 -33.5 30.5t-32 40t-23 36t-8.5 18.5zM633 621q0 -12 18.5 -23.5t32.5 -11.5h19.5t26.5 2t23.5 8t10.5 18q0 27 -14.5 41.5t-14.5 28.5v90q0 12 -7 34.5t-17 22.5q-14 0 -25.5 -12t-20 -27.5t-12.5 -31t-4 -21.5v-27.5t-2 -16.5t-5 -19t-9 -39 v-16zM768 1462q0 18 16.5 24.5t30.5 22.5q29 29 59.5 48.5t69.5 41.5q10 4 16.5 13.5t12.5 17.5t12 14.5t16 6.5q18 0 29.5 -12.5t20 -30t16.5 -37t20 -33.5q12 -18 29 -28.5t30 -21.5t22.5 -24.5t9.5 -33.5q0 -18 -11.5 -32t-27 -25t-31.5 -23.5t-27 -28.5 q-12 -23 -26.5 -40t-40.5 -17q-27 0 -37 16t-33 29q-16 14 -33.5 19t-33.5 28q-16 29 -24.5 40t-37.5 27q-14 10 -30.5 14.5t-16.5 24.5z" />
<glyph unicode="&#xc5;" horiz-adv-x="1253" d="M45 23q0 39 23.5 65.5t62.5 26.5l39 10q4 0 15.5 7t23.5 17.5t25.5 21.5t21.5 17q12 51 44 111.5t58 116.5q12 35 32 72.5t36 64.5q20 39 34.5 76t27 74.5t26.5 76.5t33 80q27 55 35 124t32 138q-8 8 -16 21.5t-16 17.5q-23 10 -34 30.5t-16.5 43t-6.5 46.5t-1 40 q0 63 29 125q35 66 77 106.5t93 75.5q35 12 83 8t83 -8q23 0 46 -22.5t34 -40.5q6 -8 10 -25.5t7 -36t4 -33t1 -18.5q0 -117 -32.5 -193.5t-127.5 -119.5q12 -29 15.5 -66t7.5 -72v-73q12 -23 31.5 -61t19.5 -76v-52q0 -6 10.5 -36.5t23.5 -67.5t23.5 -71t10.5 -46 q0 -39 10 -103.5t26.5 -126t38 -106.5t46.5 -45q29 0 45 -6t28 -6q6 0 21.5 -2t33 -8t30 -17.5t12.5 -29.5q0 -41 -29 -57.5t-68 -16.5l-137 6h-205l-57 -6q-12 0 -40 2t-28 16q0 29 26 47.5t60 30.5q29 10 48.5 22.5t19.5 41.5q0 6 -5 30.5t-12.5 52t-16.5 49t-17 21.5 q-6 20 -9 45t-8.5 44.5t-16.5 29.5t-34 6h-69h-23.5t-36 -2t-36 -5t-23.5 -9q-27 -12 -22 -36t5 -50q-6 -8 -18 -32t-23.5 -50.5t-19.5 -49t-8 -28.5q0 -25 13 -35t29.5 -19.5t30 -25.5t13.5 -55q0 -12 -8.5 -19.5t-19.5 -10.5t-22.5 -4t-17.5 -1q0 -6 -4 -8t-11 -2t-20 10 h-21t-28 2l-37 4q-27 0 -43 -6t-43 -6q-29 0 -41 -3t-17 -6t-7 -5.5t-8 -2.5q-10 0 -36 2.5t-52.5 7.5t-46 14t-19.5 22zM633 621q0 -12 18.5 -23.5t32.5 -11.5h19.5t26.5 2t23.5 8t10.5 18q0 27 -14.5 41.5t-14.5 28.5v90q0 12 -7 34.5t-17 22.5q-14 0 -25.5 -12t-20 -27.5 t-12.5 -31t-4 -21.5v-27.5t-2 -16.5t-5 -19t-9 -39v-16zM666 1321q0 -12 10 -25.5t18 -25.5q10 -12 28.5 -23.5t41.5 -11.5q12 0 29.5 10t25.5 19q39 43 41 103t-45 114q-10 12 -20.5 14t-14.5 2q-10 4 -31.5 7t-31.5 -7q-16 -6 -23.5 -12t-10.5 -14.5t-4 -16.5t-7 -18 q0 -2 -1 -10.5t-2 -18.5t-2 -20.5t-1 -14.5q0 -12 1 -17t1 -8.5v-8.5t-2 -17z" />
<glyph unicode="&#xc6;" horiz-adv-x="1855" d="M57 119q8 59 43 98t99 39q27 0 45 -15.5t34.5 -33t34 -32.5t45.5 -15q16 0 33 11t32 26.5t29.5 32t26.5 26.5q20 27 34.5 44t27 33.5t26 36t31.5 52.5q39 72 90 139.5t86 138.5q25 53 38 87t25.5 63t28 60.5t45.5 80.5q12 23 15.5 32t3.5 15t2 15.5t12 33.5 q27 51 72 90.5t84 51.5q18 4 34.5 -11.5t26.5 -35.5q12 -23 23 -56l114 -4q14 0 27.5 -1t30 -2t39 -2t57.5 -1l80 10q16 4 31 9q12 4 24 7t19 3q12 0 33.5 -11.5t33.5 -23.5q16 -27 16.5 -62.5t12.5 -62.5q6 -6 14 -23.5t15 -33.5q8 -23 16 -45q0 -16 -9 -28.5t-36 -12.5 q-14 0 -40 21.5t-63.5 47t-91 47t-123.5 21.5l-108 -10q-14 -14 -14 -22.5t-5 -18.5q4 -47 4.5 -86t-8.5 -90q0 -23 -1 -47.5t-5 -38.5q4 -29 31 -45.5t49 -16.5q6 0 23.5 -1t35.5 -3q23 -2 50 -2l32 16q18 0 33 8.5t27 17.5t22.5 17.5t20.5 8.5q8 0 17 -11.5t20 -23.5 q10 -14 20 -33v-119q0 -63 -57 -63q-16 0 -33.5 9t-34.5 19q-16 12 -33.5 23.5t-33.5 11.5h-93q-29 0 -50 -6t-36 -22v-52q-4 -47 1.5 -74.5t5.5 -74.5q0 -8 -5.5 -21.5t-5.5 -23.5q8 -23 21.5 -35t40.5 -16h153q35 0 69 10t69 24q29 12 60.5 25.5t53.5 13.5q10 -4 19 -10 q8 -4 14 -10t6 -12q0 -14 -13 -26.5t-26 -27.5q-27 -29 -44 -59.5t-35.5 -56t-41 -43t-57.5 -17.5q-25 0 -47 14.5t-65 14.5q-31 0 -56.5 9t-52.5 9q-23 0 -37 -9t-37 -9t-38 6t-42 6l-92 -12h-131q-35 0 -54.5 24.5t-19.5 49.5q4 43 43 67.5t78 24.5q12 0 21.5 -1t17.5 -5 q0 4 7 8t15.5 8t15.5 7t7 5q0 12 -2 37t14 53q0 10 3.5 23.5t3.5 23.5q0 14 -3.5 24.5t-6.5 21t-6 24.5t-3 37q4 25 -16.5 34t-52 10t-66.5 -1t-57 -2q-33 0 -52.5 -11.5t-34 -29.5t-27.5 -41t-34 -43q-37 -59 -84 -133t-106.5 -138.5t-130 -107.5t-152.5 -43 q-43 0 -82 14.5t-67.5 40t-44 62.5t-11.5 82zM918 633q-10 -18 3 -23.5t29 -5.5q23 0 35 2t35 2q31 2 43 24.5t16 49.5q4 31 -4 70q2 16 2 26v19.5t-1 20.5t-1 30q2 18 6 42.5t7.5 46t2 37t-9.5 17.5q-10 4 -18 -11t-16.5 -40t-19.5 -52.5t-26 -45.5q-16 -37 -29.5 -61.5 t-23.5 -46t-17 -45t-13 -56.5z" />
<glyph unicode="&#xc7;" horiz-adv-x="796" d="M45 444q4 25 10 48q4 18 8.5 38.5t4.5 32.5v45q0 6 -4.5 15.5t-8.5 19.5q-6 10 -10 23l23 63v39q16 35 30 63q12 25 25.5 47.5t23.5 32.5q6 39 31 70t58.5 57.5t72.5 49t78 45.5q23 4 45 10q16 4 33.5 8t23.5 4h41h78l64 23q31 0 46 -13.5t23.5 -34t9.5 -42t1 -35.5v-39 q-12 -47 -42 -86t-77 -39q-31 0 -66 19.5t-78 19.5q-45 0 -88 -32t-77.5 -75t-56 -87t-21.5 -68v-58v-78q0 -25 8 -84t26.5 -121.5t48 -110.5t74.5 -48l41 16q47 0 88 11.5t76 46.5q45 53 86 84q12 10 28.5 14t29.5 4q4 -4 10 -12q12 -16 12 -29q0 -45 -32.5 -103.5 t-79 -110.5t-94.5 -89t-79 -37h-16q-29 -6 -53 -12q-23 -4 -43.5 -8t-28.5 -4q-16 0 -46 14t-62.5 33.5t-59 41t-33.5 37.5q-8 6 -21 40t-26.5 76t-22.5 83t-9 62v63q-6 12 -13 23q-10 20 -10 34zM160 -518q0 20 12 35.5t31.5 28t42 23.5t45.5 28q12 12 17 34.5t22 38.5 q27 25 39 41.5t12 32.5q0 27 -10.5 33t-22.5 18q-14 16 -29.5 27.5t-27.5 11.5q-6 0 -11.5 -6t-10.5 -13.5t-13 -13.5t-23 -6q-12 0 -23 13.5t-11 25.5q0 27 32.5 46.5t59.5 45.5q12 12 27.5 14.5t29.5 2.5q12 16 16.5 28.5t16.5 12.5q27 0 53.5 -2t44.5 -17q8 0 12.5 -13 t20.5 -26q14 -12 27.5 -28.5t13.5 -44.5q0 -55 -17.5 -102.5t-56.5 -102.5q-18 -14 -32.5 -20.5t-30.5 -30.5q-10 -31 -35 -40.5t-51 -35.5q-14 -14 -23.5 -22.5t-18.5 -13.5t-21.5 -9t-33.5 -11h-18t-24.5 2.5t-21.5 5.5t-9 9z" />
<glyph unicode="&#xc8;" horiz-adv-x="995" d="M39 29q0 51 76 51q16 6 32 14q31 14 52 21q43 8 58 26.5t15 85.5q0 10 7.5 21.5t-7.5 23.5q0 10 -2 21.5t-6 21.5q-4 12 -8 27v39v74v51l16 143v35q0 12 3.5 16.5t3.5 16.5v108v58v61q0 18 -20.5 29.5t-31.5 11.5h-57q-39 0 -56.5 33t-17.5 76q0 12 11.5 22t23.5 10h68 h41q12 0 37.5 3.5t64.5 3.5h141q12 0 23.5 -2.5t27 -3.5t37 -3t56.5 -2l67 17q16 4 31 8q12 4 24.5 6t18.5 2q14 0 35.5 -10t38.5 -23q14 -27 18 -63.5t17 -63.5q6 -6 14 -23.5t16 -33.5q8 -23 21 -45q0 -39 -51 -39q-12 0 -37 19.5t-64 43t-92 43t-127 19.5l-39 -10 q-12 -18 -23.5 -30.5t-11.5 -20.5v-19q-4 -16 -8 -31q-4 -12 -6 -24.5t-2 -18.5v-147q0 -31 12.5 -58.5t38.5 -27.5q6 0 20.5 2t30.5 6q18 4 39 8h41q16 0 29.5 8.5t26 17.5t23.5 17t24 8q6 0 14 -8t16 -18l21 -25v-135q0 -57 -51 -57q-23 0 -39.5 9t-28.5 19 q-23 8 -38 18.5t-38 10.5h-33h-40q-51 0 -65.5 -18.5t-14.5 -73.5v-51q6 -29 8 -57.5t7 -53t19.5 -42t45.5 -23.5h114q29 0 62.5 11t68.5 30q35 12 64.5 22t54.5 10q8 -6 16 -14q6 -6 12.5 -12t6.5 -13q0 -14 -10.5 -26t-24.5 -25q-29 -27 -41 -54.5t-23.5 -51t-27.5 -39 t-49 -15.5q-12 0 -22.5 3.5t-22 8.5t-26.5 8t-38 3l-198 -6l-70 -17h-109h-61l-41 -12l-61 -4q-10 0 -22.5 8t-23 19.5t-17.5 23t-7 17.5zM195 1890q-14 35 5 48t46 -3q8 -16 23.5 -38.5t37.5 -34.5q23 -16 43.5 -40t36.5 -46q78 -84 125 -158q6 -2 14.5 -13.5t16.5 -23.5 t16 -22.5t16 -10.5q6 -16 18.5 -34.5t26 -38t23.5 -41t12 -45.5q12 -4 13.5 -13.5t15.5 -9.5q8 -12 0 -27.5t-12 -29.5q-4 -23 -32 -39.5t-54 -12.5q-12 2 -30.5 19.5t-37 40t-35 43t-22.5 29.5q-16 23 -33.5 37t-34.5 42q-27 35 -44 77t-48 95q-2 18 -14.5 51t-28.5 68 t-33.5 71t-29.5 60z" />
<glyph unicode="&#xc9;" horiz-adv-x="995" d="M39 29q0 51 76 51q16 6 32 14q31 14 52 21q43 8 58 26.5t15 85.5q0 10 7.5 21.5t-7.5 23.5q0 10 -2 21.5t-6 21.5q-4 12 -8 27v39v74v51l16 143v35q0 12 3.5 16.5t3.5 16.5v108v58v61q0 18 -20.5 29.5t-31.5 11.5h-57q-39 0 -56.5 33t-17.5 76q0 12 11.5 22t23.5 10h68 h41q12 0 37.5 3.5t64.5 3.5h141q12 0 23.5 -2.5t27 -3.5t37 -3t56.5 -2l67 17q16 4 31 8q12 4 24.5 6t18.5 2q14 0 35.5 -10t38.5 -23q14 -27 18 -63.5t17 -63.5q6 -6 14 -23.5t16 -33.5q8 -23 21 -45q0 -39 -51 -39q-12 0 -37 19.5t-64 43t-92 43t-127 19.5l-39 -10 q-12 -18 -23.5 -30.5t-11.5 -20.5v-19q-4 -16 -8 -31q-4 -12 -6 -24.5t-2 -18.5v-147q0 -31 12.5 -58.5t38.5 -27.5q6 0 20.5 2t30.5 6q18 4 39 8h41q16 0 29.5 8.5t26 17.5t23.5 17t24 8q6 0 14 -8t16 -18l21 -25v-135q0 -57 -51 -57q-23 0 -39.5 9t-28.5 19 q-23 8 -38 18.5t-38 10.5h-33h-40q-51 0 -65.5 -18.5t-14.5 -73.5v-51q6 -29 8 -57.5t7 -53t19.5 -42t45.5 -23.5h114q29 0 62.5 11t68.5 30q35 12 64.5 22t54.5 10q8 -6 16 -14q6 -6 12.5 -12t6.5 -13q0 -14 -10.5 -26t-24.5 -25q-29 -27 -41 -54.5t-23.5 -51t-27.5 -39 t-49 -15.5q-12 0 -22.5 3.5t-22 8.5t-26.5 8t-38 3l-198 -6l-70 -17h-109h-61l-41 -12l-61 -4q-10 0 -22.5 8t-23 19.5t-17.5 23t-7 17.5zM479 1333q0 16 10.5 29.5t22.5 44.5q0 16 12.5 37.5t22.5 36.5q0 35 11 52t11 44q0 31 8.5 46t8.5 28q27 31 49 62.5t49 58.5 q29 39 56.5 77.5t56.5 69.5q14 0 29.5 3t27.5 20q16 0 30.5 8t33.5 8q25 0 28.5 -22.5t3.5 -39.5v-34v-39q0 -29 -6 -46.5t-18.5 -32.5t-29.5 -30.5t-42 -40.5q-29 -29 -48.5 -56.5t-47.5 -55.5q-14 -14 -18.5 -27.5t-16.5 -30.5q-14 -25 -28.5 -40t-27 -29.5t-24.5 -33 t-22 -44.5q-4 -8 -11.5 -22.5t-16.5 -29t-20.5 -24.5t-25.5 -10q-27 0 -47.5 16.5t-20.5 46.5z" />
<glyph unicode="&#xca;" horiz-adv-x="995" d="M39 29q0 51 76 51q16 6 32 14q31 14 52 21q43 8 58 26.5t15 85.5q0 10 7.5 21.5t-7.5 23.5q0 10 -2 21.5t-6 21.5q-4 12 -8 27v39v74v51l16 143v35q0 12 3.5 16.5t3.5 16.5v108v58v61q0 18 -20.5 29.5t-31.5 11.5h-57q-39 0 -56.5 33t-17.5 76q0 12 11.5 22t23.5 10h68 h41q12 0 37.5 3.5t64.5 3.5h141q12 0 23.5 -2.5t27 -3.5t37 -3t56.5 -2l67 17q16 4 31 8q12 4 24.5 6t18.5 2q14 0 35.5 -10t38.5 -23q14 -27 18 -63.5t17 -63.5q6 -6 14 -23.5t16 -33.5q8 -23 21 -45q0 -39 -51 -39q-12 0 -37 19.5t-64 43t-92 43t-127 19.5l-39 -10 q-12 -18 -23.5 -30.5t-11.5 -20.5v-19q-4 -16 -8 -31q-4 -12 -6 -24.5t-2 -18.5v-147q0 -31 12.5 -58.5t38.5 -27.5q6 0 20.5 2t30.5 6q18 4 39 8h41q16 0 29.5 8.5t26 17.5t23.5 17t24 8q6 0 14 -8t16 -18l21 -25v-135q0 -57 -51 -57q-23 0 -39.5 9t-28.5 19 q-23 8 -38 18.5t-38 10.5h-33h-40q-51 0 -65.5 -18.5t-14.5 -73.5v-51q6 -29 8 -57.5t7 -53t19.5 -42t45.5 -23.5h114q29 0 62.5 11t68.5 30q35 12 64.5 22t54.5 10q8 -6 16 -14q6 -6 12.5 -12t6.5 -13q0 -14 -10.5 -26t-24.5 -25q-29 -27 -41 -54.5t-23.5 -51t-27.5 -39 t-49 -15.5q-12 0 -22.5 3.5t-22 8.5t-26.5 8t-38 3l-198 -6l-70 -17h-109h-61l-41 -12l-61 -4q-10 0 -22.5 8t-23 19.5t-17.5 23t-7 17.5zM217 1280q4 18 8 33.5t15 23.5l10 29q10 35 28.5 61.5t40.5 53.5l29 45q10 10 31.5 47t50.5 82t60.5 91t62.5 77q12 12 22.5 27.5 t22.5 27.5l57 47l29 -29q12 -10 24.5 -31.5t26.5 -41.5q14 -25 32.5 -49.5t37 -55t34 -68.5t21.5 -85l29 -45l16 -29q10 -35 16.5 -60.5t6.5 -64.5q0 -10 -2 -29.5t-8.5 -38t-18.5 -32t-33 -13.5q-18 0 -30.5 13.5t-19.5 32t-13 36t-12 25.5q-12 18 -25.5 42.5t-36.5 37.5 q-14 47 -23.5 80.5t-21.5 68.5q-10 29 -29.5 51.5t-46.5 45.5q-8 -10 -15 -24.5t-11 -27.5l-19 -41q-37 -31 -50 -50t-23.5 -37.5t-27 -40t-59.5 -54.5l-28 -27q-25 -27 -40.5 -44t-26.5 -31.5t-19 -24.5t-21 -20h-12q-16 0 -23.5 8t-15.5 8z" />
<glyph unicode="&#xcb;" horiz-adv-x="995" d="M39 29q0 51 76 51q16 6 32 14q31 14 52 21q43 8 58 26.5t15 85.5q0 10 7.5 21.5t-7.5 23.5q0 10 -2 21.5t-6 21.5q-4 12 -8 27v39v74v51l16 143v35q0 12 3.5 16.5t3.5 16.5v108v58v61q0 18 -20.5 29.5t-31.5 11.5h-57q-39 0 -56.5 33t-17.5 76q0 12 11.5 22t23.5 10h68 h41q12 0 37.5 3.5t64.5 3.5h141q12 0 23.5 -2.5t27 -3.5t37 -3t56.5 -2l67 17q16 4 31 8q12 4 24.5 6t18.5 2q14 0 35.5 -10t38.5 -23q14 -27 18 -63.5t17 -63.5q6 -6 14 -23.5t16 -33.5q8 -23 21 -45q0 -39 -51 -39q-12 0 -37 19.5t-64 43t-92 43t-127 19.5l-39 -10 q-12 -18 -23.5 -30.5t-11.5 -20.5v-19q-4 -16 -8 -31q-4 -12 -6 -24.5t-2 -18.5v-147q0 -31 12.5 -58.5t38.5 -27.5q6 0 20.5 2t30.5 6q18 4 39 8h41q16 0 29.5 8.5t26 17.5t23.5 17t24 8q6 0 14 -8t16 -18l21 -25v-135q0 -57 -51 -57q-23 0 -39.5 9t-28.5 19 q-23 8 -38 18.5t-38 10.5h-33h-40q-51 0 -65.5 -18.5t-14.5 -73.5v-51q6 -29 8 -57.5t7 -53t19.5 -42t45.5 -23.5h114q29 0 62.5 11t68.5 30q35 12 64.5 22t54.5 10q8 -6 16 -14q6 -6 12.5 -12t6.5 -13q0 -14 -10.5 -26t-24.5 -25q-29 -27 -41 -54.5t-23.5 -51t-27.5 -39 t-49 -15.5q-12 0 -22.5 3.5t-22 8.5t-26.5 8t-38 3l-198 -6l-70 -17h-109h-61l-41 -12l-61 -4q-10 0 -22.5 8t-23 19.5t-17.5 23t-7 17.5zM74 1452q2 23 16 38t33.5 24.5t44.5 15.5t49 12q14 6 24.5 19.5t20.5 27t22.5 23.5t28.5 10q12 0 20.5 -8t14.5 -20.5t11.5 -27 t11.5 -24.5q12 -25 27.5 -44t29.5 -38.5t23.5 -41t9.5 -52.5q0 -12 -10.5 -20.5t-24.5 -15.5t-29.5 -14t-25.5 -18q-12 -12 -19.5 -25t-13.5 -22.5t-15.5 -15.5t-25.5 -6q-25 0 -39 11t-26.5 26.5t-27 33t-34.5 27.5q-16 10 -33.5 30.5t-32 40t-22.5 36t-8 18.5zM608 1462 q0 18 16.5 24.5t30.5 22.5q29 29 61 48.5t70 41.5q10 4 16.5 13.5t11.5 17.5t11 14.5t17 6.5q18 0 29.5 -12.5t19.5 -30t16 -37t21 -33.5q12 -18 28.5 -28.5t30.5 -21.5t23.5 -24.5t9.5 -33.5q0 -18 -11.5 -32t-26.5 -25t-32.5 -23.5t-27.5 -28.5q-12 -23 -26.5 -40 t-41.5 -17t-36 16t-32 29q-16 14 -34.5 19t-34.5 28q-16 29 -24.5 40t-37.5 27q-14 10 -30.5 14.5t-16.5 24.5z" />
<glyph unicode="&#xcc;" horiz-adv-x="598" d="M-74 1890q-12 35 6 48t45 -3q8 -16 24.5 -38.5t37.5 -34.5q23 -16 43 -40t37 -46q74 -80 127 -158q6 -2 13 -13.5t15.5 -23.5t16.5 -22.5t16 -10.5q6 -16 18.5 -34.5t26 -38t23.5 -41t12 -45.5q12 -4 14 -13.5t15 -9.5q8 -12 0 -27.5t-13 -29.5q-4 -23 -31.5 -39.5 t-52.5 -12.5q-12 2 -31.5 19.5t-38 40t-33.5 43t-21 29.5q-18 23 -36 37t-34 42q-27 35 -44.5 77t-45.5 95q-2 18 -14.5 51t-29 68t-34.5 71t-31 60zM45 1104q0 8 2 16q2 6 5 12.5t11 6.5h39h74q8 0 19.5 -2t21.5 -7q10 -4 23 -8q12 0 30.5 2t34.5 6q20 4 43 9h23q8 0 20 8 l8 8q6 0 20.5 -3t31 -6t32 -5t23.5 -2q4 0 14 -8.5t19.5 -20.5t16.5 -27.5t7 -29.5q0 -8 -24.5 -14.5t-55 -12.5t-55.5 -14t-25 -21v-143q4 -16 11 -31q4 -12 8 -24.5t4 -18.5l-23 -96q0 -6 3.5 -22.5t8.5 -35t8 -35t3 -22.5l18 -102q0 -43 -9 -80t-9 -51v-58 q0 -12 -11.5 -21t-11.5 -52q0 -8 6.5 -19.5t15.5 -20.5t19.5 -15.5t16.5 -6.5l45 -12q57 -27 57 -86q0 -25 -33.5 -40t-68.5 -15h-35h-39h-39l-76 22q-12 0 -34.5 -6t-47 -14.5t-45 -14.5t-26.5 -6q-12 0 -34 13.5t-22 27.5q0 23 24 40t51.5 34.5t47 38t13.5 51.5 q-16 31 -8 46t8 30v55v137v297l-23 56q4 23 10 43q4 16 8.5 31.5t4.5 23.5q0 41 -6.5 64.5t-16.5 37.5q-10 10 -22.5 13.5t-25.5 4.5t-27.5 3t-26.5 8q-12 8 -20.5 26.5t-8.5 57.5z" />
<glyph unicode="&#xcd;" horiz-adv-x="598" d="M45 1104q0 8 2 16q2 6 5 12.5t11 6.5h39h74q8 0 19.5 -2t21.5 -7q10 -4 23 -8q12 0 30.5 2t34.5 6q20 4 43 9h23q8 0 20 8l8 8q6 0 20.5 -3t31 -6t32 -5t23.5 -2q4 0 14 -8.5t19.5 -20.5t16.5 -27.5t7 -29.5q0 -8 -24.5 -14.5t-55 -12.5t-55.5 -14t-25 -21v-143 q4 -16 11 -31q4 -12 8 -24.5t4 -18.5l-23 -96q0 -6 3.5 -22.5t8.5 -35t8 -35t3 -22.5l18 -102q0 -43 -9 -80t-9 -51v-58q0 -12 -11.5 -21t-11.5 -52q0 -8 6.5 -19.5t15.5 -20.5t19.5 -15.5t16.5 -6.5l45 -12q57 -27 57 -86q0 -25 -33.5 -40t-68.5 -15h-35h-39h-39l-76 22 q-12 0 -34.5 -6t-47 -14.5t-45 -14.5t-26.5 -6q-12 0 -34 13.5t-22 27.5q0 23 24 40t51.5 34.5t47 38t13.5 51.5q-16 31 -8 46t8 30v55v137v297l-23 56q4 23 10 43q4 16 8.5 31.5t4.5 23.5q0 41 -6.5 64.5t-16.5 37.5q-10 10 -22.5 13.5t-25.5 4.5t-27.5 3t-26.5 8 q-12 8 -20.5 26.5t-8.5 57.5zM188 1333q0 16 10.5 29.5t22.5 44.5q0 16 13.5 37.5t21.5 36.5q0 35 11.5 52t11.5 44q0 31 9 46t9 28q25 31 47.5 62.5t48.5 58.5q29 39 56.5 77.5t56.5 69.5q14 0 29.5 3t27.5 20q16 0 31.5 8t32.5 8q25 0 28.5 -22.5t3.5 -39.5v-34v-39 q0 -29 -6 -46.5t-18 -32.5t-29.5 -30.5t-42.5 -40.5q-29 -29 -48 -56.5t-48 -55.5q-12 -14 -16.5 -27.5t-18.5 -30.5q-14 -25 -28.5 -40t-26.5 -29.5t-24.5 -33t-22.5 -44.5q-4 -8 -10.5 -22.5t-15.5 -29t-21.5 -24.5t-26.5 -10q-27 0 -47.5 16.5t-20.5 46.5z" />
<glyph unicode="&#xce;" horiz-adv-x="598" d="M-45 1280q4 18 8 33.5t14 23.5l11 29q10 35 28.5 61.5t40.5 53.5l29 45q10 10 32.5 47t50.5 82t59.5 91t62.5 77q12 12 22.5 27.5t22.5 27.5l57 47l29 -29q12 -10 24.5 -31.5t26.5 -41.5q14 -25 33.5 -49.5t38 -55t33 -68.5t20.5 -85l29 -45l16 -29q10 -35 16.5 -60.5 t6.5 -64.5q0 -10 -2 -29.5t-8.5 -38t-18.5 -32t-33 -13.5q-18 0 -30.5 13.5t-19.5 32t-12 36t-12 25.5q-14 18 -27.5 42.5t-35.5 37.5q-12 47 -22.5 80.5t-22.5 68.5q-10 29 -29.5 51.5t-44.5 45.5q-10 -10 -17 -24.5t-12 -27.5l-18 -41q-37 -31 -50 -50t-23.5 -37.5 t-27 -40t-59.5 -54.5l-26 -27q-27 -27 -42.5 -44t-26.5 -31.5t-19.5 -24.5t-20.5 -20h-12q-16 0 -23.5 8t-15.5 8zM45 1104q0 8 2 16q2 6 5 12.5t11 6.5h39h74q8 0 19.5 -2t21.5 -7q10 -4 23 -8q12 0 30.5 2t34.5 6q20 4 43 9h23q8 0 20 8l8 8q6 0 20.5 -3t31 -6t32 -5 t23.5 -2q4 0 14 -8.5t19.5 -20.5t16.5 -27.5t7 -29.5q0 -8 -24.5 -14.5t-55 -12.5t-55.5 -14t-25 -21v-143q4 -16 11 -31q4 -12 8 -24.5t4 -18.5l-23 -96q0 -6 3.5 -22.5t8.5 -35t8 -35t3 -22.5l18 -102q0 -43 -9 -80t-9 -51v-58q0 -12 -11.5 -21t-11.5 -52q0 -8 6.5 -19.5 t15.5 -20.5t19.5 -15.5t16.5 -6.5l45 -12q57 -27 57 -86q0 -25 -33.5 -40t-68.5 -15h-35h-39h-39l-76 22q-12 0 -34.5 -6t-47 -14.5t-45 -14.5t-26.5 -6q-12 0 -34 13.5t-22 27.5q0 23 24 40t51.5 34.5t47 38t13.5 51.5q-16 31 -8 46t8 30v55v137v297l-23 56q4 23 10 43 q4 16 8.5 31.5t4.5 23.5q0 41 -6.5 64.5t-16.5 37.5q-10 10 -22.5 13.5t-25.5 4.5t-27.5 3t-26.5 8q-12 8 -20.5 26.5t-8.5 57.5z" />
<glyph unicode="&#xcf;" horiz-adv-x="598" d="M-166 1452q2 23 16.5 38t34 24.5t44 15.5t48.5 12q14 6 24.5 19.5l21 27t22.5 23.5t29 10q12 0 20 -8t14.5 -20.5t11.5 -27t11 -24.5q12 -25 28.5 -44t30 -38.5t22.5 -41t9 -52.5q0 -12 -10 -20.5t-24.5 -15.5t-30 -14t-25.5 -18q-12 -12 -19.5 -25t-13.5 -22.5 t-15 -15.5t-26 -6q-25 0 -39 11t-26 26.5t-25.5 33t-34.5 27.5q-18 10 -35.5 30.5t-30.5 40t-22.5 36t-9.5 18.5zM45 1104q0 8 2 16q2 6 5 12.5t11 6.5h39h74q8 0 19.5 -2t21.5 -7q10 -4 23 -8q12 0 30.5 2t34.5 6q20 4 43 9h23q8 0 20 8l8 8q6 0 20.5 -3t31 -6t32 -5 t23.5 -2q4 0 14 -8.5t19.5 -20.5t16.5 -27.5t7 -29.5q0 -8 -24.5 -14.5t-55 -12.5t-55.5 -14t-25 -21v-143q4 -16 11 -31q4 -12 8 -24.5t4 -18.5l-23 -96q0 -6 3.5 -22.5t8.5 -35t8 -35t3 -22.5l18 -102q0 -43 -9 -80t-9 -51v-58q0 -12 -11.5 -21t-11.5 -52q0 -8 6.5 -19.5 t15.5 -20.5t19.5 -15.5t16.5 -6.5l45 -12q57 -27 57 -86q0 -25 -33.5 -40t-68.5 -15h-35h-39h-39l-76 22q-12 0 -34.5 -6t-47 -14.5t-45 -14.5t-26.5 -6q-12 0 -34 13.5t-22 27.5q0 23 24 40t51.5 34.5t47 38t13.5 51.5q-16 31 -8 46t8 30v55v137v297l-23 56q4 23 10 43 q4 16 8.5 31.5t4.5 23.5q0 41 -6.5 64.5t-16.5 37.5q-10 10 -22.5 13.5t-25.5 4.5t-27.5 3t-26.5 8q-12 8 -20.5 26.5t-8.5 57.5zM371 1462q0 18 16.5 24.5t28.5 22.5q29 29 60.5 48.5t70.5 41.5q10 4 16 13.5t12.5 17.5t12.5 14.5t16 6.5q18 0 29.5 -12.5t20 -30t15.5 -37 t19 -33.5q12 -18 28.5 -28.5t31 -21.5t23.5 -24.5t9 -33.5q0 -18 -11 -32t-26.5 -25t-32 -23.5t-26.5 -28.5q-14 -23 -28.5 -40t-41.5 -17q-25 0 -35 16t-32 29q-16 14 -33.5 19t-34.5 28q-18 29 -26.5 40t-36.5 27q-12 10 -28.5 14.5t-16.5 24.5z" />
<glyph unicode="&#xd0;" horiz-adv-x="1998" d="M35 342q0 82 10 145.5t40 120t83 112.5t139 128q-4 -8 28 12.5t78 49t97 55t88 30.5q55 8 112.5 25.5t115 33t113.5 28t110 12.5h32q35 0 81 14t85 18q10 0 19.5 -1t17.5 -1q8 -2 14 -2h13.5t19.5 2q11 0 25 2q8 0 16 -2t12 -2h148q8 0 16 2t13 2q18 0 41.5 -8t48 -20.5 t47 -24.5t39.5 -20q20 -10 65 -54.5t90 -99.5t79 -110.5t34 -88.5v-34q0 -12 2 -40t2 -44q0 -10 3 -27.5t3 -48.5q-4 -8 -5 -18.5t-1 -14.5v-29q0 -23 -17.5 -64.5t-47 -87.5t-71.5 -89t-91 -66q4 2 -22.5 -20.5t-67.5 -50t-88.5 -50t-83.5 -22.5q-2 0 -13.5 2t-25 4 t-25.5 4t-16 2q-16 0 -41 -5t-50.5 -12t-51 -12.5t-44.5 -5.5q-39 0 -79.5 10.5t-79.5 24.5q-2 0 -13.5 -2t-25 -4t-23.5 -4t-12 -2l-47 6q-4 0 -18.5 -3t-26.5 -3q-39 2 -79 1t-73 4t-54.5 19.5t-21.5 49.5q0 16 28 31.5t70 28.5t90 27.5t90 32t69.5 38t27.5 46.5v195 q-8 0 -13 -3t-9 -3h-11q-16 0 -42.5 -3t-49.5 -3h-10q-4 0 -13 -2t-22 -2q-23 0 -48.5 -1t-53.5 11l-29 12q-6 8 -3 21.5t11.5 27t20.5 24.5t22 17q59 10 123 23.5t123 17.5q-4 111 -5 157t-1 58v12q0 6 -1 17.5t-4 23t-10.5 19.5t-19.5 8q-33 0 -101.5 -15.5t-140 -36 t-131 -40t-71.5 -27.5q-39 -25 -87 -62.5t-91 -81.5t-72 -92t-29 -93q0 -47 -14 -81t-39 -55.5t-55.5 -32t-61.5 -10.5h-41q-6 0 -16 8.5t-20.5 18.5t-17.5 22.5t-7 20.5zM1278 359.5q-2 -31.5 2 -68.5t21.5 -66.5t58.5 -29.5q33 0 101.5 16t138 54t123 101.5t53.5 157.5 q0 4 -7.5 24.5t-15.5 46.5t-15 51.5t-7 37.5q-6 57 -49.5 99t-101.5 69t-119.5 40t-104.5 13q-47 0 -57.5 -22.5t-18.5 -73.5v-195l53 7h10q12 0 26.5 6t31.5 6q8 0 16 -4t19 -8q16 10 30.5 16t36.5 6q8 0 19.5 -1t19.5 -5q4 -2 7 -22.5t-3 -47t-25.5 -55.5t-62.5 -45 q-14 4 -60 10t-89 6q-29 0 -29 -21.5v-68.5q0 -2 -2 -33.5z" />
<glyph unicode="&#xd1;" horiz-adv-x="1673" d="M35 96q0 16 18.5 28.5t32.5 12.5h44t14 1t4.5 1t12.5 1t38.5 1h85.5q14 0 24 9.5t16.5 21.5t8.5 25.5t2 19.5q-4 8 -6 16q-6 12 -6 29q0 31 -3.5 50.5t-8.5 33.5t-8 25.5t-3 27.5q0 14 3 35t7 37q6 20 13 41v137q0 12 -3.5 28.5t-19.5 33.5q0 25 10 30q6 4 13 4 q-2 8 -8.5 22.5t-13.5 29t-12 27t-5 18.5q0 43 -33 65.5t-73 43t-72.5 47t-32.5 77.5q8 20 16 37q8 14 17.5 26.5t23.5 12.5h193q27 0 45 -2t34 -16q27 -16 34 -29.5t24 -28.5q14 -41 42.5 -50t53.5 -30q25 -20 48.5 -50t48 -62.5t47 -63.5t44.5 -51q31 -35 52.5 -73 t68.5 -62q12 -10 47 -47t77 -79t81 -75t62 -33q14 0 19 6.5t5 15.5t-3 18.5t-3 15.5v153q0 18 11.5 43t11.5 60v172q-8 6 -22.5 20.5t-29 29.5t-28 27.5t-19.5 12.5h-39q-12 0 -28.5 7t-30.5 17.5t-23.5 19.5t-9.5 13v64q0 20 9.5 32.5t23.5 17.5t30.5 6t28.5 1h39 q14 0 38 -3t49.5 -6t49 -6t41.5 -3h285q41 0 77 -18.5t36 -61.5q0 -16 -2 -27.5t-15 -30.5q-47 -29 -91 -25.5t-85 3.5l-57 -17h-35q-16 0 -27.5 -23.5t-11.5 -49.5v-80v-17v-120v-97q0 -12 8 -36.5t8 -36.5v-115l-34 -199q0 -12 5 -32.5t12 -42t12 -41t5 -31.5 q0 -8 -1 -28.5t-4 -41t-10 -36t-19 -15.5h-27.5t-40 2t-36 6t-15.5 10q-29 29 -48.5 70t-47.5 66q-23 31 -43.5 51t-40 38.5t-37 39t-29.5 49.5q-23 51 -70 98t-99 94t-102 95.5t-81 99.5q0 6 -6 19.5t-16.5 25.5t-24 22.5t-27.5 10.5q-39 0 -39 -62v-153v-80l17 -115 q0 -41 -3.5 -56.5t-3.5 -45.5q0 -39 24 -58.5t58.5 -30t74.5 -15.5t75 -13t58.5 -25.5t23.5 -50.5q0 -16 -10.5 -19t-24.5 -3h-233l-132 -19q-16 14 -40.5 16.5t-38.5 2.5h-39q-43 0 -63.5 11t-51.5 11h-74l-16 -22h-41q0 8 -1 27.5t-1 37.5q-2 23 -2 47zM381 1229v28 q0 27 6 43.5t6 42.5q0 39 18.5 69t43.5 46q10 0 19 1t22 9q16 14 28.5 27.5t28.5 13.5q29 0 50.5 -2t51.5 -16h18.5t14.5 -4q16 0 36.5 -10.5t43.5 -18.5q27 -16 62.5 -40.5t58.5 -33.5q35 -14 75 -21t66 -7h28.5t22.5 4q23 14 27 35.5t14 44.5q8 10 1 33.5t-7 46.5 q0 10 -6 14t-6 27q0 25 22.5 41t51.5 16q23 0 38 -7t25 -18q23 -8 32 -16t19 -16q10 -14 11.5 -31t1.5 -39q0 -41 -17.5 -79t-46.5 -69q-10 -8 -17 -23t-18 -28q-41 -27 -100 -50t-115 -23q-41 0 -76.5 12t-69.5 28.5t-68 34t-70 27.5q-16 0 -37 6t-43 6q-43 0 -82 -13 t-78 -56q-16 -4 -22.5 -19.5t-22.5 -15.5h-41z" />
<glyph unicode="&#xd2;" horiz-adv-x="1234" d="M23 614q0 20 4 37t10 34t14 35.5t17 47.5q0 31 9 57.5t25 57.5q0 6 18.5 38.5t45.5 69.5t56.5 66.5t49.5 29.5l58 23q27 0 48 2t44 14q23 10 43 17.5t41 7.5h98h39l74 -18h41q27 -8 49 -17q20 -8 38.5 -15t24.5 -14q31 -16 71 -27t67 -40q16 -14 33.5 -49t33.5 -49 q70 -59 89.5 -113.5t19.5 -97.5l-6 -136v-57q0 -23 -17.5 -67.5t-41 -94t-44 -91.5t-26.5 -54q-14 -43 -50 -70.5t-71 -44.5q-55 -43 -103.5 -77.5t-107.5 -34.5q-25 0 -48.5 5t-64.5 5q-8 0 -20.5 -1t-26.5 -3q-16 -2 -33 -2h-35q-16 0 -41.5 6t-48.5 16q-27 10 -57 25 q-55 25 -112.5 54.5t-92.5 98.5q-43 102 -78.5 213t-35.5 213zM205 1890q-12 35 6 48t45 -3q10 -16 25.5 -38.5t37.5 -34.5q23 -16 42.5 -40t37.5 -46q39 -41 69 -80t56 -78q6 -2 13.5 -13.5t15.5 -23.5t16.5 -22.5t16.5 -10.5q6 -16 19 -34.5t25.5 -38t23 -41t12.5 -45.5 q14 -4 15 -13.5t13 -9.5q10 -12 2 -27.5t-12 -29.5q-4 -23 -31.5 -39.5t-54.5 -12.5q-12 2 -31.5 19.5t-38 40t-34 43t-21.5 29.5q-16 23 -34.5 37t-35.5 42q-25 35 -43 77t-47 95q-2 18 -14 51t-28.5 68t-35 71t-30.5 60zM272 489q0 -29 36 -87t89.5 -116.5t113.5 -103.5 t110 -45h38q43 0 93.5 22.5t92.5 61.5t70.5 91.5t28.5 109.5v57v135q0 43 -11 69t-29.5 49.5t-43 53t-51.5 80.5q-16 12 -35.5 30.5t-41 35t-45 29t-44.5 12.5h-39q-16 0 -38.5 2t-45.5 6q-24 4 -53 10q-35 0 -70 -47t-62.5 -107.5t-45 -115.5t-17.5 -72v-35v-125z" />
<glyph unicode="&#xd3;" horiz-adv-x="1234" d="M23 614q0 20 4 37t10 34t14 35.5t17 47.5q0 31 9 57.5t25 57.5q0 6 18.5 38.5t45.5 69.5t56.5 66.5t49.5 29.5l58 23q27 0 48 2t44 14q23 10 43 17.5t41 7.5h98h39l74 -18h41q27 -8 49 -17q20 -8 38.5 -15t24.5 -14q31 -16 71 -27t67 -40q16 -14 33.5 -49t33.5 -49 q70 -59 89.5 -113.5t19.5 -97.5l-6 -136v-57q0 -23 -17.5 -67.5t-41 -94t-44 -91.5t-26.5 -54q-14 -43 -50 -70.5t-71 -44.5q-55 -43 -103.5 -77.5t-107.5 -34.5q-25 0 -48.5 5t-64.5 5q-8 0 -20.5 -1t-26.5 -3q-16 -2 -33 -2h-35q-16 0 -41.5 6t-48.5 16q-27 10 -57 25 q-55 25 -112.5 54.5t-92.5 98.5q-43 102 -78.5 213t-35.5 213zM272 489q0 -29 36 -87t89.5 -116.5t113.5 -103.5t110 -45h38q43 0 93.5 22.5t92.5 61.5t70.5 91.5t28.5 109.5v57v135q0 43 -11 69t-29.5 49.5t-43 53t-51.5 80.5q-16 12 -35.5 30.5t-41 35t-45 29t-44.5 12.5 h-39q-16 0 -38.5 2t-45.5 6q-24 4 -53 10q-35 0 -70 -47t-62.5 -107.5t-45 -115.5t-17.5 -72v-35v-125zM604 1333q0 16 10.5 29.5t22.5 44.5q0 16 12.5 37.5t22.5 36.5q0 35 11 52t11 44q0 31 8.5 46t8.5 28q27 31 49 62.5t49 58.5q29 39 56.5 77.5t56.5 69.5q14 0 29.5 3 t27.5 20q16 0 31.5 8t31.5 8q25 0 29 -22.5t4 -39.5v-34v-39q0 -29 -6 -46.5t-18.5 -32.5t-29.5 -30.5t-42 -40.5q-29 -29 -48.5 -56.5t-47.5 -55.5q-12 -14 -16.5 -27.5t-18.5 -30.5q-14 -25 -28.5 -40t-27 -29.5t-24.5 -33t-23 -44.5q-4 -8 -10 -22.5t-15 -29t-21.5 -24.5 t-26.5 -10q-27 0 -47.5 16.5t-20.5 46.5z" />
<glyph unicode="&#xd4;" horiz-adv-x="1234" d="M23 614q0 20 4 37t10 34t14 35.5t17 47.5q0 31 9 57.5t25 57.5q0 6 18.5 38.5t45.5 69.5t56.5 66.5t49.5 29.5l58 23q27 0 48 2t44 14q23 10 43 17.5t41 7.5h98h39l74 -18h41q27 -8 49 -17q20 -8 38.5 -15t24.5 -14q31 -16 71 -27t67 -40q16 -14 33.5 -49t33.5 -49 q70 -59 89.5 -113.5t19.5 -97.5l-6 -136v-57q0 -23 -17.5 -67.5t-41 -94t-44 -91.5t-26.5 -54q-14 -43 -50 -70.5t-71 -44.5q-55 -43 -103.5 -77.5t-107.5 -34.5q-25 0 -48.5 5t-64.5 5q-8 0 -20.5 -1t-26.5 -3q-16 -2 -33 -2h-35q-16 0 -41.5 6t-48.5 16q-27 10 -57 25 q-55 25 -112.5 54.5t-92.5 98.5q-43 102 -78.5 213t-35.5 213zM262 1280q4 18 8 33.5t15 23.5l12 29q8 35 26.5 61.5t41.5 53.5l28 45q10 10 33 47t50.5 82t59 91t62.5 77q12 12 22.5 27.5t22.5 27.5l57 47l29 -29q12 -10 25.5 -31.5t25.5 -41.5q14 -25 34 -49.5t38 -55 t32.5 -68.5t20.5 -85l29 -45l16 -29q10 -35 16.5 -60.5t6.5 -64.5q0 -10 -2 -29.5t-8.5 -38t-18.5 -32t-33 -13.5q-18 0 -30.5 13.5t-19.5 32t-12 36t-11 25.5q-14 18 -27.5 42.5t-36.5 37.5q-12 47 -22.5 80.5t-22.5 68.5q-10 29 -29.5 51.5t-44.5 45.5q-10 -10 -17 -24.5 t-11 -27.5l-19 -41q-37 -31 -50 -50t-22.5 -37.5t-25.5 -40t-59 -54.5l-29 -27q-27 -27 -42 -44t-25.5 -31.5t-19.5 -24.5t-22 -20h-12q-16 0 -23.5 8t-15.5 8zM272 489q0 -29 36 -87t89.5 -116.5t113.5 -103.5t110 -45h38q43 0 93.5 22.5t92.5 61.5t70.5 91.5t28.5 109.5 v57v135q0 43 -11 69t-29.5 49.5t-43 53t-51.5 80.5q-16 12 -35.5 30.5t-41 35t-45 29t-44.5 12.5h-39q-16 0 -38.5 2t-45.5 6q-24 4 -53 10q-35 0 -70 -47t-62.5 -107.5t-45 -115.5t-17.5 -72v-35v-125z" />
<glyph unicode="&#xd5;" horiz-adv-x="1234" d="M23 614q0 20 4 37t10 34t14 35.5t17 47.5q0 31 9 57.5t25 57.5q0 6 18.5 38.5t45.5 69.5t56.5 66.5t49.5 29.5l58 23q27 0 48 2t44 14q23 10 43 17.5t41 7.5h98h39l74 -18h41q27 -8 49 -17q20 -8 38.5 -15t24.5 -14q31 -16 71 -27t67 -40q16 -14 33.5 -49t33.5 -49 q70 -59 89.5 -113.5t19.5 -97.5l-6 -136v-57q0 -23 -17.5 -67.5t-41 -94t-44 -91.5t-26.5 -54q-14 -43 -50 -70.5t-71 -44.5q-55 -43 -103.5 -77.5t-107.5 -34.5q-25 0 -48.5 5t-64.5 5q-8 0 -20.5 -1t-26.5 -3q-16 -2 -33 -2h-35q-16 0 -41.5 6t-48.5 16q-27 10 -57 25 q-55 25 -112.5 54.5t-92.5 98.5q-43 102 -78.5 213t-35.5 213zM182 1229v28q0 27 6.5 43.5t6.5 42.5q0 39 17 69t44 46q10 0 18.5 1t22.5 9q16 14 27.5 27.5t27.5 13.5q31 0 52.5 -2t50.5 -16h20t14 -4q16 0 37 -10.5t43 -18.5q27 -16 62 -40.5t57 -33.5q35 -14 76 -21 t67 -7h26.5t25.5 4q23 14 26.5 35.5t12.5 44.5q10 10 3 33.5t-7 46.5q0 10 -6.5 14t-6.5 27q0 25 22.5 41t51.5 16q23 0 38 -7t25 -18q23 -8 32 -16t20 -16q8 -14 9 -31t1 -39q0 -82 -62 -148q-10 -8 -17 -23t-17 -28q-43 -27 -101.5 -50t-115.5 -23q-41 0 -76 12t-70 28.5 t-68.5 34t-70.5 27.5q-16 0 -36.5 6t-43.5 6q-41 0 -80 -13t-78 -56q-16 -4 -22 -19.5t-25 -15.5h-39zM272 489q0 -29 36 -87t89.5 -116.5t113.5 -103.5t110 -45h38q43 0 93.5 22.5t92.5 61.5t70.5 91.5t28.5 109.5v57v135q0 43 -11 69t-29.5 49.5t-43 53t-51.5 80.5 q-16 12 -35.5 30.5t-41 35t-45 29t-44.5 12.5h-39q-16 0 -38.5 2t-45.5 6q-24 4 -53 10q-35 0 -70 -47t-62.5 -107.5t-45 -115.5t-17.5 -72v-35v-125z" />
<glyph unicode="&#xd6;" horiz-adv-x="1234" d="M23 614q0 20 4 37t10 34t14 35.5t17 47.5q0 31 9 57.5t25 57.5q0 6 18.5 38.5t45.5 69.5t56.5 66.5t49.5 29.5l58 23q27 0 48 2t44 14q23 10 43 17.5t41 7.5h98h39l74 -18h41q27 -8 49 -17q20 -8 38.5 -15t24.5 -14q31 -16 71 -27t67 -40q16 -14 33.5 -49t33.5 -49 q70 -59 89.5 -113.5t19.5 -97.5l-6 -136v-57q0 -23 -17.5 -67.5t-41 -94t-44 -91.5t-26.5 -54q-14 -43 -50 -70.5t-71 -44.5q-55 -43 -103.5 -77.5t-107.5 -34.5q-25 0 -48.5 5t-64.5 5q-8 0 -20.5 -1t-26.5 -3q-16 -2 -33 -2h-35q-16 0 -41.5 6t-48.5 16q-27 10 -57 25 q-55 25 -112.5 54.5t-92.5 98.5q-43 102 -78.5 213t-35.5 213zM137 1452q2 23 15.5 38t34 24.5t45 15.5t47.5 12q14 6 25 19.5t21.5 27t21.5 23.5t28 10q12 0 20 -8t14.5 -20.5t11.5 -27t11 -24.5q12 -25 28.5 -44t31 -38.5t23.5 -41t9 -52.5q0 -12 -10 -20.5t-24.5 -15.5 t-31 -14t-26.5 -18q-12 -12 -19 -25t-13.5 -22.5t-15.5 -15.5t-26 -6q-23 0 -37 11t-26 26.5t-26.5 33t-35.5 27.5q-16 10 -33.5 30.5t-31.5 40t-22.5 36t-8.5 18.5zM272 489q0 -29 36 -87t89.5 -116.5t113.5 -103.5t110 -45h38q43 0 93.5 22.5t92.5 61.5t70.5 91.5 t28.5 109.5v57v135q0 43 -11 69t-29.5 49.5t-43 53t-51.5 80.5q-16 12 -35.5 30.5t-41 35t-45 29t-44.5 12.5h-39q-16 0 -38.5 2t-45.5 6q-24 4 -53 10q-35 0 -70 -47t-62.5 -107.5t-45 -115.5t-17.5 -72v-35v-125zM672 1462q0 18 16.5 24.5t28.5 22.5q31 29 61.5 48.5 t69.5 41.5q10 4 16 13.5t12.5 17.5t12.5 14.5t16 6.5q18 0 29.5 -12.5t20 -30t16.5 -37t20 -33.5q12 -18 27.5 -28.5t30 -21.5t23.5 -24.5t9 -33.5q0 -18 -11 -32t-26.5 -25t-32 -23.5t-26.5 -28.5q-12 -23 -27.5 -40t-39.5 -17q-27 0 -37.5 16t-32.5 29q-16 14 -33.5 19 t-34.5 28q-16 29 -24 40t-39 27q-12 10 -28.5 14.5t-16.5 24.5z" />
<glyph unicode="&#xd7;" horiz-adv-x="927" d="M147 764q16 16 28.5 33.5t29.5 33.5q8 6 22.5 16.5t28.5 17.5t28.5 10.5t22.5 -5.5q14 -14 28.5 -35.5t29 -44t28 -44t29.5 -35.5q16 -20 33.5 -15.5t40.5 27.5q4 6 24.5 29.5t44 49t45 48t27.5 27.5q18 18 29.5 23t22.5 1t22.5 -17.5t27.5 -29.5q23 -23 29 -40t-16 -34 q-12 -16 -36 -37.5t-49.5 -45t-49 -46t-35.5 -37.5q-18 -12 -20.5 -33.5t13.5 -33.5q39 -39 60.5 -64.5t64.5 -38.5q16 -4 40 0.5t28 -12.5q4 -12 -12.5 -36.5t-20.5 -37.5q-4 -4 -9 -11t-15 -17l-13.5 -13.5t-9.5 -15.5q-16 -12 -32.5 -14t-28.5 14l-23.5 23.5t-21.5 23.5 q-16 14 -33 36t-34 40t-35.5 25.5t-35.5 -5.5q-14 -4 -23 -15t-22 -26q-31 -35 -66.5 -82t-64.5 -75q-16 -14 -34.5 -4t-34.5 26q-16 23 -30.5 51.5t1.5 45.5q39 39 77 78.5t77 74.5q14 16 19 28.5l9 22.5q4 20 2 21.5t-18 17.5q-10 10 -17.5 20.5t-17.5 20.5l-16.5 16.5 t-12.5 18.5q-25 20 -33 22.5t-28 10.5q-39 -4 -59.5 12t-4.5 35z" />
<glyph unicode="&#xd8;" horiz-adv-x="1257" d="M51 608q0 20 3 37t8.5 32t12.5 33.5t15 47.5q0 29 11.5 58.5t23.5 53.5q0 8 18.5 41t46 70t58.5 65.5t53 28.5l57 29q23 0 43.5 2t42.5 16q27 8 47.5 15.5t43.5 7.5h131l73 -19h47q6 -2 15 -6q6 -4 16 -8t21 -8q10 27 18 43t14.5 28.5t13.5 24.5t15 35q12 0 32.5 6 t40 14.5t36 15.5t22.5 9q14 0 29.5 -16.5t27.5 -34.5q-4 -16 -10 -27.5t-12 -21t-12 -20.5t-11 -27q-8 -12 -13 -17.5t-10 -8.5t-11.5 -8t-16.5 -18q0 -8 -1 -19t-5 -20q12 -10 24.5 -16t20.5 -18q8 -6 16.5 -19.5t17.5 -28t17.5 -26.5t18.5 -16q72 -59 89 -117t17 -101 v-137v-57q0 -20 -18.5 -65.5t-41 -93.5t-45 -91t-30.5 -57q-14 -43 -50 -69t-65 -40q-59 -41 -108 -77t-109 -36q-25 0 -47 3.5t-65 3.5q-8 0 -20.5 -1t-26.5 -3q-16 -2 -33 -3h-35q-16 0 -39.5 6.5t-46.5 16.5q-27 8 -55 23h-13q-8 -29 -14 -42.5t-14 -23.5t-20.5 -24.5 t-30.5 -41.5q-16 -23 -41 -27.5t-39 -0.5l-17 28q12 43 23.5 61.5t27.5 35.5q2 10 4.5 15t4.5 8t4 8.5t4 15.5q4 8 11 16t11 17q-35 23 -62.5 47t-43.5 67q-43 98 -79 211t-36 215zM301 483q0 -25 26.5 -71.5t65.5 -98.5q14 25 32.5 55.5t36 58.5t29 49.5t11.5 29.5 q23 25 47 67.5t49 89t46.5 88.5t39.5 64q16 29 30.5 56.5t37.5 56.5q-23 12 -43.5 23.5t-42.5 11.5h-39q-31 0 -82 10q-27 6 -56 12q-35 0 -67.5 -48t-60 -107.5t-44 -116t-16.5 -70.5v-160zM479 221q41 -39 86 -64.5t84 -25.5h35q43 0 92 21.5t92 60.5t72 91t29 112v192 q0 39 -10.5 63.5t-28 47t-40 50.5t-48.5 73q-25 -35 -50.5 -77t-47 -82t-41 -74t-31.5 -52q-4 -16 -22.5 -54t-40 -78t-43 -73t-31.5 -39q0 -16 -8.5 -28.5t-18.5 -22.5t-18.5 -20.5t-10.5 -20.5z" />
<glyph unicode="&#xd9;" horiz-adv-x="1280" d="M23 1075q0 27 22.5 53.5t50.5 26.5l99 23h38q12 0 48 -11.5t67 -11.5h170q29 0 34 -12.5t5 -20.5q0 -45 -12.5 -62.5t-31.5 -22.5t-40.5 -5t-41 -9t-32 -34.5t-12.5 -83.5q0 -6 2 -19.5t5 -28.5t6 -28.5t3 -19.5v-57v-308v-137q-12 -27 -6 -34t6 -23l23 -55 q20 -31 38.5 -49.5t41 -30t53.5 -15.5t78 -4q14 0 49 12.5t66 28.5q6 14 19 27.5t31.5 37t40 61.5t46.5 102v79q0 14 2 53.5t5 82.5t6 81t3 50q-4 6 -8 14q-8 16 -8 27v96l-19 115v38q0 23 -14 30t-31 11q-23 4 -40 8.5t-17 24.5q0 18 8 35.5t19.5 33t26 25t26.5 9.5 q29 -14 57 -23q25 -10 55.5 -16t59.5 -6h80q20 0 47 5t50.5 4t39.5 -14.5t16 -52.5q6 -20 9 -39q2 -16 1 -30.5t-10 -20.5h-57h-41q-25 0 -40 -25.5t-15 -54.5q-10 -31 -12.5 -49t2.5 -29q2 -12 10 -18l-25 -74q10 -16 13.5 -33.5t7.5 -31.5q2 -18 4 -33q0 -6 -4 -18.5 t-8.5 -26.5t-8.5 -28.5t-4 -22.5v-39q0 -8 -2 -20.5t-6 -26.5q-4 -16 -8 -33q0 -14 4 -25.5t8 -21.5q4 -8 4 -19.5v-25.5q0 -29 -4 -39q-12 -12 -12 -41t-23.5 -58.5t-50.5 -76.5q0 -27 -25.5 -46.5t-54.5 -45.5q-14 -16 -22.5 -25.5t-15.5 -16t-16 -10.5t-26 -10 q-68 -31 -133 -36t-94 -5q-35 0 -77 4t-84 14.5t-81 24.5t-65 37l-41 57q-16 23 -28.5 49.5t-22.5 49.5q-12 27 -23 55v137q0 29 -11 58.5t-11 76.5v115q4 20 10 41q4 16 8 32.5t4 22.5q-6 29 -12 51q-10 45 -10 64q4 16 10 33q4 14 8 26.5t4 20.5v112q0 14 -24.5 24.5 t-54 18t-53.5 14.5t-21 17zM217 1890q-14 35 5 48t46 -3q8 -16 23.5 -38.5t38.5 -34.5q23 -16 43 -40t37 -46q78 -84 125 -158q6 -2 14 -13.5t16 -23.5t16.5 -22.5t16.5 -10.5q6 -16 18.5 -34.5t25.5 -38t23.5 -41t12.5 -45.5q12 -4 13 -13.5t16 -9.5q8 -12 -0.5 -27.5 t-12.5 -29.5q-4 -23 -31.5 -39.5t-54.5 -12.5q-12 2 -30.5 19.5t-37 40t-35 43t-22.5 29.5q-16 23 -33.5 37t-33.5 42q-27 35 -44.5 77t-47.5 95q-2 18 -14.5 51t-29 68t-34 71t-29.5 60z" />
<glyph unicode="&#xda;" horiz-adv-x="1280" d="M23 1075q0 27 22.5 53.5t50.5 26.5l99 23h38q12 0 48 -11.5t67 -11.5h170q29 0 34 -12.5t5 -20.5q0 -45 -12.5 -62.5t-31.5 -22.5t-40.5 -5t-41 -9t-32 -34.5t-12.5 -83.5q0 -6 2 -19.5t5 -28.5t6 -28.5t3 -19.5v-57v-308v-137q-12 -27 -6 -34t6 -23l23 -55 q20 -31 38.5 -49.5t41 -30t53.5 -15.5t78 -4q14 0 49 12.5t66 28.5q6 14 19 27.5t31.5 37t40 61.5t46.5 102v79q0 14 2 53.5t5 82.5t6 81t3 50q-4 6 -8 14q-8 16 -8 27v96l-19 115v38q0 23 -14 30t-31 11q-23 4 -40 8.5t-17 24.5q0 18 8 35.5t19.5 33t26 25t26.5 9.5 q29 -14 57 -23q25 -10 55.5 -16t59.5 -6h80q20 0 47 5t50.5 4t39.5 -14.5t16 -52.5q6 -20 9 -39q2 -16 1 -30.5t-10 -20.5h-57h-41q-25 0 -40 -25.5t-15 -54.5q-10 -31 -12.5 -49t2.5 -29q2 -12 10 -18l-25 -74q10 -16 13.5 -33.5t7.5 -31.5q2 -18 4 -33q0 -6 -4 -18.5 t-8.5 -26.5t-8.5 -28.5t-4 -22.5v-39q0 -8 -2 -20.5t-6 -26.5q-4 -16 -8 -33q0 -14 4 -25.5t8 -21.5q4 -8 4 -19.5v-25.5q0 -29 -4 -39q-12 -12 -12 -41t-23.5 -58.5t-50.5 -76.5q0 -27 -25.5 -46.5t-54.5 -45.5q-14 -16 -22.5 -25.5t-15.5 -16t-16 -10.5t-26 -10 q-68 -31 -133 -36t-94 -5q-35 0 -77 4t-84 14.5t-81 24.5t-65 37l-41 57q-16 23 -28.5 49.5t-22.5 49.5q-12 27 -23 55v137q0 29 -11 58.5t-11 76.5v115q4 20 10 41q4 16 8 32.5t4 22.5q-6 29 -12 51q-10 45 -10 64q4 16 10 33q4 14 8 26.5t4 20.5v112q0 14 -24.5 24.5 t-54 18t-53.5 14.5t-21 17zM643 1333q0 16 10.5 29.5t24.5 44.5q0 16 12 37.5t21 36.5q0 35 12 52t12 44q0 31 8.5 46t8.5 28q27 31 49 62.5t47 58.5q31 39 57.5 77.5t57.5 69.5q12 0 27.5 3t29.5 20q16 0 30.5 8t30.5 8q27 0 31 -22.5t4 -39.5v-34v-39q0 -29 -6 -46.5 t-18.5 -32.5t-31 -30.5t-40.5 -40.5q-31 -29 -49.5 -56.5t-48.5 -55.5q-12 -14 -16.5 -27.5t-16.5 -30.5q-16 -25 -29.5 -40t-26 -29.5t-24.5 -33t-23 -44.5q-4 -8 -11 -22.5t-16 -29t-21.5 -24.5t-26.5 -10q-25 0 -46.5 16.5t-21.5 46.5z" />
<glyph unicode="&#xdb;" horiz-adv-x="1280" d="M23 1075q0 27 22.5 53.5t50.5 26.5l99 23h38q12 0 48 -11.5t67 -11.5h170q29 0 34 -12.5t5 -20.5q0 -45 -12.5 -62.5t-31.5 -22.5t-40.5 -5t-41 -9t-32 -34.5t-12.5 -83.5q0 -6 2 -19.5t5 -28.5t6 -28.5t3 -19.5v-57v-308v-137q-12 -27 -6 -34t6 -23l23 -55 q20 -31 38.5 -49.5t41 -30t53.5 -15.5t78 -4q14 0 49 12.5t66 28.5q6 14 19 27.5t31.5 37t40 61.5t46.5 102v79q0 14 2 53.5t5 82.5t6 81t3 50q-4 6 -8 14q-8 16 -8 27v96l-19 115v38q0 23 -14 30t-31 11q-23 4 -40 8.5t-17 24.5q0 18 8 35.5t19.5 33t26 25t26.5 9.5 q29 -14 57 -23q25 -10 55.5 -16t59.5 -6h80q20 0 47 5t50.5 4t39.5 -14.5t16 -52.5q6 -20 9 -39q2 -16 1 -30.5t-10 -20.5h-57h-41q-25 0 -40 -25.5t-15 -54.5q-10 -31 -12.5 -49t2.5 -29q2 -12 10 -18l-25 -74q10 -16 13.5 -33.5t7.5 -31.5q2 -18 4 -33q0 -6 -4 -18.5 t-8.5 -26.5t-8.5 -28.5t-4 -22.5v-39q0 -8 -2 -20.5t-6 -26.5q-4 -16 -8 -33q0 -14 4 -25.5t8 -21.5q4 -8 4 -19.5v-25.5q0 -29 -4 -39q-12 -12 -12 -41t-23.5 -58.5t-50.5 -76.5q0 -27 -25.5 -46.5t-54.5 -45.5q-14 -16 -22.5 -25.5t-15.5 -16t-16 -10.5t-26 -10 q-68 -31 -133 -36t-94 -5q-35 0 -77 4t-84 14.5t-81 24.5t-65 37l-41 57q-16 23 -28.5 49.5t-22.5 49.5q-12 27 -23 55v137q0 29 -11 58.5t-11 76.5v115q4 20 10 41q4 16 8 32.5t4 22.5q-6 29 -12 51q-10 45 -10 64q4 16 10 33q4 14 8 26.5t4 20.5v112q0 14 -24.5 24.5 t-54 18t-53.5 14.5t-21 17zM291 1280q4 18 8 33.5t14 23.5l11 29q10 35 28.5 61.5t40.5 53.5l29 45q10 10 32.5 47t50 82t59.5 91t63 77q12 12 22 27.5t23 27.5l57 47l29 -29q12 -10 24.5 -31.5t26.5 -41.5q14 -25 33.5 -49.5t38 -55t33 -68.5t20.5 -85l29 -45l16 -29 q10 -35 16 -60.5t6 -64.5q0 -10 -2 -29.5t-8 -38t-18 -32t-33 -13.5q-18 0 -30.5 13.5t-19.5 32t-12.5 36t-11.5 25.5q-14 18 -27.5 42.5t-35.5 37.5q-12 47 -22.5 80.5t-22.5 68.5q-10 29 -29.5 51.5t-44.5 45.5q-10 -10 -17.5 -24.5t-11.5 -27.5l-18 -41 q-37 -31 -50.5 -50t-22.5 -37.5t-25.5 -40t-59.5 -54.5l-28 -27q-27 -27 -42.5 -44t-26.5 -31.5t-19.5 -24.5t-20.5 -20h-12q-16 0 -23.5 8t-15.5 8z" />
<glyph unicode="&#xdc;" horiz-adv-x="1280" d="M23 1075q0 27 22.5 53.5t50.5 26.5l99 23h38q12 0 48 -11.5t67 -11.5h170q29 0 34 -12.5t5 -20.5q0 -45 -12.5 -62.5t-31.5 -22.5t-40.5 -5t-41 -9t-32 -34.5t-12.5 -83.5q0 -6 2 -19.5t5 -28.5t6 -28.5t3 -19.5v-57v-308v-137q-12 -27 -6 -34t6 -23l23 -55 q20 -31 38.5 -49.5t41 -30t53.5 -15.5t78 -4q14 0 49 12.5t66 28.5q6 14 19 27.5t31.5 37t40 61.5t46.5 102v79q0 14 2 53.5t5 82.5t6 81t3 50q-4 6 -8 14q-8 16 -8 27v96l-19 115v38q0 23 -14 30t-31 11q-23 4 -40 8.5t-17 24.5q0 18 8 35.5t19.5 33t26 25t26.5 9.5 q29 -14 57 -23q25 -10 55.5 -16t59.5 -6h80q20 0 47 5t50.5 4t39.5 -14.5t16 -52.5q6 -20 9 -39q2 -16 1 -30.5t-10 -20.5h-57h-41q-25 0 -40 -25.5t-15 -54.5q-10 -31 -12.5 -49t2.5 -29q2 -12 10 -18l-25 -74q10 -16 13.5 -33.5t7.5 -31.5q2 -18 4 -33q0 -6 -4 -18.5 t-8.5 -26.5t-8.5 -28.5t-4 -22.5v-39q0 -8 -2 -20.5t-6 -26.5q-4 -16 -8 -33q0 -14 4 -25.5t8 -21.5q4 -8 4 -19.5v-25.5q0 -29 -4 -39q-12 -12 -12 -41t-23.5 -58.5t-50.5 -76.5q0 -27 -25.5 -46.5t-54.5 -45.5q-14 -16 -22.5 -25.5t-15.5 -16t-16 -10.5t-26 -10 q-68 -31 -133 -36t-94 -5q-35 0 -77 4t-84 14.5t-81 24.5t-65 37l-41 57q-16 23 -28.5 49.5t-22.5 49.5q-12 27 -23 55v137q0 29 -11 58.5t-11 76.5v115q4 20 10 41q4 16 8 32.5t4 22.5q-6 29 -12 51q-10 45 -10 64q4 16 10 33q4 14 8 26.5t4 20.5v112q0 14 -24.5 24.5 t-54 18t-53.5 14.5t-21 17zM176 1452q2 23 16.5 38t34 24.5t44 15.5t48.5 12q14 6 24.5 19.5l21 27t22.5 23.5t29 10q12 0 20 -8t14.5 -20.5t11.5 -27t11 -24.5q12 -25 27.5 -44t30 -38.5t23.5 -41t9 -52.5q0 -12 -10 -20.5t-24.5 -15.5t-30 -14t-25.5 -18 q-12 -12 -19.5 -25t-13.5 -22.5t-15 -15.5t-26 -6q-25 0 -39 11t-26 26.5t-26.5 33t-35.5 27.5q-16 10 -33.5 30.5t-31.5 40t-22.5 36t-8.5 18.5zM711 1462q0 18 16.5 24.5t30.5 22.5q29 29 60.5 48.5t70.5 41.5q10 4 16 13.5t11.5 17.5t11.5 14.5t16 6.5q18 0 29.5 -12.5 t19.5 -30t16.5 -37t20.5 -33.5q12 -18 28.5 -28.5t31 -21.5t23.5 -24.5t9 -33.5q0 -18 -11 -32t-26.5 -25t-33 -23.5t-27.5 -28.5q-12 -23 -26.5 -40t-41.5 -17t-36 16t-31 29q-16 14 -34.5 19t-35.5 28q-16 29 -24.5 40t-36.5 27q-14 10 -30.5 14.5t-16.5 24.5z" />
<glyph unicode="&#xdd;" horiz-adv-x="1308" d="M23 1075q0 35 15 57.5t58 22.5h99q29 0 55 -11t41 -11h96q6 0 22.5 -2.5t36 -3.5t40 -3t32.5 -2h45q14 0 16.5 -3t2.5 -19t-12.5 -30.5t-26 -32t-25.5 -36t-12 -38.5q0 -23 22.5 -58t51.5 -69q33 -39 75 -84q0 -6 4.5 -18.5t9.5 -25t12 -21.5t13 -9q14 0 28.5 20.5t27 47 t22.5 50t19 29.5q0 8 12 28.5t27.5 44.5t27.5 47.5t12 39.5q0 12 -16 20.5t-34.5 19.5t-35 27.5t-16.5 47.5q0 8 9 14t22.5 10t27 6.5t21.5 2.5q12 -4 22 -7q10 -2 19.5 -3t15.5 -1h39q31 8 53.5 9.5t77.5 1.5q20 0 33.5 3t23 8t20 8t26.5 3q12 0 31.5 -4t38 -9t31.5 -10.5 t13 -9.5q0 -47 -26.5 -74.5t-69.5 -27.5h-63q-29 0 -43.5 -10.5t-23.5 -25.5t-13 -36.5t-11 -42.5q-10 -12 -18 -24.5t-23 -20.5q-8 -14 -19 -26.5t-19 -24.5l-36 -69t-46.5 -102t-39 -113.5t-16.5 -102.5v-74l-10 -57q0 -6 2 -25.5t6 -39t10.5 -35t14.5 -15.5 q14 -8 59 -19.5t93.5 -26.5t85 -33.5t36.5 -39.5q0 -10 -2 -18q-4 -16 -20 -16q-18 -16 -31.5 -22.5t-26.5 -23.5q-8 0 -13 -9t-10 -19t-13.5 -19.5t-20.5 -9.5q-16 0 -41.5 11.5t-54.5 11.5h-137q-16 0 -33 2q-14 2 -31.5 5t-32.5 11h-92q-35 0 -51 -9t-51 -9h-35 q-72 0 -95.5 18.5t-23.5 73.5q0 35 18.5 68.5t61.5 33.5l96 -22q12 0 29.5 7t31 17.5t19.5 24.5t0 31l-22 227q0 16 -2 33.5t8 33.5q0 12 -6 25.5t-6 26.5q0 43 -21.5 76.5t-69.5 76.5q-14 31 -54 57.5t-83 57.5q-12 29 -36.5 59.5t-37.5 59.5q-12 10 -26 14t-31 14 q-39 10 -80 17q-35 14 -54 37.5t-19 64.5zM627 1333q0 16 10 29.5t22 44.5q0 16 13.5 37.5t21.5 36.5q0 35 11.5 52t11.5 44q0 31 9 46t9 28q25 31 47.5 62.5t48.5 58.5q29 39 56.5 77.5t56.5 69.5q14 0 29.5 3t27.5 20q16 0 32 8t32 8q27 0 31 -22.5t4 -39.5v-34v-39 q0 -29 -6.5 -46.5t-18.5 -32.5t-30.5 -30.5t-43.5 -40.5q-29 -29 -48 -56.5t-48 -55.5q-12 -14 -16 -27.5t-19 -30.5q-14 -25 -28.5 -40t-26.5 -29.5t-24.5 -33t-22.5 -44.5q-4 -8 -10 -22.5t-15.5 -29t-21.5 -24.5t-27 -10q-27 0 -47 16.5t-20 46.5z" />
<glyph unicode="&#xde;" horiz-adv-x="1538" d="M-12 506q2 0 2 2q0 6 -2 16q14 51 27.5 109.5t64.5 105.5q33 33 58.5 73t51 77t58.5 64.5t82 31.5q10 0 18 6t23 10q20 12 39 23q16 10 30.5 17.5t20.5 7.5h28q4 0 20.5 8t40 19t49.5 19.5t50 8.5h74q35 0 57.5 30.5t22.5 61.5q-2 2 -4 10t-2 47v80v4q-10 10 -11 19 q-10 10 -30.5 13t-42 4t-43 3t-33.5 8q-12 12 -20.5 29t-8.5 55q12 12 23 21q10 8 20.5 14t20.5 6h114q8 0 18.5 -4t18.5 -8q8 -6 19 -10q39 0 76 10q20 6 38 12h45q14 0 27 4q6 3 8 7q6 0 20.5 -2t31 -3.5t31 -3.5t20.5 -2q16 0 39.5 -28.5t23.5 -57.5q0 -10 -28.5 -17 t-62.5 -14.5t-62.5 -15.5t-28.5 -20l-6 -35v-23q4 -43 0 -81.5t0 -38.5q25 -39 80 -39l112 -29q23 0 51.5 -3t51.5 -26q18 -16 42.5 -32.5t55.5 -28.5q12 -10 26.5 -28.5t28 -40t21.5 -41t8 -27.5q-2 -16 0 -36t5 -38t5 -30.5t2 -14.5q0 -37 -3 -65.5t-11 -56.5t-19.5 -58.5 t-29.5 -71.5q-16 -35 -52 -61.5t-61 -51.5q-25 -8 -41 -24q-16 -4 -36.5 -8.5t-43.5 -8.5q-25 0 -30 3.5t-9 3.5q-2 0 -10 -5q-4 -2 -6 -2q-23 0 -49.5 11.5t-26.5 33.5q0 20 17.5 29.5t42 18t55.5 18.5t55.5 32.5t42 61.5t17.5 103q0 10 -8.5 31.5t1.5 60.5 q10 37 -19.5 71.5t-75.5 63.5t-94 46t-73 17q-27 0 -34 -8t-11 -43q-2 -45 -2 -58t2 -16.5t4 -7.5t2 -31.5t-4 -89t-14 -178.5q0 -23 8 -62.5t8 -74.5l-4 -131v-51q0 -25 13.5 -41.5t33 -27.5t40 -16t32.5 -5h23q14 0 34.5 -7.5t38 -18.5t29.5 -25.5t12 -28.5 q0 -10 -5 -24.5t-17 -10.5q-39 4 -69 -4t-52 -8h-9.5t-15.5 2l-20 4q-39 0 -59.5 -5t-43.5 -5q-12 0 -36.5 3t-51 6t-51 7t-37.5 6q-35 0 -44 -3t-13 -3q-12 -2 -23 -4q-10 -2 -18 -2h-10q-47 0 -79 -3t-75 -3q-16 0 -22.5 11t-6.5 24q0 43 35 72.5t74 29.5l61 12q14 0 31 2 t21 2q14 0 30.5 16.5t16.5 30.5v33q0 2 2 18.5t5 37l6 41t3 30.5l-4 21q-2 8 -2 18q0 2 2 13.5t5 24.5t6 28.5t5 25.5v96v52q0 2 1 14t1 25.5t1.5 26t1.5 14.5q-4 68 2 111.5t16 70.5q0 41 -24.5 62.5t-67.5 21.5q-23 0 -62 -16.5t-79.5 -35t-77.5 -35t-54 -16.5 q-33 0 -69.5 -32.5t-68.5 -78.5t-52.5 -93.5t-20.5 -73.5q0 -14 10.5 -37t24 -46.5t23.5 -45t10 -31.5q0 -25 -15.5 -48.5t-37 -41.5t-46 -29.5t-42.5 -11.5q-10 0 -32 11.5t-42 24.5t-35.5 24.5t-15.5 13.5q-16 35 -24.5 65.5t-22.5 65.5z" />
<glyph unicode="&#xdf;" horiz-adv-x="1019" d="M-621 -825q0 27 14.5 56.5t35 59t43 58t39.5 53.5q12 0 26 -3t31 -3q12 0 24.5 6t26.5 6q12 0 26.5 -8t41.5 -8q12 0 47 8t61 8q16 0 39 7t23 22q14 6 22 12t14.5 12.5l13.5 13.5t19 13q16 12 27.5 16t11.5 35q14 39 27.5 87t13.5 102l29 22v154q4 16 18.5 47t14.5 43 l92 694q8 33 14 70t13.5 73.5t16.5 71.5t23 66t40 72.5t49.5 79.5t41 68t17.5 36q0 16 12 39.5t29 50.5q33 39 65.5 82t66.5 86t69.5 82t76.5 69q31 27 80 49.5t92 36.5l158 62q14 -4 47 -5t45 -1q41 -2 83 -30t77 -68t55.5 -85t18.5 -80l-13 -141q-18 -25 -26 -45 t-16.5 -41.5t-20.5 -45t-39 -56.5q0 -12 -7 -35t-22 -39q-41 -47 -85 -97t-91 -85q-29 -33 -60.5 -65t-61 -65.5t-52 -70.5t-31.5 -78q0 -12 -19.5 -33.5t-19.5 -33.5q0 -18 10.5 -38t25 -36t27.5 -30.5t17 -22.5q18 -43 37 -64.5t33 -37t21.5 -32t5.5 -49.5 q-2 -41 -7.5 -61.5t-17.5 -39.5t-34.5 -45t-61.5 -75q-12 -29 -26.5 -41t-30 -18t-33 -11.5t-35.5 -15.5h-33q-31 -12 -48.5 -22.5t-27.5 -10.5q-12 -14 -25.5 -12t-29.5 6l-21 -12q-16 -10 -30 -10q-27 0 -41.5 21.5t-9.5 51.5q0 12 12 46t16 57q39 12 78 20.5t80 8.5 q10 0 22.5 2t34.5 14q6 0 17.5 7t23.5 18q12 10 29 26q4 27 -17.5 61.5t-52.5 47.5q-39 20 -63.5 54t-38.5 73t-19.5 77.5t-3.5 73.5q0 4 12.5 27.5t31 57.5t42 72t45 72.5t40 61.5t28.5 35q27 8 54.5 31.5t54.5 52.5q16 23 41.5 55.5t54.5 71.5q14 25 37.5 37t54.5 41 q8 27 16.5 56.5t14.5 57t10 48t4 26.5q4 55 -29.5 101t-89.5 46q-14 0 -46 -15t-56 -30q-16 -12 -47 -22t-45 -10q-43 -23 -94.5 -67t-94.5 -83q-25 -25 -44 -60.5t-29 -74.5q-16 -14 -37 -28.5t-25 -41.5q-16 -12 -38.5 -50t-45 -82t-38 -86t-15.5 -60q0 -6 1 -19.5t1 -29 v-28.5t-2 -19q-2 -29 -7 -47.5t-10.5 -37t-10.5 -42t-7 -62.5q0 -12 -8 -50t-17.5 -79t-17.5 -75.5t-8 -41.5q0 -12 -3 -44.5t-20 -112.5q0 -27 -12 -62t-16 -47q0 -14 11 -29.5t7 -27.5q0 -6 -4 -35t-10 -61.5t-10.5 -60.5t-4.5 -32q0 -6 -4 -38.5t-12 -75.5t-20.5 -89 t-26.5 -81q-29 -25 -47.5 -54.5t-32.5 -42.5q-29 -39 -66.5 -71.5t-64.5 -71.5q-16 -12 -32.5 -25.5t-28.5 -13.5q-12 -12 -47 -30.5t-75 -36t-81 -27.5t-66 -8l-166 6q-12 2 -20 13.5t-12 25.5q-6 16 -7 35z" />
<glyph unicode="&#xe0;" horiz-adv-x="780" d="M16 1890q-12 35 7.5 48t44.5 -3q10 -16 25.5 -38.5t37.5 -34.5q23 -16 43.5 -40t36.5 -46q39 -41 68.5 -80t56.5 -78q6 -2 13 -13.5t15.5 -23.5t16.5 -22.5t18 -10.5q6 -16 18.5 -34.5t26 -38t23.5 -41t12 -45.5q12 -4 13.5 -13.5t13.5 -9.5q10 -12 2 -27.5t-12 -29.5 q-4 -23 -32 -39.5t-54 -12.5q-12 2 -32 19.5t-38 40t-33.5 43t-21.5 29.5q-16 23 -34 37t-34 42q-27 35 -44 77t-48 95q-2 18 -14.5 51t-28.5 68t-34.5 71t-31.5 60zM68 272l28 240q0 6 6.5 28.5t16.5 49t23.5 52.5t27.5 42q59 55 115 135q27 37 51 53.5t49 25.5t49.5 14.5 t54.5 21.5q12 0 32 13.5t36 25.5h57h35l39 18q43 0 61.5 -24.5t18.5 -67.5q0 -8 -6 -35.5t-15.5 -61.5t-19.5 -69t-16 -55q0 -16 -2 -33.5t-15 -46.5q-16 -12 -16 -40v-40l-6 -108v-80q0 -6 1 -21.5t4 -31t11 -26.5t23 -11l28 45q12 10 28.5 25.5t33.5 29.5q18 16 37 35 q12 0 20 -10.5t8 -22.5l-8 -16q-8 -16 -16 -25q-14 -41 -37 -70.5t-49.5 -57.5t-54 -56.5t-52.5 -65.5l-45 -63q0 -18 -11 -38t-26.5 -31t-33 -10t-27.5 23q-12 37 -12 73t6 70t12 64.5t6 59.5v73v41q0 10 -14 15q-8 2 -15 2q-6 0 -30.5 -36t-56 -82t-64.5 -93t-53 -68 q-6 -8 -19.5 -23.5t-29 -29.5t-34 -25.5t-32.5 -11.5q-29 0 -47.5 20.5t-28.5 48t-15 55.5t-5 40zM244 441.5q-2 -27.5 2 -57.5t15 -53.5t40 -23.5q27 0 62.5 47t67.5 106.5t53.5 111t21.5 61.5q0 8 2 40t-3 61.5t-22.5 43t-56.5 -13.5q-37 -31 -69.5 -71t-57.5 -81 t-39 -76.5t-14 -56.5q0 -10 -2 -37.5z" />
<glyph unicode="&#xe1;" horiz-adv-x="780" d="M68 272l28 240q0 6 6.5 28.5t16.5 49t23.5 52.5t27.5 42q59 55 115 135q27 37 51 53.5t49 25.5t49.5 14.5t54.5 21.5q12 0 32 13.5t36 25.5h57h35l39 18q43 0 61.5 -24.5t18.5 -67.5q0 -8 -6 -35.5t-15.5 -61.5t-19.5 -69t-16 -55q0 -16 -2 -33.5t-15 -46.5 q-16 -12 -16 -40v-40l-6 -108v-80q0 -6 1 -21.5t4 -31t11 -26.5t23 -11l28 45q12 10 28.5 25.5t33.5 29.5q18 16 37 35q12 0 20 -10.5t8 -22.5l-8 -16q-8 -16 -16 -25q-14 -41 -37 -70.5t-49.5 -57.5t-54 -56.5t-52.5 -65.5l-45 -63q0 -18 -11 -38t-26.5 -31t-33 -10 t-27.5 23q-12 37 -12 73t6 70t12 64.5t6 59.5v73v41q0 10 -14 15q-8 2 -15 2q-6 0 -30.5 -36t-56 -82t-64.5 -93t-53 -68q-6 -8 -19.5 -23.5t-29 -29.5t-34 -25.5t-32.5 -11.5q-29 0 -47.5 20.5t-28.5 48t-15 55.5t-5 40zM244 441.5q-2 -27.5 2 -57.5t15 -53.5t40 -23.5 q27 0 62.5 47t67.5 106.5t53.5 111t21.5 61.5q0 8 2 40t-3 61.5t-22.5 43t-56.5 -13.5q-37 -31 -69.5 -71t-57.5 -81t-39 -76.5t-14 -56.5q0 -10 -2 -37.5zM479 1333q0 16 10.5 29.5t22.5 44.5q0 16 12.5 37.5t22.5 36.5q0 35 11 52t11 44q0 31 8.5 46t8.5 28q27 31 49 62.5 t49 58.5q29 39 56.5 77.5t56.5 69.5q14 0 29.5 3t27.5 20q16 0 30.5 8t33.5 8q25 0 28.5 -22.5t3.5 -39.5v-34v-39q0 -29 -6 -46.5t-18.5 -32.5t-29.5 -30.5t-42 -40.5q-29 -29 -48.5 -56.5t-47.5 -55.5q-14 -14 -18.5 -27.5t-16.5 -30.5q-14 -25 -28.5 -40t-27 -29.5 t-24.5 -33t-22 -44.5q-4 -8 -11.5 -22.5t-16.5 -29t-20.5 -24.5t-25.5 -10q-27 0 -47.5 16.5t-20.5 46.5z" />
<glyph unicode="&#xe2;" horiz-adv-x="780" d="M68 272l28 240q0 6 6.5 28.5t16.5 49t23.5 52.5t27.5 42q59 55 115 135q27 37 51 53.5t49 25.5t49.5 14.5t54.5 21.5q12 0 32 13.5t36 25.5h57h35l39 18q43 0 61.5 -24.5t18.5 -67.5q0 -8 -6 -35.5t-15.5 -61.5t-19.5 -69t-16 -55q0 -16 -2 -33.5t-15 -46.5 q-16 -12 -16 -40v-40l-6 -108v-80q0 -6 1 -21.5t4 -31t11 -26.5t23 -11l28 45q12 10 28.5 25.5t33.5 29.5q18 16 37 35q12 0 20 -10.5t8 -22.5l-8 -16q-8 -16 -16 -25q-14 -41 -37 -70.5t-49.5 -57.5t-54 -56.5t-52.5 -65.5l-45 -63q0 -18 -11 -38t-26.5 -31t-33 -10 t-27.5 23q-12 37 -12 73t6 70t12 64.5t6 59.5v73v41q0 10 -14 15q-8 2 -15 2q-6 0 -30.5 -36t-56 -82t-64.5 -93t-53 -68q-6 -8 -19.5 -23.5t-29 -29.5t-34 -25.5t-32.5 -11.5q-29 0 -47.5 20.5t-28.5 48t-15 55.5t-5 40zM182 1280q4 18 9.5 33.5t13.5 23.5l12 29 q8 35 26.5 61.5t41.5 53.5l28 45q10 10 33 47t50.5 82t59 91t62.5 77q12 12 22.5 27.5t22.5 27.5l58 47l28 -29q12 -10 25.5 -31.5t25.5 -41.5q14 -25 34 -49.5t38.5 -55t32.5 -68.5t20 -85l29 -45l16 -29q10 -35 16.5 -60.5t6.5 -64.5q0 -10 -2 -29.5t-8 -38t-18.5 -32 t-33.5 -13.5q-18 0 -30.5 13.5t-19.5 32t-12 36t-11 25.5q-14 18 -27.5 42.5t-36.5 37.5q-12 47 -22 80.5t-23 68.5q-10 29 -29.5 51.5t-44.5 45.5q-10 -10 -17 -24.5t-11 -27.5l-17 -41q-37 -31 -50 -50t-23.5 -37.5t-26.5 -40t-59 -54.5l-29 -27q-27 -27 -42 -44 t-25.5 -31.5t-19.5 -24.5t-22 -20h-12q-16 0 -22 8t-17 8zM244 441.5q-2 -27.5 2 -57.5t15 -53.5t40 -23.5q27 0 62.5 47t67.5 106.5t53.5 111t21.5 61.5q0 8 2 40t-3 61.5t-22.5 43t-56.5 -13.5q-37 -31 -69.5 -71t-57.5 -81t-39 -76.5t-14 -56.5q0 -10 -2 -37.5z" />
<glyph unicode="&#xe3;" horiz-adv-x="780" d="M68 272l28 240q0 6 6.5 28.5t16.5 49t23.5 52.5t27.5 42q59 55 115 135q27 37 51 53.5t49 25.5t49.5 14.5t54.5 21.5q12 0 32 13.5t36 25.5h57h35l39 18q43 0 61.5 -24.5t18.5 -67.5q0 -8 -6 -35.5t-15.5 -61.5t-19.5 -69t-16 -55q0 -16 -2 -33.5t-15 -46.5 q-16 -12 -16 -40v-40l-6 -108v-80q0 -6 1 -21.5t4 -31t11 -26.5t23 -11l28 45q12 10 28.5 25.5t33.5 29.5q18 16 37 35q12 0 20 -10.5t8 -22.5l-8 -16q-8 -16 -16 -25q-14 -41 -37 -70.5t-49.5 -57.5t-54 -56.5t-52.5 -65.5l-45 -63q0 -18 -11 -38t-26.5 -31t-33 -10 t-27.5 23q-12 37 -12 73t6 70t12 64.5t6 59.5v73v41q0 10 -14 15q-8 2 -15 2q-6 0 -30.5 -36t-56 -82t-64.5 -93t-53 -68q-6 -8 -19.5 -23.5t-29 -29.5t-34 -25.5t-32.5 -11.5q-29 0 -47.5 20.5t-28.5 48t-15 55.5t-5 40zM211 1229v28q0 27 5 43.5t5 42.5q0 39 18.5 69 t45.5 46q10 0 18 1t21 9q18 14 29.5 27.5t27.5 13.5q31 0 52.5 -2t49.5 -16h20.5t14.5 -4q16 0 36.5 -10.5t43.5 -18.5q27 -16 61.5 -40.5t57.5 -33.5q35 -14 76 -21t67 -7h26.5t24.5 4q23 14 27 35.5t12 44.5q10 10 2 33.5t-8 46.5q0 10 -5 14t-5 27q0 25 22.5 41t51.5 16 q23 0 38 -7t25 -18q23 -8 32 -16t19 -16q8 -14 9.5 -31t1.5 -39q0 -82 -62 -148q-10 -8 -17 -23t-18 -28q-43 -27 -102.5 -50t-114.5 -23q-41 0 -76.5 12t-69.5 28.5t-68 34t-70 27.5q-16 0 -37 6t-43 6q-41 0 -80 -13t-78 -56q-18 -4 -24.5 -19.5t-22.5 -15.5h-39z M244 441.5q-2 -27.5 2 -57.5t15 -53.5t40 -23.5q27 0 62.5 47t67.5 106.5t53.5 111t21.5 61.5q0 8 2 40t-3 61.5t-22.5 43t-56.5 -13.5q-37 -31 -69.5 -71t-57.5 -81t-39 -76.5t-14 -56.5q0 -10 -2 -37.5z" />
</font>
</defs>
</svg>
